  0
SECTION
  2
HEADER
  9
$ACADVER
  1
AC1024
  9
$ACADMAINTVER
 70
6
  9
$DWGCODEPAGE
  3
ANSI_1252
  9
$LASTSAVEDBY
  1
ezdxf
  9
$INSBASE
 10
0.0
 20
0.0
 30
0.0
  9
$EXTMIN
 10
1e+20
 20
1e+20
 30
1e+20
  9
$EXTMAX
 10
-1e+20
 20
-1e+20
 30
-1e+20
  9
$LIMMIN
 10
0.0
 20
0.0
  9
$LIMMAX
 10
420.0
 20
297.0
  9
$ORTHOMODE
 70
0
  9
$REGENMODE
 70
1
  9
$FILLMODE
 70
1
  9
$QTEXTMODE
 70
0
  9
$MIRRTEXT
 70
1
  9
$LTSCALE
 40
1.0
  9
$ATTMODE
 70
1
  9
$TEXTSIZE
 40
2.5
  9
$TRACEWID
 40
1.0
  9
$TEXTSTYLE
  7
OpenSans
  9
$CLAYER
  8
0
  9
$CELTYPE
  6
ByLayer
  9
$CECOLOR
 62
256
  9
$CELTSCALE
 40
1.0
  9
$DISPSILH
 70
0
  9
$DIMSCALE
 40
1.0
  9
$DIMASZ
 40
0.175
  9
$DIMEXO
 40
0.125
  9
$DIMDLI
 40
3.75
  9
$DIMRND
 40
0.0
  9
$DIMDLE
 40
0.0
  9
$DIMEXE
 40
0.375
  9
$DIMTP
 40
0.0
  9
$DIMTM
 40
0.0
  9
$DIMTXT
 40
0.25
  9
$DIMCEN
 40
2.5
  9
$DIMTSZ
 40
0.0
  9
$DIMTOL
 70
0
  9
$DIMLIM
 70
0
  9
$DIMTIH
 70
0
  9
$DIMTOH
 70
0
  9
$DIMSE1
 70
0
  9
$DIMSE2
 70
0
  9
$DIMTAD
 70
1
  9
$DIMZIN
 70
12
  9
$DIMBLK
  1
ARCHTICK
  9
$DIMASO
 70
1
  9
$DIMSHO
 70
1
  9
$DIMPOST
  1

  9
$DIMAPOST
  1

  9
$DIMALT
 70
0
  9
$DIMALTD
 70
3
  9
$DIMALTF
 40
0.03937007874
  9
$DIMLFAC
 40
100.0
  9
$DIMTOFL
 70
1
  9
$DIMTVP
 40
0.0
  9
$DIMTIX
 70
0
  9
$DIMSOXD
 70
0
  9
$DIMSAH
 70
0
  9
$DIMBLK1
  1

  9
$DIMBLK2
  1

  9
$DIMSTYLE
  2
EZDXF
  9
$DIMCLRD
 70
0
  9
$DIMCLRE
 70
0
  9
$DIMCLRT
 70
0
  9
$DIMTFAC
 40
0.5
  9
$DIMGAP
 40
0.1
  9
$DIMJUST
 70
0
  9
$DIMSD1
 70
0
  9
$DIMSD2
 70
0
  9
$DIMTOLJ
 70
0
  9
$DIMTZIN
 70
8
  9
$DIMALTZ
 70
0
  9
$DIMALTTZ
 70
0
  9
$DIMUPT
 70
1
  9
$DIMDEC
 70
2
  9
$DIMTDEC
 70
2
  9
$DIMALTU
 70
2
  9
$DIMALTTD
 70
3
  9
$DIMTXSTY
  7
OpenSansCondensed-Light
  9
$DIMAUNIT
 70
0
  9
$DIMADEC
 70
2
  9
$DIMALTRND
 40
0.0
  9
$DIMAZIN
 70
3
  9
$DIMDSEP
 70
46
  9
$DIMATFIT
 70
3
  9
$DIMFRAC
 70
0
  9
$DIMLDRBLK
  1

  9
$DIMLUNIT
 70
2
  9
$DIMLWD
 70
-2
  9
$DIMLWE
 70
-2
  9
$DIMTMOVE
 70
2
  9
$DIMFXL
 40
1.0
  9
$DIMFXLON
 70
0
  9
$DIMJOGANG
 40
0.785398163397
  9
$DIMTFILL
 70
0
  9
$DIMTFILLCLR
 70
0
  9
$DIMARCSYM
 70
0
  9
$DIMLTYPE
  6

  9
$DIMLTEX1
  6

  9
$DIMLTEX2
  6

  9
$DIMTXTDIRECTION
 70
0
  9
$LUNITS
 70
2
  9
$LUPREC
 70
4
  9
$SKETCHINC
 40
1.0
  9
$FILLETRAD
 40
10.0
  9
$AUNITS
 70
0
  9
$AUPREC
 70
2
  9
$MENU
  1
.
  9
$ELEVATION
 40
0.0
  9
$PELEVATION
 40
0.0
  9
$THICKNESS
 40
0.0
  9
$LIMCHECK
 70
0
  9
$CHAMFERA
 40
0.0
  9
$CHAMFERB
 40
0.0
  9
$CHAMFERC
 40
0.0
  9
$CHAMFERD
 40
0.0
  9
$SKPOLY
 70
0
  9
$TDCREATE
 40
2461308.489560185
  9
$TDUCREATE
 40
2458532.153996898
  9
$TDUPDATE
 40
2461308.489560185
  9
$TDUUPDATE
 40
2458532.1544311
  9
$TDINDWG
 40
0.0
  9
$TDUSRTIMER
 40
0.0
  9
$USRTIMER
 70
1
  9
$ANGBASE
 50
0.0
  9
$ANGDIR
 70
0
  9
$PDMODE
 70
0
  9
$PDSIZE
 40
0.0
  9
$PLINEWID
 40
0.0
  9
$SPLFRAME
 70
0
  9
$SPLINETYPE
 70
6
  9
$SPLINESEGS
 70
8
  9
$HANDSEED
  5
1E4
  9
$SURFTAB1
 70
6
  9
$SURFTAB2
 70
6
  9
$SURFTYPE
 70
6
  9
$SURFU
 70
6
  9
$SURFV
 70
6
  9
$UCSBASE
  2

  9
$UCSNAME
  2

  9
$UCSORG
 10
0.0
 20
0.0
 30
0.0
  9
$UCSXDIR
 10
1.0
 20
0.0
 30
0.0
  9
$UCSYDIR
 10
0.0
 20
1.0
 30
0.0
  9
$UCSORTHOREF
  2

  9
$UCSORTHOVIEW
 70
0
  9
$UCSORGTOP
 10
0.0
 20
0.0
 30
0.0
  9
$UCSORGBOTTOM
 10
0.0
 20
0.0
 30
0.0
  9
$UCSORGLEFT
 10
0.0
 20
0.0
 30
0.0
  9
$UCSORGRIGHT
 10
0.0
 20
0.0
 30
0.0
  9
$UCSORGFRONT
 10
0.0
 20
0.0
 30
0.0
  9
$UCSORGBACK
 10
0.0
 20
0.0
 30
0.0
  9
$PUCSBASE
  2

  9
$PUCSNAME
  2

  9
$PUCSORG
 10
0.0
 20
0.0
 30
0.0
  9
$PUCSXDIR
 10
1.0
 20
0.0
 30
0.0
  9
$PUCSYDIR
 10
0.0
 20
1.0
 30
0.0
  9
$PUCSORTHOREF
  2

  9
$PUCSORTHOVIEW
 70
0
  9
$PUCSORGTOP
 10
0.0
 20
0.0
 30
0.0
  9
$PUCSORGBOTTOM
 10
0.0
 20
0.0
 30
0.0
  9
$PUCSORGLEFT
 10
0.0
 20
0.0
 30
0.0
  9
$PUCSORGRIGHT
 10
0.0
 20
0.0
 30
0.0
  9
$PUCSORGFRONT
 10
0.0
 20
0.0
 30
0.0
  9
$PUCSORGBACK
 10
0.0
 20
0.0
 30
0.0
  9
$USERI1
 70
0
  9
$USERI2
 70
0
  9
$USERI3
 70
0
  9
$USERI4
 70
0
  9
$USERI5
 70
0
  9
$USERR1
 40
0.0
  9
$USERR2
 40
0.0
  9
$USERR3
 40
0.0
  9
$USERR4
 40
0.0
  9
$USERR5
 40
0.0
  9
$WORLDVIEW
 70
1
  9
$SHADEDGE
 70
3
  9
$SHADEDIF
 70
70
  9
$TILEMODE
 70
1
  9
$MAXACTVP
 70
64
  9
$PINSBASE
 10
0.0
 20
0.0
 30
0.0
  9
$PLIMCHECK
 70
0
  9
$PEXTMIN
 10
1e+20
 20
1e+20
 30
1e+20
  9
$PEXTMAX
 10
-1e+20
 20
-1e+20
 30
-1e+20
  9
$PLIMMIN
 10
0.0
 20
0.0
  9
$PLIMMAX
 10
420.0
 20
297.0
  9
$UNITMODE
 70
0
  9
$VISRETAIN
 70
1
  9
$PLINEGEN
 70
0
  9
$PSLTSCALE
 70
1
  9
$TREEDEPTH
 70
3020
  9
$CMLSTYLE
  2
Standard
  9
$CMLJUST
 70
0
  9
$CMLSCALE
 40
20.0
  9
$PROXYGRAPHICS
 70
1
  9
$MEASUREMENT
 70
1
  9
$CELWEIGHT
370
-1
  9
$ENDCAPS
280
0
  9
$JOINSTYLE
280
0
  9
$LWDISPLAY
290
0
  9
$INSUNITS
 70
4
  9
$HYPERLINKBASE
  1

  9
$STYLESHEET
  1

  9
$XEDIT
290
1
  9
$CEPSNTYPE
380
0
  9
$PSTYLEMODE
290
1
  9
$FINGERPRINTGUID
  2
{A4C0D57C-7ABF-4661-915A-B58AFE686F68}
  9
$VERSIONGUID
  2
{000DEC4F-1AB7-421D-ACC4-987D421CAB6C}
  9
$EXTNAMES
290
1
  9
$PSVPSCALE
 40
0.0
  9
$OLESTARTUP
290
0
  9
$SORTENTS
280
127
  9
$INDEXCTL
280
0
  9
$HIDETEXT
280
1
  9
$XCLIPFRAME
280
1
  9
$HALOGAP
280
0
  9
$OBSCOLOR
 70
257
  9
$OBSLTYPE
280
0
  9
$INTERSECTIONDISPLAY
280
0
  9
$INTERSECTIONCOLOR
 70
257
  9
$DIMASSOC
280
2
  9
$PROJECTNAME
  1

  9
$CAMERADISPLAY
290
0
  9
$LENSLENGTH
 40
50.0
  9
$CAMERAHEIGHT
 40
0.0
  9
$STEPSPERSEC
 40
24.0
  9
$STEPSIZE
 40
100.0
  9
$3DDWFPREC
 40
2.0
  9
$PSOLWIDTH
 40
0.005
  9
$PSOLHEIGHT
 40
0.08
  9
$LOFTANG1
 40
1.570796326795
  9
$LOFTANG2
 40
1.570796326795
  9
$LOFTMAG1
 40
0.0
  9
$LOFTMAG2
 40
0.0
  9
$LOFTPARAM
 70
7
  9
$LOFTNORMALS
280
1
  9
$LATITUDE
 40
37.795
  9
$LONGITUDE
 40
-122.394
  9
$NORTHDIRECTION
 40
0.0
  9
$TIMEZONE
 70
-8000
  9
$LIGHTGLYPHDISPLAY
280
1
  9
$TILEMODELIGHTSYNCH
280
1
  9
$CMATERIAL
347
20
  9
$SOLIDHIST
280
0
  9
$SHOWHIST
280
1
  9
$DWFFRAME
280
2
  9
$DGNFRAME
280
2
  9
$REALWORLDSCALE
290
1
  9
$INTERFERECOLOR
 62
256
  9
$CSHADOW
280
0
  9
$SHADOWPLANELOCATION
 40
0.0
  0
ENDSEC
  0
SECTION
  2
CLASSES
  0
CLASS
  1
ACDBDICTIONARYWDFLT
  2
AcDbDictionaryWithDefault
  3
ObjectDBX Classes
 90
0
 91
0
280
0
281
0
  0
CLASS
  1
SUN
  2
AcDbSun
  3
SCENEOE
 90
1153
 91
0
280
0
281
0
  0
CLASS
  1
VISUALSTYLE
  2
AcDbVisualStyle
  3
ObjectDBX Classes
 90
4095
 91
0
280
0
281
0
  0
CLASS
  1
MATERIAL
  2
AcDbMaterial
  3
ObjectDBX Classes
 90
1153
 91
0
280
0
281
0
  0
CLASS
  1
SCALE
  2
AcDbScale
  3
ObjectDBX Classes
 90
1153
 91
0
280
0
281
0
  0
CLASS
  1
TABLESTYLE
  2
AcDbTableStyle
  3
ObjectDBX Classes
 90
4095
 91
0
280
0
281
0
  0
CLASS
  1
MLEADERSTYLE
  2
AcDbMLeaderStyle
  3
ACDB_MLEADERSTYLE_CLASS
 90
4095
 91
0
280
0
281
0
  0
CLASS
  1
DICTIONARYVAR
  2
AcDbDictionaryVar
  3
ObjectDBX Classes
 90
0
 91
0
280
0
281
0
  0
CLASS
  1
CELLSTYLEMAP
  2
AcDbCellStyleMap
  3
ObjectDBX Classes
 90
1152
 91
0
280
0
281
0
  0
CLASS
  1
MENTALRAYRENDERSETTINGS
  2
AcDbMentalRayRenderSettings
  3
SCENEOE
 90
1024
 91
0
280
0
281
0
  0
CLASS
  1
ACDBDETAILVIEWSTYLE
  2
AcDbDetailViewStyle
  3
ObjectDBX Classes
 90
1025
 91
0
280
0
281
0
  0
CLASS
  1
ACDBSECTIONVIEWSTYLE
  2
AcDbSectionViewStyle
  3
ObjectDBX Classes
 90
1025
 91
0
280
0
281
0
  0
CLASS
  1
RASTERVARIABLES
  2
AcDbRasterVariables
  3
ISM
 90
0
 91
0
280
0
281
0
  0
CLASS
  1
ACDBPLACEHOLDER
  2
AcDbPlaceHolder
  3
ObjectDBX Classes
 90
0
 91
0
280
0
281
0
  0
CLASS
  1
LAYOUT
  2
AcDbLayout
  3
ObjectDBX Classes
 90
0
 91
0
280
0
281
0
  0
ENDSEC
  0
SECTION
  2
TABLES
  0
TABLE
  2
VPORT
  5
8
330
0
100
AcDbSymbolTable
 70
1
  0
VPORT
  5
23
330
8
100
AcDbSymbolTableRecord
100
AcDbViewportTableRecord
  2
*Active
 70
0
 10
0.0
 20
0.0
 11
1.0
 21
1.0
 12
0.0
 22
0.0
 13
0.0
 23
0.0
 14
0.5
 24
0.5
 15
0.5
 25
0.5
 16
0.0
 26
0.0
 36
1.0
 17
0.0
 27
0.0
 37
0.0
 40
1000.0
 41
1.34
 42
50.0
 43
0.0
 44
0.0
 50
0.0
 51
0.0
 71
0
 72
1000
 73
1
 74
3
 75
0
 76
0
 77
0
 78
0
281
0
 65
0
146
0.0
  0
ENDTAB
  0
TABLE
  2
LTYPE
  5
2
330
0
100
AcDbSymbolTable
 70
21
  0
LTYPE
  5
24
330
2
100
AcDbSymbolTableRecord
100
AcDbLinetypeTableRecord
  2
ByBlock
 70
0
  3

 72
65
 73
0
 40
0.0
  0
LTYPE
  5
25
330
2
100
AcDbSymbolTableRecord
100
AcDbLinetypeTableRecord
  2
ByLayer
 70
0
  3

 72
65
 73
0
 40
0.0
  0
LTYPE
  5
26
330
2
100
AcDbSymbolTableRecord
100
AcDbLinetypeTableRecord
  2
Continuous
 70
0
  3

 72
65
 73
0
 40
0.0
  0
LTYPE
  5
2F
330
2
100
AcDbSymbolTableRecord
100
AcDbLinetypeTableRecord
  2
CENTER
 70
0
  3
Center ____ _ ____ _ ____ _ ____ _ ____ _ ____
 72
65
 73
4
 40
5.08
 49
3.175
 74
0
 49
-0.635
 74
0
 49
0.635
 74
0
 49
-0.635
 74
0
  0
LTYPE
  5
30
330
2
100
AcDbSymbolTableRecord
100
AcDbLinetypeTableRecord
  2
CENTERX2
 70
0
  3
Center (2x) ________  __  ________  __  ________
 72
65
 73
4
 40
8.89
 49
6.35
 74
0
 49
-0.635
 74
0
 49
1.27
 74
0
 49
-0.635
 74
0
  0
LTYPE
  5
31
330
2
100
AcDbSymbolTableRecord
100
AcDbLinetypeTableRecord
  2
CENTER2
 70
0
  3
Center (.5x) ____ _ ____ _ ____ _ ____ _ ____
 72
65
 73
4
 40
2.54
 49
1.587
 74
0
 49
-0.318
 74
0
 49
0.318
 74
0
 49
-0.318
 74
0
  0
LTYPE
  5
32
330
2
100
AcDbSymbolTableRecord
100
AcDbLinetypeTableRecord
  2
DASHED
 70
0
  3
Dashed __ __ __ __ __ __ __ __ __ __ __ __ __ _
 72
65
 73
2
 40
1.524
 49
1.27
 74
0
 49
-0.254
 74
0
  0
LTYPE
  5
33
330
2
100
AcDbSymbolTableRecord
100
AcDbLinetypeTableRecord
  2
DASHEDX2
 70
0
  3
Dashed (2x) ____  ____  ____  ____  ____  ____
 72
65
 73
2
 40
3.048
 49
2.54
 74
0
 49
-0.508
 74
0
  0
LTYPE
  5
34
330
2
100
AcDbSymbolTableRecord
100
AcDbLinetypeTableRecord
  2
DASHED2
 70
0
  3
Dashed (.5x) _ _ _ _ _ _ _ _ _ _ _ _ _ _
 72
65
 73
2
 40
0.762
 49
0.635
 74
0
 49
-0.127
 74
0
  0
LTYPE
  5
35
330
2
100
AcDbSymbolTableRecord
100
AcDbLinetypeTableRecord
  2
PHANTOM
 70
0
  3
Phantom ______  __  __  ______  __  __  ______
 72
65
 73
6
 40
6.35
 49
3.175
 74
0
 49
-0.635
 74
0
 49
0.635
 74
0
 49
-0.635
 74
0
 49
0.635
 74
0
 49
-0.635
 74
0
  0
LTYPE
  5
36
330
2
100
AcDbSymbolTableRecord
100
AcDbLinetypeTableRecord
  2
PHANTOMX2
 70
0
  3
Phantom (2x)____________    ____    ____    ____________
 72
65
 73
6
 40
10.795
 49
6.35
 74
0
 49
-0.635
 74
0
 49
1.27
 74
0
 49
-0.635
 74
0
 49
1.27
 74
0
 49
-0.635
 74
0
  0
LTYPE
  5
37
330
2
100
AcDbSymbolTableRecord
100
AcDbLinetypeTableRecord
  2
PHANTOM2
 70
0
  3
Phantom (.5x) ___ _ _ ___ _ _ ___ _ _ ___ _ _ ___
 72
65
 73
6
 40
3.175
 49
1.587
 74
0
 49
-0.318
 74
0
 49
0.318
 74
0
 49
-0.318
 74
0
 49
0.318
 74
0
 49
-0.318
 74
0
  0
LTYPE
  5
38
330
2
100
AcDbSymbolTableRecord
100
AcDbLinetypeTableRecord
  2
DASHDOT
 70
0
  3
Dash dot __ . __ . __ . __ . __ . __ . __ . __
 72
65
 73
4
 40
3.556
 49
2.54
 74
0
 49
-0.508
 74
0
 49
0.0
 74
0
 49
-0.508
 74
0
  0
LTYPE
  5
39
330
2
100
AcDbSymbolTableRecord
100
AcDbLinetypeTableRecord
  2
DASHDOTX2
 70
0
  3
Dash dot (2x) ____  .  ____  .  ____  .  ____
 72
65
 73
4
 40
6.096
 49
5.08
 74
0
 49
-0.508
 74
0
 49
0.0
 74
0
 49
-0.508
 74
0
  0
LTYPE
  5
3A
330
2
100
AcDbSymbolTableRecord
100
AcDbLinetypeTableRecord
  2
DASHDOT2
 70
0
  3
Dash dot (.5x) _ . _ . _ . _ . _ . _ . _ . _
 72
65
 73
4
 40
1.778
 49
1.27
 74
0
 49
-0.254
 74
0
 49
0.0
 74
0
 49
-0.254
 74
0
  0
LTYPE
  5
3B
330
2
100
AcDbSymbolTableRecord
100
AcDbLinetypeTableRecord
  2
DOT
 70
0
  3
Dot .  .  .  .  .  .  .  .  .  .  .  .  .  .  .  .
 72
65
 73
2
 40
0.508
 49
0.0
 74
0
 49
-0.508
 74
0
  0
LTYPE
  5
3C
330
2
100
AcDbSymbolTableRecord
100
AcDbLinetypeTableRecord
  2
DOTX2
 70
0
  3
Dot (2x) .    .    .    .    .    .    .    . 
 72
65
 73
2
 40
1.016
 49
0.0
 74
0
 49
-1.016
 74
0
  0
LTYPE
  5
3D
330
2
100
AcDbSymbolTableRecord
100
AcDbLinetypeTableRecord
  2
DOT2
 70
0
  3
Dot (.5) . . . . . . . . . . . . . . . . . . . 
 72
65
 73
2
 40
0.254
 49
0.0
 74
0
 49
-0.254
 74
0
  0
LTYPE
  5
3E
330
2
100
AcDbSymbolTableRecord
100
AcDbLinetypeTableRecord
  2
DIVIDE
 70
0
  3
Divide __ . . __ . . __ . . __ . . __ . . __
 72
65
 73
6
 40
4.064
 49
2.54
 74
0
 49
-0.508
 74
0
 49
0.0
 74
0
 49
-0.508
 74
0
 49
0.0
 74
0
 49
-0.508
 74
0
  0
LTYPE
  5
3F
330
2
100
AcDbSymbolTableRecord
100
AcDbLinetypeTableRecord
  2
DIVIDEX2
 70
0
  3
Divide (2x) ____  . .  ____  . .  ____  . .  ____
 72
65
 73
6
 40
6.604
 49
5.08
 74
0
 49
-0.508
 74
0
 49
0.0
 74
0
 49
-0.508
 74
0
 49
0.0
 74
0
 49
-0.508
 74
0
  0
LTYPE
  5
40
330
2
100
AcDbSymbolTableRecord
100
AcDbLinetypeTableRecord
  2
DIVIDE2
 70
0
  3
Divide(.5x) _ . _ . _ . _ . _ . _ . _ . _
 72
65
 73
6
 40
2.032
 49
1.27
 74
0
 49
-0.254
 74
0
 49
0.0
 74
0
 49
-0.254
 74
0
 49
0.0
 74
0
 49
-0.254
 74
0
  0
ENDTAB
  0
TABLE
  2
LAYER
  5
1
330
0
100
AcDbSymbolTable
 70
18
  0
LAYER
  5
27
330
1
100
AcDbSymbolTableRecord
100
AcDbLayerTableRecord
  2
0
 70
0
 62
7
  6
Continuous
370
-3
390
13
347
21
  0
LAYER
  5
28
330
1
100
AcDbSymbolTableRecord
100
AcDbLayerTableRecord
  2
Defpoints
 70
0
 62
7
  6
Continuous
290
0
370
-3
390
13
347
21
  0
LAYER
  5
8B
330
1
100
AcDbSymbolTableRecord
100
AcDbLayerTableRecord
  2
TID-FRAME
 70
0
 62
7
  6
Continuous
370
-3
390
13
347
21
  0
LAYER
  5
8C
330
1
100
AcDbSymbolTableRecord
100
AcDbLayerTableRecord
  2
TID-ELC TEXT
 70
0
 62
15
  6
Continuous
370
-3
390
13
347
21
  0
LAYER
  5
8D
330
1
100
AcDbSymbolTableRecord
100
AcDbLayerTableRecord
  2
TID-E-TITLE
 70
0
 62
4
  6
Continuous
370
-3
390
13
347
21
  0
LAYER
  5
8E
330
1
100
AcDbSymbolTableRecord
100
AcDbLayerTableRecord
  2
TID-ELC DIMENTION
 70
0
 62
7
  6
Continuous
370
-3
390
13
347
21
  0
LAYER
  5
8F
330
1
100
AcDbSymbolTableRecord
100
AcDbLayerTableRecord
  2
ELC-GROUNDING
 70
0
 62
172
  6
Continuous
370
-3
390
13
347
21
  0
LAYER
  5
90
330
1
100
AcDbSymbolTableRecord
100
AcDbLayerTableRecord
  2
ELC-GROUNDING-70
 70
0
 62
6
  6
Continuous
370
-3
390
13
347
21
  0
LAYER
  5
91
330
1
100
AcDbSymbolTableRecord
100
AcDbLayerTableRecord
  2
TID-E-CONTROL BOX
 70
0
 62
170
  6
Continuous
370
-3
390
13
347
21
  0
LAYER
  5
92
330
1
100
AcDbSymbolTableRecord
100
AcDbLayerTableRecord
  2
TID-STRUCTURE
 70
0
 62
8
  6
Continuous
370
-3
390
13
347
21
  0
LAYER
  5
93
330
1
100
AcDbSymbolTableRecord
100
AcDbLayerTableRecord
  2
TID-CONCRETE
 70
0
 62
9
  6
Continuous
370
-3
390
13
347
21
  0
LAYER
  5
94
330
1
100
AcDbSymbolTableRecord
100
AcDbLayerTableRecord
  2
TID-HATCH
 70
0
 62
250
  6
Continuous
370
-3
390
13
347
21
  0
LAYER
  5
95
330
1
100
AcDbSymbolTableRecord
100
AcDbLayerTableRecord
  2
TID-WALL
 70
0
 62
15
  6
Continuous
370
-3
390
13
347
21
  0
LAYER
  5
96
330
1
100
AcDbSymbolTableRecord
100
AcDbLayerTableRecord
  2
TID-E-LADDER
 70
0
 62
170
  6
Continuous
370
-3
390
13
347
21
  0
LAYER
  5
97
330
1
100
AcDbSymbolTableRecord
100
AcDbLayerTableRecord
  2
TID-E-SUPPORT
 70
0
 62
30
  6
Continuous
370
-3
390
13
347
21
  0
LAYER
  5
98
330
1
100
AcDbSymbolTableRecord
100
AcDbLayerTableRecord
  2
TID-E-LIGHTING
 70
0
 62
150
  6
Continuous
370
-3
390
13
347
21
  0
LAYER
  5
99
330
1
100
AcDbSymbolTableRecord
100
AcDbLayerTableRecord
  2
TID-E-CONDUIT
 70
0
 62
3
  6
Continuous
370
-3
390
13
347
21
  0
LAYER
  5
9A
330
1
100
AcDbSymbolTableRecord
100
AcDbLayerTableRecord
  2
TID-HIDDEN
 70
0
 62
8
  6
DASHED
370
-3
390
13
347
21
  0
ENDTAB
  0
TABLE
  2
STYLE
  5
5
330
0
100
AcDbSymbolTable
 70
27
  0
STYLE
  5
29
330
5
100
AcDbSymbolTableRecord
100
AcDbTextStyleTableRecord
  2
Standard
 70
0
 40
0.0
 41
1.0
 50
0.0
 71
0
 42
2.5
  3
txt
  4

  0
STYLE
  5
41
330
5
100
AcDbSymbolTableRecord
100
AcDbTextStyleTableRecord
  2
OpenSans-Light
 70
0
 40
0.0
 41
1.0
 50
0.0
 71
0
 42
2.5
  3
OpenSans-Light.ttf
  4

  0
STYLE
  5
42
330
5
100
AcDbSymbolTableRecord
100
AcDbTextStyleTableRecord
  2
OpenSans-Light-Italic
 70
0
 40
0.0
 41
1.0
 50
0.0
 71
0
 42
2.5
  3
OpenSans-LightItalic.ttf
  4

  0
STYLE
  5
43
330
5
100
AcDbSymbolTableRecord
100
AcDbTextStyleTableRecord
  2
OpenSans
 70
0
 40
0.0
 41
1.0
 50
0.0
 71
0
 42
2.5
  3
OpenSans-Regular.ttf
  4

  0
STYLE
  5
44
330
5
100
AcDbSymbolTableRecord
100
AcDbTextStyleTableRecord
  2
OpenSans-Italic
 70
0
 40
0.0
 41
1.0
 50
0.0
 71
0
 42
2.5
  3
OpenSans-Italic.ttf
  4

  0
STYLE
  5
45
330
5
100
AcDbSymbolTableRecord
100
AcDbTextStyleTableRecord
  2
OpenSans-SemiBold
 70
0
 40
0.0
 41
1.0
 50
0.0
 71
0
 42
2.5
  3
OpenSans-SemiBold.ttf
  4

  0
STYLE
  5
46
330
5
100
AcDbSymbolTableRecord
100
AcDbTextStyleTableRecord
  2
OpenSans-SemiBoldItalic
 70
0
 40
0.0
 41
1.0
 50
0.0
 71
0
 42
2.5
  3
OpenSans-SemiBoldItalic.ttf
  4

  0
STYLE
  5
47
330
5
100
AcDbSymbolTableRecord
100
AcDbTextStyleTableRecord
  2
OpenSans-Bold
 70
0
 40
0.0
 41
1.0
 50
0.0
 71
0
 42
2.5
  3
OpenSans-Bold.ttf
  4

  0
STYLE
  5
48
330
5
100
AcDbSymbolTableRecord
100
AcDbTextStyleTableRecord
  2
OpenSans-BoldItalic
 70
0
 40
0.0
 41
1.0
 50
0.0
 71
0
 42
2.5
  3
OpenSans-BoldItalic.ttf
  4

  0
STYLE
  5
49
330
5
100
AcDbSymbolTableRecord
100
AcDbTextStyleTableRecord
  2
OpenSans-ExtraBold
 70
0
 40
0.0
 41
1.0
 50
0.0
 71
0
 42
2.5
  3
OpenSans-ExtraBold.ttf
  4

  0
STYLE
  5
4A
330
5
100
AcDbSymbolTableRecord
100
AcDbTextStyleTableRecord
  2
OpenSans-ExtraBoldItalic
 70
0
 40
0.0
 41
1.0
 50
0.0
 71
0
 42
2.5
  3
OpenSans-ExtraBoldItalic.ttf
  4

  0
STYLE
  5
4B
330
5
100
AcDbSymbolTableRecord
100
AcDbTextStyleTableRecord
  2
OpenSansCondensed-Bold
 70
0
 40
0.0
 41
1.0
 50
0.0
 71
0
 42
2.5
  3
OpenSansCondensed-Bold.ttf
  4

  0
STYLE
  5
4C
330
5
100
AcDbSymbolTableRecord
100
AcDbTextStyleTableRecord
  2
OpenSansCondensed-Light
 70
0
 40
0.0
 41
1.0
 50
0.0
 71
0
 42
2.5
  3
OpenSansCondensed-Light.ttf
  4

  0
STYLE
  5
4D
330
5
100
AcDbSymbolTableRecord
100
AcDbTextStyleTableRecord
  2
OpenSansCondensed-Italic
 70
0
 40
0.0
 41
1.0
 50
0.0
 71
0
 42
2.5
  3
OpenSansCondensed-LightItalic.ttf
  4

  0
STYLE
  5
4E
330
5
100
AcDbSymbolTableRecord
100
AcDbTextStyleTableRecord
  2
LiberationSans
 70
0
 40
0.0
 41
1.0
 50
0.0
 71
0
 42
2.5
  3
LiberationSans-Regular.ttf
  4

  0
STYLE
  5
4F
330
5
100
AcDbSymbolTableRecord
100
AcDbTextStyleTableRecord
  2
LiberationSans-Bold
 70
0
 40
0.0
 41
1.0
 50
0.0
 71
0
 42
2.5
  3
LiberationSans-Bold.ttf
  4

  0
STYLE
  5
50
330
5
100
AcDbSymbolTableRecord
100
AcDbTextStyleTableRecord
  2
LiberationSans-BoldItalic
 70
0
 40
0.0
 41
1.0
 50
0.0
 71
0
 42
2.5
  3
LiberationSans-BoldItalic.ttf
  4

  0
STYLE
  5
51
330
5
100
AcDbSymbolTableRecord
100
AcDbTextStyleTableRecord
  2
LiberationSans-Italic
 70
0
 40
0.0
 41
1.0
 50
0.0
 71
0
 42
2.5
  3
LiberationSans-Italic.ttf
  4

  0
STYLE
  5
52
330
5
100
AcDbSymbolTableRecord
100
AcDbTextStyleTableRecord
  2
LiberationSerif
 70
0
 40
0.0
 41
1.0
 50
0.0
 71
0
 42
2.5
  3
LiberationSerif-Regular.ttf
  4

  0
STYLE
  5
53
330
5
100
AcDbSymbolTableRecord
100
AcDbTextStyleTableRecord
  2
LiberationSerif-Bold
 70
0
 40
0.0
 41
1.0
 50
0.0
 71
0
 42
2.5
  3
LiberationSerif-Bold.ttf
  4

  0
STYLE
  5
54
330
5
100
AcDbSymbolTableRecord
100
AcDbTextStyleTableRecord
  2
LiberationSerif-BoldItalic
 70
0
 40
0.0
 41
1.0
 50
0.0
 71
0
 42
2.5
  3
LiberationSerif-BoldItalic.ttf
  4

  0
STYLE
  5
55
330
5
100
AcDbSymbolTableRecord
100
AcDbTextStyleTableRecord
  2
LiberationSerif-Italic
 70
0
 40
0.0
 41
1.0
 50
0.0
 71
0
 42
2.5
  3
LiberationSerif-Italic.ttf
  4

  0
STYLE
  5
56
330
5
100
AcDbSymbolTableRecord
100
AcDbTextStyleTableRecord
  2
LiberationMono
 70
0
 40
0.0
 41
1.0
 50
0.0
 71
0
 42
2.5
  3
LiberationMono-Regular.ttf
  4

  0
STYLE
  5
57
330
5
100
AcDbSymbolTableRecord
100
AcDbTextStyleTableRecord
  2
LiberationMono-Bold
 70
0
 40
0.0
 41
1.0
 50
0.0
 71
0
 42
2.5
  3
LiberationMono-Bold.ttf
  4

  0
STYLE
  5
58
330
5
100
AcDbSymbolTableRecord
100
AcDbTextStyleTableRecord
  2
LiberationMono-BoldItalic
 70
0
 40
0.0
 41
1.0
 50
0.0
 71
0
 42
2.5
  3
LiberationMono-BoldItalic.ttf
  4

  0
STYLE
  5
59
330
5
100
AcDbSymbolTableRecord
100
AcDbTextStyleTableRecord
  2
LiberationMono-Italic
 70
0
 40
0.0
 41
1.0
 50
0.0
 71
0
 42
2.5
  3
LiberationMono-Italic.ttf
  4

  0
STYLE
  5
8A
330
5
100
AcDbSymbolTableRecord
100
AcDbTextStyleTableRecord
  2
TX-AN
 70
0
 40
0.0
 41
1.0
 50
0.0
 71
0
 42
2.5
  3
ARIALN.TTF
  4

  0
ENDTAB
  0
TABLE
  2
VIEW
  5
7
330
0
100
AcDbSymbolTable
 70
0
  0
ENDTAB
  0
TABLE
  2
UCS
  5
6
330
0
100
AcDbSymbolTable
 70
0
  0
ENDTAB
  0
TABLE
  2
APPID
  5
3
330
0
100
AcDbSymbolTable
 70
3
  0
APPID
  5
2A
330
3
100
AcDbSymbolTableRecord
100
AcDbRegAppTableRecord
  2
ACAD
 70
0
  0
APPID
  5
1E1
330
3
100
AcDbSymbolTableRecord
100
AcDbRegAppTableRecord
  2
HATCHBACKGROUNDCOLOR
 70
0
  0
APPID
  5
1E2
330
3
100
AcDbSymbolTableRecord
100
AcDbRegAppTableRecord
  2
EZDXF
 70
0
  0
ENDTAB
  0
TABLE
  2
DIMSTYLE
  5
4
330
0
100
AcDbSymbolTable
 70
12
100
AcDbDimStyleTable
  0
DIMSTYLE
105
2B
330
4
100
AcDbSymbolTableRecord
100
AcDbDimStyleTableRecord
  2
Standard
 70
0
 40
1.0
 41
2.5
 42
0.625
 43
3.75
 44
1.25
 45
0.0
 46
0.0
 47
0.0
 48
0.0
 49
2.5
140
2.5
141
2.5
142
0.0
143
0.03937007874
144
1.0
145
0.0
146
1.0
147
0.625
148
0.0
 69
0
 70
0
 71
0
 72
0
 73
0
 74
0
 75
0
 76
0
 77
1
 78
8
 79
3
170
0
171
3
172
1
173
0
174
0
175
0
176
0
177
0
178
0
179
2
271
2
272
2
273
2
274
3
275
0
276
0
277
2
278
44
279
0
280
0
281
0
282
0
283
0
284
8
285
0
286
0
288
0
289
3
290
0
371
-2
372
-2
  0
DIMSTYLE
105
73
330
4
100
AcDbSymbolTableRecord
100
AcDbDimStyleTableRecord
  2
EZDXF
 70
0
 40
1.0
 41
0.175
 42
0.125
 43
3.75
 44
0.375
 45
0.0
 46
0.0
 47
0.0
 48
0.0
 49
2.5
140
0.25
141
2.5
142
0.0
143
0.03937007874
144
100.0
145
0.0
146
0.5
147
0.1
148
0.0
 69
0
 70
0
 71
0
 72
0
 73
0
 74
0
 75
0
 76
0
 77
1
 78
12
 79
3
170
0
171
3
172
1
173
0
174
0
175
0
176
0
177
0
178
0
179
2
271
2
272
2
273
2
274
3
275
0
276
0
277
2
278
46
279
2
280
0
281
0
282
0
283
0
284
8
285
0
286
0
288
1
289
3
290
0
340
4C
342
74
371
-2
372
-2
  0
DIMSTYLE
105
7C
330
4
100
AcDbSymbolTableRecord
100
AcDbDimStyleTableRecord
  2
EZ_M_100_H25_CM
 70
0
 40
1.0
 41
0.25
 42
0.125
 43
3.75
 44
0.375
 45
0.0
 46
0.0
 47
0.0
 48
0.0
 49
2.5
140
0.25
141
2.5
142
0.125
143
0.03937007874
144
100.0
145
0.0
146
0.5
147
0.1
148
0.0
 69
0
 70
0
 71
0
 72
0
 73
0
 74
0
 75
0
 76
0
 77
1
 78
12
 79
3
170
0
171
3
172
1
173
0
174
0
175
0
176
0
177
0
178
0
179
2
271
2
272
2
273
2
274
3
275
0
276
0
277
2
278
46
279
2
280
0
281
0
282
0
283
0
284
8
285
0
286
0
288
1
289
3
290
0
340
4C
371
-2
372
-2
  0
DIMSTYLE
105
7D
330
4
100
AcDbSymbolTableRecord
100
AcDbDimStyleTableRecord
  2
EZ_M_50_H25_CM
 70
0
 40
1.0
 41
0.125
 42
0.0625
 43
3.75
 44
0.1875
 45
0.0
 46
0.0
 47
0.0
 48
0.0
 49
2.5
140
0.125
141
2.5
142
0.0625
143
0.03937007874
144
100.0
145
0.0
146
0.5
147
0.05
148
0.0
 69
0
 70
0
 71
0
 72
0
 73
0
 74
0
 75
0
 76
0
 77
1
 78
12
 79
3
170
0
171
3
172
1
173
0
174
0
175
0
176
0
177
0
178
0
179
2
271
2
272
2
273
2
274
3
275
0
276
0
277
2
278
46
279
2
280
0
281
0
282
0
283
0
284
8
285
0
286
0
288
1
289
3
290
0
340
4C
371
-2
372
-2
  0
DIMSTYLE
105
7E
330
4
100
AcDbSymbolTableRecord
100
AcDbDimStyleTableRecord
  2
EZ_M_25_H25_CM
 70
0
 40
1.0
 41
0.0625
 42
0.03125
 43
3.75
 44
0.09375
 45
0.0
 46
0.0
 47
0.0
 48
0.0
 49
2.5
140
0.0625
141
2.5
142
0.03125
143
0.03937007874
144
100.0
145
0.0
146
0.5
147
0.025
148
0.0
 69
0
 70
0
 71
0
 72
0
 73
0
 74
0
 75
0
 76
0
 77
1
 78
12
 79
3
170
0
171
3
172
1
173
0
174
0
175
0
176
0
177
0
178
0
179
2
271
2
272
2
273
2
274
3
275
0
276
0
277
2
278
46
279
2
280
0
281
0
282
0
283
0
284
8
285
0
286
0
288
1
289
3
290
0
340
4C
371
-2
372
-2
  0
DIMSTYLE
105
7F
330
4
100
AcDbSymbolTableRecord
100
AcDbDimStyleTableRecord
  2
EZ_M_20_H25_CM
 70
0
 40
1.0
 41
0.05
 42
0.025
 43
3.75
 44
0.07500000000000001
 45
0.0
 46
0.0
 47
0.0
 48
0.0
 49
2.5
140
0.05
141
2.5
142
0.025
143
0.03937007874
144
100.0
145
0.0
146
0.5
147
0.020000000000000004
148
0.0
 69
0
 70
0
 71
0
 72
0
 73
0
 74
0
 75
0
 76
0
 77
1
 78
12
 79
3
170
0
171
3
172
1
173
0
174
0
175
0
176
0
177
0
178
0
179
2
271
2
272
2
273
2
274
3
275
0
276
0
277
2
278
46
279
2
280
0
281
0
282
0
283
0
284
8
285
0
286
0
288
1
289
3
290
0
340
4C
371
-2
372
-2
  0
DIMSTYLE
105
80
330
4
100
AcDbSymbolTableRecord
100
AcDbDimStyleTableRecord
  2
EZ_M_10_H25_CM
 70
0
 40
1.0
 41
0.025
 42
0.0125
 43
3.75
 44
0.037500000000000006
 45
0.0
 46
0.0
 47
0.0
 48
0.0
 49
2.5
140
0.025
141
2.5
142
0.0125
143
0.03937007874
144
100.0
145
0.0
146
0.5
147
0.010000000000000002
148
0.0
 69
0
 70
0
 71
0
 72
0
 73
0
 74
0
 75
0
 76
0
 77
1
 78
12
 79
3
170
0
171
3
172
1
173
0
174
0
175
0
176
0
177
0
178
0
179
2
271
2
272
2
273
2
274
3
275
0
276
0
277
2
278
46
279
2
280
0
281
0
282
0
283
0
284
8
285
0
286
0
288
1
289
3
290
0
340
4C
371
-2
372
-2
  0
DIMSTYLE
105
81
330
4
100
AcDbSymbolTableRecord
100
AcDbDimStyleTableRecord
  2
EZ_M_5_H25_CM
 70
0
 40
1.0
 41
0.0125
 42
0.00625
 43
3.75
 44
0.018750000000000003
 45
0.0
 46
0.0
 47
0.0
 48
0.0
 49
2.5
140
0.0125
141
2.5
142
0.00625
143
0.03937007874
144
100.0
145
0.0
146
0.5
147
0.005000000000000001
148
0.0
 69
0
 70
0
 71
0
 72
0
 73
0
 74
0
 75
0
 76
0
 77
1
 78
12
 79
3
170
0
171
3
172
1
173
0
174
0
175
0
176
0
177
0
178
0
179
2
271
2
272
2
273
2
274
3
275
0
276
0
277
2
278
46
279
2
280
0
281
0
282
0
283
0
284
8
285
0
286
0
288
1
289
3
290
0
340
4C
371
-2
372
-2
  0
DIMSTYLE
105
82
330
4
100
AcDbSymbolTableRecord
100
AcDbDimStyleTableRecord
  2
EZ_M_1_H25_CM
 70
0
 40
1.0
 41
0.0025
 42
0.00125
 43
3.75
 44
0.00375
 45
0.0
 46
0.0
 47
0.0
 48
0.0
 49
2.5
140
0.0025
141
2.5
142
0.00125
143
0.03937007874
144
100.0
145
0.0
146
0.5
147
0.001
148
0.0
 69
0
 70
0
 71
0
 72
0
 73
0
 74
0
 75
0
 76
0
 77
1
 78
12
 79
3
170
0
171
3
172
1
173
0
174
0
175
0
176
0
177
0
178
0
179
2
271
2
272
2
273
2
274
3
275
0
276
0
277
2
278
46
279
2
280
0
281
0
282
0
283
0
284
8
285
0
286
0
288
1
289
3
290
0
340
4C
371
-2
372
-2
  0
DIMSTYLE
105
83
330
4
100
AcDbSymbolTableRecord
100
AcDbDimStyleTableRecord
  2
EZ_RADIUS
 70
0
 40
1.0
 41
0.25
 42
0.125
 43
3.75
 44
0.375
 45
0.0
 46
0.0
 47
0.0
 48
0.0
 49
2.5
140
0.25
141
0.0
142
0.0
143
0.03937007874
144
100.0
145
0.0
146
0.5
147
0.1
148
0.0
 69
0
 70
0
 71
0
 72
0
 73
0
 74
0
 75
0
 76
0
 77
1
 78
12
 79
3
170
0
171
3
172
0
173
0
174
0
175
0
176
0
177
0
178
0
179
2
271
2
272
2
273
2
274
3
275
0
276
0
277
2
278
46
279
1
280
0
281
0
282
0
283
0
284
8
285
0
286
0
288
1
289
3
290
0
340
4C
342
84
371
-2
372
-2
  0
DIMSTYLE
105
88
330
4
100
AcDbSymbolTableRecord
100
AcDbDimStyleTableRecord
  2
EZ_RADIUS_INSIDE
 70
0
 40
1.0
 41
0.25
 42
0.125
 43
3.75
 44
0.375
 45
0.0
 46
0.0
 47
0.0
 48
0.0
 49
2.5
140
0.25
141
0.0
142
0.0
143
0.03937007874
144
100.0
145
0.0
146
0.5
147
0.1
148
0.0
 69
0
 70
0
 71
0
 72
0
 73
0
 74
0
 75
0
 76
0
 77
0
 78
12
 79
3
170
0
171
3
172
0
173
0
174
1
175
0
176
0
177
0
178
0
179
2
271
2
272
2
273
2
274
3
275
0
276
0
277
2
278
46
279
0
280
0
281
0
282
0
283
0
284
8
285
0
286
0
288
1
289
0
290
0
340
4C
342
84
371
-2
372
-2
  0
DIMSTYLE
105
89
330
4
100
AcDbSymbolTableRecord
100
AcDbDimStyleTableRecord
  2
EZ_CURVED
 70
0
 40
1.0
 41
0.25
 42
0.125
 43
3.75
 44
0.375
 45
0.0
 46
0.0
 47
0.0
 48
0.0
 49
2.5
140
0.25
141
2.5
142
0.0
143
0.03937007874
144
100.0
145
0.0
146
0.5
147
0.1
148
0.0
 69
0
 70
0
 71
0
 72
0
 73
0
 74
0
 75
0
 76
0
 77
1
 78
12
 79
2
 90
2
170
0
171
3
172
1
173
0
174
0
175
0
176
0
177
0
178
0
179
2
271
2
272
2
273
2
274
3
275
0
276
0
277
2
278
46
279
2
280
0
281
0
282
0
283
0
284
8
285
0
286
0
288
1
289
3
290
0
340
4C
371
-2
372
-2
  0
ENDTAB
  0
TABLE
  2
BLOCK_RECORD
  5
9
330
0
100
AcDbSymbolTable
 70
5
  0
BLOCK_RECORD
  5
17
330
9
100
AcDbSymbolTableRecord
100
AcDbBlockTableRecord
  2
*Model_Space
340
1A
 70
0
280
1
281
0
  0
BLOCK_RECORD
  5
1B
330
9
100
AcDbSymbolTableRecord
100
AcDbBlockTableRecord
  2
*Paper_Space
340
1E
 70
0
280
1
281
0
  0
BLOCK_RECORD
  5
74
330
9
100
AcDbSymbolTableRecord
100
AcDbBlockTableRecord
  2
_ARCHTICK
340
0
 70
0
280
1
281
0
  0
BLOCK_RECORD
  5
78
330
9
100
AcDbSymbolTableRecord
100
AcDbBlockTableRecord
  2
_CLOSEDFILLED
340
0
 70
0
280
1
281
0
  0
BLOCK_RECORD
  5
84
330
9
100
AcDbSymbolTableRecord
100
AcDbBlockTableRecord
  2
_CLOSEDBLANK
340
0
 70
0
280
1
281
0
  0
ENDTAB
  0
ENDSEC
  0
SECTION
  2
BLOCKS
  0
BLOCK
  5
18
330
17
100
AcDbEntity
  8
0
100
AcDbBlockBegin
  2
*Model_Space
 70
0
 10
0.0
 20
0.0
 30
0.0
  3
*Model_Space
  1

  0
ENDBLK
  5
19
330
17
100
AcDbEntity
  8
0
100
AcDbBlockEnd
  0
BLOCK
  5
1C
330
1B
100
AcDbEntity
  8
0
100
AcDbBlockBegin
  2
*Paper_Space
 70
0
 10
0.0
 20
0.0
 30
0.0
  3
*Paper_Space
  1

  0
ENDBLK
  5
1D
330
1B
100
AcDbEntity
  8
0
100
AcDbBlockEnd
  0
BLOCK
  5
75
330
74
100
AcDbEntity
  8
0
100
AcDbBlockBegin
  2
_ARCHTICK
 70
0
 10
0.0
 20
0.0
 30
0.0
  3
_ARCHTICK
  1

  0
LWPOLYLINE
  5
77
330
74
100
AcDbEntity
  8
0
  6
BYBLOCK
 62
0
100
AcDbPolyline
 90
2
 70
0
 43
0.15
 10
-0.5
 20
-0.5
 10
0.5
 20
0.5
  0
ENDBLK
  5
76
330
74
100
AcDbEntity
  8
0
100
AcDbBlockEnd
  0
BLOCK
  5
79
330
78
100
AcDbEntity
  8
0
100
AcDbBlockBegin
  2
_CLOSEDFILLED
 70
0
 10
0.0
 20
0.0
 30
0.0
  3
_CLOSEDFILLED
  1

  0
SOLID
  5
7B
330
78
100
AcDbEntity
  8
0
  6
BYBLOCK
 62
0
100
AcDbTrace
 10
-1.0
 20
0.16439898372402537
 30
0.0
 11
0.0
 21
0.0
 31
0.0
 12
-1.0
 22
-0.16439898372402537
 32
0.0
 13
-1.0
 23
-0.16439898372402537
 33
0.0
  0
ENDBLK
  5
7A
330
78
100
AcDbEntity
  8
0
100
AcDbBlockEnd
  0
BLOCK
  5
85
330
84
100
AcDbEntity
  8
0
100
AcDbBlockBegin
  2
_CLOSEDBLANK
 70
0
 10
0.0
 20
0.0
 30
0.0
  3
_CLOSEDBLANK
  1

  0
LWPOLYLINE
  5
87
330
84
100
AcDbEntity
  8
0
  6
BYBLOCK
 62
0
100
AcDbPolyline
 90
3
 70
1
 10
-1.0
 20
0.16439898372402537
 10
0.0
 20
0.0
 10
-1.0
 20
-0.16439898372402537
  0
ENDBLK
  5
86
330
84
100
AcDbEntity
  8
0
100
AcDbBlockEnd
  0
ENDSEC
  0
SECTION
  2
ENTITIES
  0
LWPOLYLINE
  5
9B
330
17
100
AcDbEntity
  8
TID-FRAME
100
AcDbPolyline
 90
4
 70
1
 10
0.0
 20
0.0
 10
27000.0
 20
0.0
 10
27000.0
 20
20700.0
 10
0.0
 20
20700.0
  0
LINE
  5
9C
330
17
100
AcDbEntity
  8
TID-FRAME
100
AcDbLine
 10
0.0
 20
3900.0
 30
0.0
 11
27000.0
 21
3900.0
 31
0.0
  0
LWPOLYLINE
  5
9D
330
17
100
AcDbEntity
  8
TID-FRAME
100
AcDbPolyline
 90
4
 70
1
 10
0.0
 20
25.0
 10
27000.0
 20
25.0
 10
27000.0
 20
3900.0
 10
0.0
 20
3900.0
  0
LINE
  5
9E
330
17
100
AcDbEntity
  8
TID-FRAME
100
AcDbLine
 10
900.0
 20
25.0
 30
0.0
 11
900.0
 21
3900.0
 31
0.0
  0
LINE
  5
9F
330
17
100
AcDbEntity
  8
TID-FRAME
100
AcDbLine
 10
2900.0
 20
25.0
 30
0.0
 11
2900.0
 21
3900.0
 31
0.0
  0
LINE
  5
A0
330
17
100
AcDbEntity
  8
TID-FRAME
100
AcDbLine
 10
4400.0
 20
25.0
 30
0.0
 11
4400.0
 21
3900.0
 31
0.0
  0
LINE
  5
A1
330
17
100
AcDbEntity
  8
TID-FRAME
100
AcDbLine
 10
0.0
 20
3025.0
 30
0.0
 11
27000.0
 21
3025.0
 31
0.0
  0
LINE
  5
A2
330
17
100
AcDbEntity
  8
TID-FRAME
100
AcDbLine
 10
0.0
 20
2525.0
 30
0.0
 11
27000.0
 21
2525.0
 31
0.0
  0
LINE
  5
A3
330
17
100
AcDbEntity
  8
TID-FRAME
100
AcDbLine
 10
0.0
 20
2025.0
 30
0.0
 11
27000.0
 21
2025.0
 31
0.0
  0
LINE
  5
A4
330
17
100
AcDbEntity
  8
TID-FRAME
100
AcDbLine
 10
0.0
 20
1525.0
 30
0.0
 11
27000.0
 21
1525.0
 31
0.0
  0
LINE
  5
A5
330
17
100
AcDbEntity
  8
TID-FRAME
100
AcDbLine
 10
0.0
 20
1025.0
 30
0.0
 11
27000.0
 21
1025.0
 31
0.0
  0
LINE
  5
A6
330
17
100
AcDbEntity
  8
TID-FRAME
100
AcDbLine
 10
0.0
 20
525.0
 30
0.0
 11
27000.0
 21
525.0
 31
0.0
  0
TEXT
  5
A7
330
17
100
AcDbEntity
  8
TID-ELC TEXT
100
AcDbText
 10
450.0
 20
3462.5
 30
0.0
 40
300.0
  1
ITEM
  7
TX-AN
 41
0.9
 72
1
 11
450.0
 21
3462.5
 31
0.0
100
AcDbText
 73
2
  0
TEXT
  5
A8
330
17
100
AcDbEntity
  8
TID-ELC TEXT
100
AcDbText
 10
1900.0
 20
3462.5
 30
0.0
 40
300.0
  1
QTY
  7
TX-AN
 41
0.9
 72
1
 11
1900.0
 21
3462.5
 31
0.0
100
AcDbText
 73
2
  0
TEXT
  5
A9
330
17
100
AcDbEntity
  8
TID-ELC TEXT
100
AcDbText
 10
3650.0
 20
3462.5
 30
0.0
 40
300.0
  1
UNIT
  7
TX-AN
 41
0.9
 72
1
 11
3650.0
 21
3462.5
 31
0.0
100
AcDbText
 73
2
  0
TEXT
  5
AA
330
17
100
AcDbEntity
  8
TID-ELC TEXT
100
AcDbText
 10
15700.0
 20
3462.5
 30
0.0
 40
300.0
  1
DESCRIPTION
  7
TX-AN
 41
0.9
 72
1
 11
15700.0
 21
3462.5
 31
0.0
100
AcDbText
 73
2
  0
TEXT
  5
AB
330
17
100
AcDbEntity
  8
TID-ELC TEXT
100
AcDbText
 10
450.0
 20
2775.0
 30
0.0
 40
250.0
  1
1
  7
TX-AN
 41
0.9
 72
1
 11
450.0
 21
2775.0
 31
0.0
100
AcDbText
 73
2
  0
TEXT
  5
AC
330
17
100
AcDbEntity
  8
TID-ELC TEXT
100
AcDbText
 10
1900.0
 20
2775.0
 30
0.0
 40
250.0
  1
1
  7
TX-AN
 41
0.9
 72
1
 11
1900.0
 21
2775.0
 31
0.0
100
AcDbText
 73
2
  0
TEXT
  5
AD
330
17
100
AcDbEntity
  8
TID-ELC TEXT
100
AcDbText
 10
3650.0
 20
2775.0
 30
0.0
 40
250.0
  1
EA
  7
TX-AN
 41
0.9
 72
1
 11
3650.0
 21
2775.0
 31
0.0
100
AcDbText
 73
2
  0
TEXT
  5
AE
330
17
100
AcDbEntity
  8
TID-ELC TEXT
100
AcDbText
 10
4600.0
 20
2775.0
 30
0.0
 40
250.0
  1
COMPRESSION LUG TYPE 35mm², c/w BOLT, NUT, FLAT & LOCK WASHER (SS M10)
  7
TX-AN
 41
0.9
 11
4600.0
 21
2775.0
 31
0.0
100
AcDbText
 73
2
  0
TEXT
  5
AF
330
17
100
AcDbEntity
  8
TID-ELC TEXT
100
AcDbText
 10
450.0
 20
2275.0
 30
0.0
 40
250.0
  1
2
  7
TX-AN
 41
0.9
 72
1
 11
450.0
 21
2275.0
 31
0.0
100
AcDbText
 73
2
  0
TEXT
  5
B0
330
17
100
AcDbEntity
  8
TID-ELC TEXT
100
AcDbText
 10
1900.0
 20
2275.0
 30
0.0
 40
250.0
  1
AS REQ'D
  7
TX-AN
 41
0.9
 72
1
 11
1900.0
 21
2275.0
 31
0.0
100
AcDbText
 73
2
  0
TEXT
  5
B1
330
17
100
AcDbEntity
  8
TID-ELC TEXT
100
AcDbText
 10
3650.0
 20
2275.0
 30
0.0
 40
250.0
  1
M
  7
TX-AN
 41
0.9
 72
1
 11
3650.0
 21
2275.0
 31
0.0
100
AcDbText
 73
2
  0
TEXT
  5
B2
330
17
100
AcDbEntity
  8
TID-ELC TEXT
100
AcDbText
 10
4600.0
 20
2275.0
 30
0.0
 40
250.0
  1
GROUNDING CABLE / BONDING BC 35mm²
  7
TX-AN
 41
0.9
 11
4600.0
 21
2275.0
 31
0.0
100
AcDbText
 73
2
  0
TEXT
  5
B3
330
17
100
AcDbEntity
  8
TID-ELC TEXT
100
AcDbText
 10
450.0
 20
1775.0
 30
0.0
 40
250.0
  1
3
  7
TX-AN
 41
0.9
 72
1
 11
450.0
 21
1775.0
 31
0.0
100
AcDbText
 73
2
  0
TEXT
  5
B4
330
17
100
AcDbEntity
  8
TID-ELC TEXT
100
AcDbText
 10
1900.0
 20
1775.0
 30
0.0
 40
250.0
  1
1
  7
TX-AN
 41
0.9
 72
1
 11
1900.0
 21
1775.0
 31
0.0
100
AcDbText
 73
2
  0
TEXT
  5
B5
330
17
100
AcDbEntity
  8
TID-ELC TEXT
100
AcDbText
 10
3650.0
 20
1775.0
 30
0.0
 40
250.0
  1
EA
  7
TX-AN
 41
0.9
 72
1
 11
3650.0
 21
1775.0
 31
0.0
100
AcDbText
 73
2
  0
TEXT
  5
B6
330
17
100
AcDbEntity
  8
TID-ELC TEXT
100
AcDbText
 10
4600.0
 20
1775.0
 30
0.0
 40
250.0
  1
EARTHING BOX c/w COPPER BUSBAR 300x50x6mm & INSULATOR
  7
TX-AN
 41
0.9
 11
4600.0
 21
1775.0
 31
0.0
100
AcDbText
 73
2
  0
TEXT
  5
B7
330
17
100
AcDbEntity
  8
TID-ELC TEXT
100
AcDbText
 10
450.0
 20
1275.0
 30
0.0
 40
250.0
  1
4
  7
TX-AN
 41
0.9
 72
1
 11
450.0
 21
1275.0
 31
0.0
100
AcDbText
 73
2
  0
TEXT
  5
B8
330
17
100
AcDbEntity
  8
TID-ELC TEXT
100
AcDbText
 10
1900.0
 20
1275.0
 30
0.0
 40
250.0
  1
1
  7
TX-AN
 41
0.9
 72
1
 11
1900.0
 21
1275.0
 31
0.0
100
AcDbText
 73
2
  0
TEXT
  5
B9
330
17
100
AcDbEntity
  8
TID-ELC TEXT
100
AcDbText
 10
3650.0
 20
1275.0
 30
0.0
 40
250.0
  1
EA
  7
TX-AN
 41
0.9
 72
1
 11
3650.0
 21
1275.0
 31
0.0
100
AcDbText
 73
2
  0
TEXT
  5
BA
330
17
100
AcDbEntity
  8
TID-ELC TEXT
100
AcDbText
 10
4600.0
 20
1275.0
 30
0.0
 40
250.0
  1
GROUNDING BOSS / LUG PLATE 60x100x10mm WELDED TO COLUMN FLANGE
  7
TX-AN
 41
0.9
 11
4600.0
 21
1275.0
 31
0.0
100
AcDbText
 73
2
  0
TEXT
  5
BB
330
17
100
AcDbEntity
  8
TID-ELC TEXT
100
AcDbText
 10
450.0
 20
775.0
 30
0.0
 40
250.0
  1
5
  7
TX-AN
 41
0.9
 72
1
 11
450.0
 21
775.0
 31
0.0
100
AcDbText
 73
2
  0
TEXT
  5
BC
330
17
100
AcDbEntity
  8
TID-ELC TEXT
100
AcDbText
 10
1900.0
 20
775.0
 30
0.0
 40
250.0
  1
AS REQ'D
  7
TX-AN
 41
0.9
 72
1
 11
1900.0
 21
775.0
 31
0.0
100
AcDbText
 73
2
  0
TEXT
  5
BD
330
17
100
AcDbEntity
  8
TID-ELC TEXT
100
AcDbText
 10
3650.0
 20
775.0
 30
0.0
 40
250.0
  1
EA
  7
TX-AN
 41
0.9
 72
1
 11
3650.0
 21
775.0
 31
0.0
100
AcDbText
 73
2
  0
TEXT
  5
BE
330
17
100
AcDbEntity
  8
TID-ELC TEXT
100
AcDbText
 10
4600.0
 20
775.0
 30
0.0
 40
250.0
  1
CABLE CLEAT / SADDLE c/w SCREW + PLUG @ 500mm
  7
TX-AN
 41
0.9
 11
4600.0
 21
775.0
 31
0.0
100
AcDbText
 73
2
  0
TEXT
  5
BF
330
17
100
AcDbEntity
  8
TID-ELC TEXT
100
AcDbText
 10
450.0
 20
275.0
 30
0.0
 40
250.0
  1
6
  7
TX-AN
 41
0.9
 72
1
 11
450.0
 21
275.0
 31
0.0
100
AcDbText
 73
2
  0
TEXT
  5
C0
330
17
100
AcDbEntity
  8
TID-ELC TEXT
100
AcDbText
 10
1900.0
 20
275.0
 30
0.0
 40
250.0
  1
AS REQ'D
  7
TX-AN
 41
0.9
 72
1
 11
1900.0
 21
275.0
 31
0.0
100
AcDbText
 73
2
  0
TEXT
  5
C1
330
17
100
AcDbEntity
  8
TID-ELC TEXT
100
AcDbText
 10
3650.0
 20
275.0
 30
0.0
 40
250.0
  1
M
  7
TX-AN
 41
0.9
 72
1
 11
3650.0
 21
275.0
 31
0.0
100
AcDbText
 73
2
  0
TEXT
  5
C2
330
17
100
AcDbEntity
  8
TID-ELC TEXT
100
AcDbText
 10
4600.0
 20
275.0
 30
0.0
 40
250.0
  1
GROUNDING CABLE BC 70mm² TO MAIN GROUNDING GRID c/w PVC SLEEVE
  7
TX-AN
 41
0.9
 11
4600.0
 21
275.0
 31
0.0
100
AcDbText
 73
2
  0
HATCH
  5
C3
330
17
100
AcDbEntity
  8
TID-HATCH
 62
7
420
16119285
100
AcDbHatch
 10
0.0
 20
0.0
 30
0.0
210
0.0
220
0.0
230
1.0
  2
SOLID
 70
1
 71
0
 91
1
 92
3
 72
0
 73
1
 93
4
 10
6362.693304105357
 20
4700.000000000001
 10
15196.152422706633
 20
9800.0
 10
10259.807621135331
 20
12650.0
 10
1426.348502534056
 20
7550.0
 97
0
 75
1
 76
1
 98
0
  0
LWPOLYLINE
  5
C4
330
17
100
AcDbEntity
  8
TID-CONCRETE
100
AcDbPolyline
 90
4
 70
1
 10
6362.693304105357
 20
4700.000000000001
 10
15196.152422706633
 20
9800.0
 10
10259.807621135331
 20
12650.0
 10
1426.348502534056
 20
7550.0
  0
HATCH
  5
C5
330
17
100
AcDbEntity
  8
TID-HATCH
 62
7
420
16448250
100
AcDbHatch
 10
0.0
 20
0.0
 30
0.0
210
0.0
220
0.0
230
1.0
  2
SOLID
 70
1
 71
0
 91
1
 92
3
 72
0
 73
1
 93
4
 10
1426.348502534056
 20
7550.0
 10
10259.807621135331
 20
12650.0
 10
10259.807621135331
 20
19850.0
 10
1426.348502534056
 20
14750.0
 97
0
 75
1
 76
1
 98
0
  0
HATCH
  5
C6
330
17
100
AcDbEntity
  8
TID-HATCH
 62
7
100
AcDbHatch
 10
0.0
 20
0.0
 30
0.0
210
0.0
220
0.0
230
1.0
  2
BRICK
 70
0
 71
0
 91
1
 92
3
 72
0
 73
1
 93
4
 10
1426.348502534056
 20
7550.0
 10
10259.807621135331
 20
12650.0
 10
10259.807621135331
 20
19850.0
 10
1426.348502534056
 20
14750.0
 97
0
 75
1
 76
1
 52
0.0
 41
40.0
 77
0
 78
3
 53
0.0
 43
0.0
 44
0.0
 45
0.0
 46
254.0
 79
0
 53
90.0
 43
0.0
 44
0.0
 45
-508.0
 46
0.0
 79
2
 49
254.0
 49
-254.0
 53
90.0
 43
254.0
 44
0.0
 45
-508.0
 46
0.0
 79
2
 49
-254.0
 49
254.0
 98
0
  0
LWPOLYLINE
  5
C7
330
17
100
AcDbEntity
  8
TID-WALL
100
AcDbPolyline
 90
4
 70
1
 10
1426.348502534056
 20
7550.0
 10
10259.807621135331
 20
12650.0
 10
10259.807621135331
 20
19850.0
 10
1426.348502534056
 20
14750.0
  0
LWPOLYLINE
  5
C8
330
17
100
AcDbEntity
  8
TID-WALL
100
AcDbPolyline
 90
4
 70
0
 10
1426.348502534056
 20
7550.0
 10
1166.540881398725
 20
7700.0
 10
1166.540881398725
 20
14900.0
 10
1426.348502534056
 20
14750.0
  0
HATCH
  5
C9
330
17
100
AcDbEntity
  8
TID-HATCH
 62
7
420
15527148
100
AcDbHatch
 10
0.0
 20
0.0
 30
0.0
210
0.0
220
0.0
230
1.0
  2
SOLID
 70
1
 71
0
 91
1
 92
3
 72
0
 73
1
 93
4
 10
10000.0
 20
9350.0
 10
11818.653347947322
 20
10400.0
 10
10000.0
 20
11450.0
 10
8181.346652052678
 20
10400.0
 97
0
 75
1
 76
1
 98
0
  0
LWPOLYLINE
  5
CA
330
17
100
AcDbEntity
  8
TID-CONCRETE
100
AcDbPolyline
 90
4
 70
1
 10
10000.0
 20
9350.0
 10
11818.653347947322
 20
10400.0
 10
10000.0
 20
11450.0
 10
8181.346652052678
 20
10400.0
  0
HATCH
  5
CB
330
17
100
AcDbEntity
  8
TID-HATCH
 62
7
420
13487565
100
AcDbHatch
 10
0.0
 20
0.0
 30
0.0
210
0.0
220
0.0
230
1.0
  2
SOLID
 70
1
 71
0
 91
1
 92
3
 72
0
 73
1
 93
4
 10
10000.0
 20
8450.0
 10
11818.653347947322
 20
9500.0
 10
11818.653347947322
 20
10400.0
 10
10000.0
 20
9350.0
 97
0
 75
1
 76
1
 98
0
  0
LWPOLYLINE
  5
CC
330
17
100
AcDbEntity
  8
TID-CONCRETE
100
AcDbPolyline
 90
4
 70
1
 10
10000.0
 20
8450.0
 10
11818.653347947322
 20
9500.0
 10
11818.653347947322
 20
10400.0
 10
10000.0
 20
9350.0
  0
HATCH
  5
CD
330
17
100
AcDbEntity
  8
TID-HATCH
 62
7
420
11513775
100
AcDbHatch
 10
0.0
 20
0.0
 30
0.0
210
0.0
220
0.0
230
1.0
  2
SOLID
 70
1
 71
0
 91
1
 92
3
 72
0
 73
1
 93
4
 10
10000.0
 20
8450.0
 10
8181.346652052678
 20
9500.0
 10
8181.346652052678
 20
10400.0
 10
10000.0
 20
9350.0
 97
0
 75
1
 76
1
 98
0
  0
LWPOLYLINE
  5
CE
330
17
100
AcDbEntity
  8
TID-CONCRETE
100
AcDbPolyline
 90
4
 70
1
 10
10000.0
 20
8450.0
 10
8181.346652052678
 20
9500.0
 10
8181.346652052678
 20
10400.0
 10
10000.0
 20
9350.0
  0
HATCH
  5
CF
330
17
100
AcDbEntity
  8
TID-HATCH
 62
7
420
7905495
100
AcDbHatch
 10
0.0
 20
0.0
 30
0.0
210
0.0
220
0.0
230
1.0
  2
SOLID
 70
1
 71
0
 91
1
 92
3
 72
0
 73
1
 93
4
 10
10000.0
 20
9785.0
 10
11195.115057222525
 20
10475.0
 10
10000.0
 20
11165.0
 10
8804.884942777475
 20
10475.0
 97
0
 75
1
 76
1
 98
0
  0
LWPOLYLINE
  5
D0
330
17
100
AcDbEntity
  8
TID-STRUCTURE
100
AcDbPolyline
 90
4
 70
1
 10
10000.0
 20
9785.0
 10
11195.115057222525
 20
10475.0
 10
10000.0
 20
11165.0
 10
8804.884942777475
 20
10475.0
  0
HATCH
  5
D1
330
17
100
AcDbEntity
  8
TID-HATCH
 62
7
420
3960510
100
AcDbHatch
 10
0.0
 20
0.0
 30
0.0
210
0.0
220
0.0
230
1.0
  2
SOLID
 70
1
 71
0
 91
1
 92
3
 72
0
 73
1
 93
4
 10
10000.0
 20
9710.0
 10
11195.115057222525
 20
10400.0
 10
11195.115057222525
 20
10475.0
 10
10000.0
 20
9785.0
 97
0
 75
1
 76
1
 98
0
  0
LWPOLYLINE
  5
D2
330
17
100
AcDbEntity
  8
TID-STRUCTURE
100
AcDbPolyline
 90
4
 70
1
 10
10000.0
 20
9710.0
 10
11195.115057222525
 20
10400.0
 10
11195.115057222525
 20
10475.0
 10
10000.0
 20
9785.0
  0
HATCH
  5
D3
330
17
100
AcDbEntity
  8
TID-HATCH
 62
7
420
1986720
100
AcDbHatch
 10
0.0
 20
0.0
 30
0.0
210
0.0
220
0.0
230
1.0
  2
SOLID
 70
1
 71
0
 91
1
 92
3
 72
0
 73
1
 93
4
 10
10000.0
 20
9710.0
 10
8804.884942777475
 20
10400.0
 10
8804.884942777475
 20
10475.0
 10
10000.0
 20
9785.0
 97
0
 75
1
 76
1
 98
0
  0
LWPOLYLINE
  5
D4
330
17
100
AcDbEntity
  8
TID-STRUCTURE
100
AcDbPolyline
 90
4
 70
1
 10
10000.0
 20
9710.0
 10
8804.884942777475
 20
10400.0
 10
8804.884942777475
 20
10475.0
 10
10000.0
 20
9785.0
  0
HATCH
  5
D5
330
17
100
AcDbEntity
  8
TID-HATCH
 62
7
420
15527148
100
AcDbHatch
 10
0.0
 20
0.0
 30
0.0
210
0.0
220
0.0
230
1.0
  2
SOLID
 70
1
 71
0
 91
1
 92
3
 72
0
 73
1
 93
4
 10
10000.0
 20
9995.0
 10
10077.9422863406
 20
10040.0
 10
10000.0
 20
10085.0
 10
9922.0577136594
 20
10040.0
 97
0
 75
1
 76
1
 98
0
  0
LWPOLYLINE
  5
D6
330
17
100
AcDbEntity
  8
TID-STRUCTURE
100
AcDbPolyline
 90
4
 70
1
 10
10000.0
 20
9995.0
 10
10077.9422863406
 20
10040.0
 10
10000.0
 20
10085.0
 10
9922.0577136594
 20
10040.0
  0
HATCH
  5
D7
330
17
100
AcDbEntity
  8
TID-HATCH
 62
7
420
13487565
100
AcDbHatch
 10
0.0
 20
0.0
 30
0.0
210
0.0
220
0.0
230
1.0
  2
SOLID
 70
1
 71
0
 91
1
 92
3
 72
0
 73
1
 93
4
 10
10000.0
 20
9890.0
 10
10077.9422863406
 20
9935.0
 10
10077.9422863406
 20
10040.0
 10
10000.0
 20
9995.0
 97
0
 75
1
 76
1
 98
0
  0
LWPOLYLINE
  5
D8
330
17
100
AcDbEntity
  8
TID-STRUCTURE
100
AcDbPolyline
 90
4
 70
1
 10
10000.0
 20
9890.0
 10
10077.9422863406
 20
9935.0
 10
10077.9422863406
 20
10040.0
 10
10000.0
 20
9995.0
  0
HATCH
  5
D9
330
17
100
AcDbEntity
  8
TID-HATCH
 62
7
420
11513775
100
AcDbHatch
 10
0.0
 20
0.0
 30
0.0
210
0.0
220
0.0
230
1.0
  2
SOLID
 70
1
 71
0
 91
1
 92
3
 72
0
 73
1
 93
4
 10
10000.0
 20
9890.0
 10
9922.0577136594
 20
9935.0
 10
9922.0577136594
 20
10040.0
 10
10000.0
 20
9995.0
 97
0
 75
1
 76
1
 98
0
  0
LWPOLYLINE
  5
DA
330
17
100
AcDbEntity
  8
TID-STRUCTURE
100
AcDbPolyline
 90
4
 70
1
 10
10000.0
 20
9890.0
 10
9922.0577136594
 20
9935.0
 10
9922.0577136594
 20
10040.0
 10
10000.0
 20
9995.0
  0
HATCH
  5
DB
330
17
100
AcDbEntity
  8
TID-HATCH
 62
7
420
15527148
100
AcDbHatch
 10
0.0
 20
0.0
 30
0.0
210
0.0
220
0.0
230
1.0
  2
SOLID
 70
1
 71
0
 91
1
 92
3
 72
0
 73
1
 93
4
 10
10935.307436087194
 20
10535.0
 10
11013.249722427794
 20
10580.0
 10
10935.307436087194
 20
10625.0
 10
10857.365149746594
 20
10580.0
 97
0
 75
1
 76
1
 98
0
  0
LWPOLYLINE
  5
DC
330
17
100
AcDbEntity
  8
TID-STRUCTURE
100
AcDbPolyline
 90
4
 70
1
 10
10935.307436087194
 20
10535.0
 10
11013.249722427794
 20
10580.0
 10
10935.307436087194
 20
10625.0
 10
10857.365149746594
 20
10580.0
  0
HATCH
  5
DD
330
17
100
AcDbEntity
  8
TID-HATCH
 62
7
420
13487565
100
AcDbHatch
 10
0.0
 20
0.0
 30
0.0
210
0.0
220
0.0
230
1.0
  2
SOLID
 70
1
 71
0
 91
1
 92
3
 72
0
 73
1
 93
4
 10
10935.307436087194
 20
10430.0
 10
11013.249722427794
 20
10475.0
 10
11013.249722427794
 20
10580.0
 10
10935.307436087194
 20
10535.0
 97
0
 75
1
 76
1
 98
0
  0
LWPOLYLINE
  5
DE
330
17
100
AcDbEntity
  8
TID-STRUCTURE
100
AcDbPolyline
 90
4
 70
1
 10
10935.307436087194
 20
10430.0
 10
11013.249722427794
 20
10475.0
 10
11013.249722427794
 20
10580.0
 10
10935.307436087194
 20
10535.0
  0
HATCH
  5
DF
330
17
100
AcDbEntity
  8
TID-HATCH
 62
7
420
11513775
100
AcDbHatch
 10
0.0
 20
0.0
 30
0.0
210
0.0
220
0.0
230
1.0
  2
SOLID
 70
1
 71
0
 91
1
 92
3
 72
0
 73
1
 93
4
 10
10935.307436087194
 20
10430.0
 10
10857.365149746594
 20
10475.0
 10
10857.365149746594
 20
10580.0
 10
10935.307436087194
 20
10535.0
 97
0
 75
1
 76
1
 98
0
  0
LWPOLYLINE
  5
E0
330
17
100
AcDbEntity
  8
TID-STRUCTURE
100
AcDbPolyline
 90
4
 70
1
 10
10935.307436087194
 20
10430.0
 10
10857.365149746594
 20
10475.0
 10
10857.365149746594
 20
10580.0
 10
10935.307436087194
 20
10535.0
  0
HATCH
  5
E1
330
17
100
AcDbEntity
  8
TID-HATCH
 62
7
420
15527148
100
AcDbHatch
 10
0.0
 20
0.0
 30
0.0
210
0.0
220
0.0
230
1.0
  2
SOLID
 70
1
 71
0
 91
1
 92
3
 72
0
 73
1
 93
4
 10
9064.692563912806
 20
10535.0
 10
9142.634850253406
 20
10580.0
 10
9064.692563912806
 20
10625.0
 10
8986.750277572206
 20
10580.0
 97
0
 75
1
 76
1
 98
0
  0
LWPOLYLINE
  5
E2
330
17
100
AcDbEntity
  8
TID-STRUCTURE
100
AcDbPolyline
 90
4
 70
1
 10
9064.692563912806
 20
10535.0
 10
9142.634850253406
 20
10580.0
 10
9064.692563912806
 20
10625.0
 10
8986.750277572206
 20
10580.0
  0
HATCH
  5
E3
330
17
100
AcDbEntity
  8
TID-HATCH
 62
7
420
13487565
100
AcDbHatch
 10
0.0
 20
0.0
 30
0.0
210
0.0
220
0.0
230
1.0
  2
SOLID
 70
1
 71
0
 91
1
 92
3
 72
0
 73
1
 93
4
 10
9064.692563912806
 20
10430.0
 10
9142.634850253406
 20
10475.0
 10
9142.634850253406
 20
10580.0
 10
9064.692563912806
 20
10535.0
 97
0
 75
1
 76
1
 98
0
  0
LWPOLYLINE
  5
E4
330
17
100
AcDbEntity
  8
TID-STRUCTURE
100
AcDbPolyline
 90
4
 70
1
 10
9064.692563912806
 20
10430.0
 10
9142.634850253406
 20
10475.0
 10
9142.634850253406
 20
10580.0
 10
9064.692563912806
 20
10535.0
  0
HATCH
  5
E5
330
17
100
AcDbEntity
  8
TID-HATCH
 62
7
420
11513775
100
AcDbHatch
 10
0.0
 20
0.0
 30
0.0
210
0.0
220
0.0
230
1.0
  2
SOLID
 70
1
 71
0
 91
1
 92
3
 72
0
 73
1
 93
4
 10
9064.692563912806
 20
10430.0
 10
8986.750277572206
 20
10475.0
 10
8986.750277572206
 20
10580.0
 10
9064.692563912806
 20
10535.0
 97
0
 75
1
 76
1
 98
0
  0
LWPOLYLINE
  5
E6
330
17
100
AcDbEntity
  8
TID-STRUCTURE
100
AcDbPolyline
 90
4
 70
1
 10
9064.692563912806
 20
10430.0
 10
8986.750277572206
 20
10475.0
 10
8986.750277572206
 20
10580.0
 10
9064.692563912806
 20
10535.0
  0
HATCH
  5
E7
330
17
100
AcDbEntity
  8
TID-HATCH
 62
7
420
7905495
100
AcDbHatch
 10
0.0
 20
0.0
 30
0.0
210
0.0
220
0.0
230
1.0
  2
SOLID
 70
1
 71
0
 91
1
 92
3
 72
0
 73
1
 93
4
 10
10740.451720235695
 20
17427.5
 10
10779.422863405995
 20
17450.0
 10
10000.0
 20
17900.0
 10
9961.0288568297
 20
17877.5
 97
0
 75
1
 76
1
 98
0
  0
LWPOLYLINE
  5
E8
330
17
100
AcDbEntity
  8
TID-STRUCTURE
100
AcDbPolyline
 90
4
 70
1
 10
10740.451720235695
 20
17427.5
 10
10779.422863405995
 20
17450.0
 10
10000.0
 20
17900.0
 10
9961.0288568297
 20
17877.5
  0
HATCH
  5
E9
330
17
100
AcDbEntity
  8
TID-HATCH
 62
7
420
3960510
100
AcDbHatch
 10
0.0
 20
0.0
 30
0.0
210
0.0
220
0.0
230
1.0
  2
SOLID
 70
1
 71
0
 91
1
 92
3
 72
0
 73
1
 93
4
 10
10740.451720235695
 20
10452.5
 10
10779.422863405995
 20
10475.0
 10
10779.422863405995
 20
17450.0
 10
10740.451720235695
 20
17427.5
 97
0
 75
1
 76
1
 98
0
  0
LWPOLYLINE
  5
EA
330
17
100
AcDbEntity
  8
TID-STRUCTURE
100
AcDbPolyline
 90
4
 70
1
 10
10740.451720235695
 20
10452.5
 10
10779.422863405995
 20
10475.0
 10
10779.422863405995
 20
17450.0
 10
10740.451720235695
 20
17427.5
  0
HATCH
  5
EB
330
17
100
AcDbEntity
  8
TID-HATCH
 62
7
420
1986720
100
AcDbHatch
 10
0.0
 20
0.0
 30
0.0
210
0.0
220
0.0
230
1.0
  2
SOLID
 70
1
 71
0
 91
1
 92
3
 72
0
 73
1
 93
4
 10
10740.451720235695
 20
10452.5
 10
9961.0288568297
 20
10902.5
 10
9961.0288568297
 20
17877.5
 10
10740.451720235695
 20
17427.5
 97
0
 75
1
 76
1
 98
0
  0
LWPOLYLINE
  5
EC
330
17
100
AcDbEntity
  8
TID-STRUCTURE
100
AcDbPolyline
 90
4
 70
1
 10
10740.451720235695
 20
10452.5
 10
9961.0288568297
 20
10902.5
 10
9961.0288568297
 20
17877.5
 10
10740.451720235695
 20
17427.5
  0
HATCH
  5
ED
330
17
100
AcDbEntity
  8
TID-HATCH
 62
7
420
7905495
100
AcDbHatch
 10
0.0
 20
0.0
 30
0.0
210
0.0
220
0.0
230
1.0
  2
SOLID
 70
1
 71
0
 91
1
 92
3
 72
0
 73
1
 93
4
 10
9664.848168735421
 20
17238.5
 10
10366.328745800818
 20
17643.5
 10
10335.151831264579
 20
17661.5
 10
9633.671254199182
 20
17256.5
 97
0
 75
1
 76
1
 98
0
  0
LWPOLYLINE
  5
EE
330
17
100
AcDbEntity
  8
TID-STRUCTURE
100
AcDbPolyline
 90
4
 70
1
 10
9664.848168735421
 20
17238.5
 10
10366.328745800818
 20
17643.5
 10
10335.151831264579
 20
17661.5
 10
9633.671254199182
 20
17256.5
  0
HATCH
  5
EF
330
17
100
AcDbEntity
  8
TID-HATCH
 62
7
420
3960510
100
AcDbHatch
 10
0.0
 20
0.0
 30
0.0
210
0.0
220
0.0
230
1.0
  2
SOLID
 70
1
 71
0
 91
1
 92
3
 72
0
 73
1
 93
4
 10
9664.848168735421
 20
10263.5
 10
10366.328745800818
 20
10668.5
 10
10366.328745800818
 20
17643.5
 10
9664.848168735421
 20
17238.5
 97
0
 75
1
 76
1
 98
0
  0
LWPOLYLINE
  5
F0
330
17
100
AcDbEntity
  8
TID-STRUCTURE
100
AcDbPolyline
 90
4
 70
1
 10
9664.848168735421
 20
10263.5
 10
10366.328745800818
 20
10668.5
 10
10366.328745800818
 20
17643.5
 10
9664.848168735421
 20
17238.5
  0
HATCH
  5
F1
330
17
100
AcDbEntity
  8
TID-HATCH
 62
7
420
1986720
100
AcDbHatch
 10
0.0
 20
0.0
 30
0.0
210
0.0
220
0.0
230
1.0
  2
SOLID
 70
1
 71
0
 91
1
 92
3
 72
0
 73
1
 93
4
 10
9664.848168735421
 20
10263.5
 10
9633.671254199182
 20
10281.5
 10
9633.671254199182
 20
17256.5
 10
9664.848168735421
 20
17238.5
 97
0
 75
1
 76
1
 98
0
  0
LWPOLYLINE
  5
F2
330
17
100
AcDbEntity
  8
TID-STRUCTURE
100
AcDbPolyline
 90
4
 70
1
 10
9664.848168735421
 20
10263.5
 10
9633.671254199182
 20
10281.5
 10
9633.671254199182
 20
17256.5
 10
9664.848168735421
 20
17238.5
  0
HATCH
  5
F3
330
17
100
AcDbEntity
  8
TID-HATCH
 62
7
420
7905495
100
AcDbHatch
 10
0.0
 20
0.0
 30
0.0
210
0.0
220
0.0
230
1.0
  2
SOLID
 70
1
 71
0
 91
1
 92
3
 72
0
 73
1
 93
4
 10
10000.0
 20
17000.0
 10
10038.9711431703
 20
17022.5
 10
9259.548279764305
 20
17472.5
 10
9220.577136594005
 20
17450.0
 97
0
 75
1
 76
1
 98
0
  0
LWPOLYLINE
  5
F4
330
17
100
AcDbEntity
  8
TID-STRUCTURE
100
AcDbPolyline
 90
4
 70
1
 10
10000.0
 20
17000.0
 10
10038.9711431703
 20
17022.5
 10
9259.548279764305
 20
17472.5
 10
9220.577136594005
 20
17450.0
  0
HATCH
  5
F5
330
17
100
AcDbEntity
  8
TID-HATCH
 62
7
420
3960510
100
AcDbHatch
 10
0.0
 20
0.0
 30
0.0
210
0.0
220
0.0
230
1.0
  2
SOLID
 70
1
 71
0
 91
1
 92
3
 72
0
 73
1
 93
4
 10
10000.0
 20
10025.0
 10
10038.9711431703
 20
10047.5
 10
10038.9711431703
 20
17022.5
 10
10000.0
 20
17000.0
 97
0
 75
1
 76
1
 98
0
  0
LWPOLYLINE
  5
F6
330
17
100
AcDbEntity
  8
TID-STRUCTURE
100
AcDbPolyline
 90
4
 70
1
 10
10000.0
 20
10025.0
 10
10038.9711431703
 20
10047.5
 10
10038.9711431703
 20
17022.5
 10
10000.0
 20
17000.0
  0
HATCH
  5
F7
330
17
100
AcDbEntity
  8
TID-HATCH
 62
7
420
1986720
100
AcDbHatch
 10
0.0
 20
0.0
 30
0.0
210
0.0
220
0.0
230
1.0
  2
SOLID
 70
1
 71
0
 91
1
 92
3
 72
0
 73
1
 93
4
 10
10000.0
 20
10025.0
 10
9220.577136594005
 20
10475.0
 10
9220.577136594005
 20
17450.0
 10
10000.0
 20
17000.0
 97
0
 75
1
 76
1
 98
0
  0
LWPOLYLINE
  5
F8
330
17
100
AcDbEntity
  8
TID-STRUCTURE
100
AcDbPolyline
 90
4
 70
1
 10
10000.0
 20
10025.0
 10
9220.577136594005
 20
10475.0
 10
9220.577136594005
 20
17450.0
 10
10000.0
 20
17000.0
  0
LWPOLYLINE
  5
F9
330
17
100
AcDbEntity
  8
TID-STRUCTURE
100
AcDbPolyline
 90
4
 70
0
 10
10000.0
 20
17000.0
 10
9550.288568297003
 20
17345.0
 10
9670.288568297003
 20
17105.0
 10
9220.577136594005
 20
17450.0
  0
HATCH
  5
FA
330
17
100
AcDbEntity
  8
TID-HATCH
 62
7
420
15777400
100
AcDbHatch
 10
0.0
 20
0.0
 30
0.0
210
0.0
220
0.0
230
1.0
  2
SOLID
 70
1
 71
0
 91
1
 92
3
 72
0
 73
1
 93
4
 10
9662.25009252407
 20
11075.0
 10
9688.230854637603
 20
11090.0
 10
9532.346281956403
 20
11180.0
 10
9506.36551984287
 20
11165.0
 97
0
 75
1
 76
1
 98
0
  0
LWPOLYLINE
  5
FB
330
17
100
AcDbEntity
  8
ELC-GROUNDING
100
AcDbPolyline
 90
4
 70
1
 10
9662.25009252407
 20
11075.0
 10
9688.230854637603
 20
11090.0
 10
9532.346281956403
 20
11180.0
 10
9506.36551984287
 20
11165.0
  0
HATCH
  5
FC
330
17
100
AcDbEntity
  8
TID-HATCH
 62
7
420
14128720
100
AcDbHatch
 10
0.0
 20
0.0
 30
0.0
210
0.0
220
0.0
230
1.0
  2
SOLID
 70
1
 71
0
 91
1
 92
3
 72
0
 73
1
 93
4
 10
9662.25009252407
 20
10715.0
 10
9688.230854637603
 20
10730.0
 10
9688.230854637603
 20
11090.0
 10
9662.25009252407
 20
11075.0
 97
0
 75
1
 76
1
 98
0
  0
LWPOLYLINE
  5
FD
330
17
100
AcDbEntity
  8
ELC-GROUNDING
100
AcDbPolyline
 90
4
 70
1
 10
9662.25009252407
 20
10715.0
 10
9688.230854637603
 20
10730.0
 10
9688.230854637603
 20
11090.0
 10
9662.25009252407
 20
11075.0
  0
HATCH
  5
FE
330
17
100
AcDbEntity
  8
TID-HATCH
 62
7
420
12482620
100
AcDbHatch
 10
0.0
 20
0.0
 30
0.0
210
0.0
220
0.0
230
1.0
  2
SOLID
 70
1
 71
0
 91
1
 92
3
 72
0
 73
1
 93
4
 10
9662.25009252407
 20
10715.0
 10
9506.36551984287
 20
10805.0
 10
9506.36551984287
 20
11165.0
 10
9662.25009252407
 20
11075.0
 97
0
 75
1
 76
1
 98
0
  0
LWPOLYLINE
  5
FF
330
17
100
AcDbEntity
  8
ELC-GROUNDING
100
AcDbPolyline
 90
4
 70
1
 10
9662.25009252407
 20
10715.0
 10
9506.36551984287
 20
10805.0
 10
9506.36551984287
 20
11165.0
 10
9662.25009252407
 20
11075.0
  0
HATCH
  5
100
330
17
100
AcDbEntity
  8
TID-HATCH
 62
7
420
15777400
100
AcDbHatch
 10
0.0
 20
0.0
 30
0.0
210
0.0
220
0.0
230
1.0
  2
SOLID
 70
1
 71
0
 91
1
 92
3
 72
0
 73
1
 93
4
 10
9594.700111028882
 20
11018.0
 10
9625.877025565122
 20
11036.0
 10
9542.738586801815
 20
11084.0
 10
9511.561672265576
 20
11066.0
 97
0
 75
1
 76
1
 98
0
  0
LWPOLYLINE
  5
101
330
17
100
AcDbEntity
  8
ELC-GROUNDING
100
AcDbPolyline
 90
4
 70
1
 10
9594.700111028882
 20
11018.0
 10
9625.877025565122
 20
11036.0
 10
9542.738586801815
 20
11084.0
 10
9511.561672265576
 20
11066.0
  0
HATCH
  5
102
330
17
100
AcDbEntity
  8
TID-HATCH
 62
7
420
14128720
100
AcDbHatch
 10
0.0
 20
0.0
 30
0.0
210
0.0
220
0.0
230
1.0
  2
SOLID
 70
1
 71
0
 91
1
 92
3
 72
0
 73
1
 93
4
 10
9594.700111028882
 20
10778.0
 10
9625.877025565122
 20
10796.0
 10
9625.877025565122
 20
11036.0
 10
9594.700111028882
 20
11018.0
 97
0
 75
1
 76
1
 98
0
  0
LWPOLYLINE
  5
103
330
17
100
AcDbEntity
  8
ELC-GROUNDING
100
AcDbPolyline
 90
4
 70
1
 10
9594.700111028882
 20
10778.0
 10
9625.877025565122
 20
10796.0
 10
9625.877025565122
 20
11036.0
 10
9594.700111028882
 20
11018.0
  0
HATCH
  5
104
330
17
100
AcDbEntity
  8
TID-HATCH
 62
7
420
12482620
100
AcDbHatch
 10
0.0
 20
0.0
 30
0.0
210
0.0
220
0.0
230
1.0
  2
SOLID
 70
1
 71
0
 91
1
 92
3
 72
0
 73
1
 93
4
 10
9594.700111028882
 20
10778.0
 10
9511.561672265576
 20
10826.0
 10
9511.561672265576
 20
11066.0
 10
9594.700111028882
 20
11018.0
 97
0
 75
1
 76
1
 98
0
  0
LWPOLYLINE
  5
105
330
17
100
AcDbEntity
  8
ELC-GROUNDING
100
AcDbPolyline
 90
4
 70
1
 10
9594.700111028882
 20
10778.0
 10
9511.561672265576
 20
10826.0
 10
9511.561672265576
 20
11066.0
 10
9594.700111028882
 20
11018.0
  0
CIRCLE
  5
106
330
17
100
AcDbEntity
  8
ELC-GROUNDING
100
AcDbCircle
 10
9553.13089164723
 20
10958.0
 30
0.0
 40
22.0
  0
HATCH
  5
107
330
17
100
AcDbEntity
  8
TID-HATCH
 62
7
420
15777400
100
AcDbHatch
 10
0.0
 20
0.0
 30
0.0
210
0.0
220
0.0
230
1.0
  2
SOLID
 70
1
 71
0
 91
1
 92
3
 72
0
 73
1
 93
4
 10
9573.915501338057
 20
10778.0
 10
9605.092415874296
 20
10796.0
 10
9542.738586801815
 20
10832.0
 10
9511.561672265576
 20
10814.0
 97
0
 75
1
 76
1
 98
0
  0
LWPOLYLINE
  5
108
330
17
100
AcDbEntity
  8
ELC-GROUNDING
100
AcDbPolyline
 90
4
 70
1
 10
9573.915501338057
 20
10778.0
 10
9605.092415874296
 20
10796.0
 10
9542.738586801815
 20
10832.0
 10
9511.561672265576
 20
10814.0
  0
HATCH
  5
109
330
17
100
AcDbEntity
  8
TID-HATCH
 62
7
420
14128720
100
AcDbHatch
 10
0.0
 20
0.0
 30
0.0
210
0.0
220
0.0
230
1.0
  2
SOLID
 70
1
 71
0
 91
1
 92
3
 72
0
 73
1
 93
4
 10
9573.915501338057
 20
10538.0
 10
9605.092415874296
 20
10556.0
 10
9605.092415874296
 20
10796.0
 10
9573.915501338057
 20
10778.0
 97
0
 75
1
 76
1
 98
0
  0
LWPOLYLINE
  5
10A
330
17
100
AcDbEntity
  8
ELC-GROUNDING
100
AcDbPolyline
 90
4
 70
1
 10
9573.915501338057
 20
10538.0
 10
9605.092415874296
 20
10556.0
 10
9605.092415874296
 20
10796.0
 10
9573.915501338057
 20
10778.0
  0
HATCH
  5
10B
330
17
100
AcDbEntity
  8
TID-HATCH
 62
7
420
12482620
100
AcDbHatch
 10
0.0
 20
0.0
 30
0.0
210
0.0
220
0.0
230
1.0
  2
SOLID
 70
1
 71
0
 91
1
 92
3
 72
0
 73
1
 93
4
 10
9573.915501338057
 20
10538.0
 10
9511.561672265576
 20
10574.0
 10
9511.561672265576
 20
10814.0
 10
9573.915501338057
 20
10778.0
 97
0
 75
1
 76
1
 98
0
  0
LWPOLYLINE
  5
10C
330
17
100
AcDbEntity
  8
ELC-GROUNDING
100
AcDbPolyline
 90
4
 70
1
 10
9573.915501338057
 20
10538.0
 10
9511.561672265576
 20
10574.0
 10
9511.561672265576
 20
10814.0
 10
9573.915501338057
 20
10778.0
  0
HATCH
  5
10D
330
17
100
AcDbEntity
  8
TID-HATCH
 62
7
420
14803425
100
AcDbHatch
 10
0.0
 20
0.0
 30
0.0
210
0.0
220
0.0
230
1.0
  2
SOLID
 70
1
 71
0
 91
1
 92
3
 72
0
 73
1
 93
4
 10
2439.59822496185
 20
10115.0
 10
3738.6363306385083
 20
10865.0
 10
3374.9056610490443
 20
11075.0
 10
2075.867555372386
 20
10325.0
 97
0
 75
1
 76
1
 98
0
  0
LWPOLYLINE
  5
10E
330
17
100
AcDbEntity
  8
TID-E-CONTROL BOX
100
AcDbPolyline
 90
4
 70
1
 10
2439.59822496185
 20
10115.0
 10
3738.6363306385083
 20
10865.0
 10
3374.9056610490443
 20
11075.0
 10
2075.867555372386
 20
10325.0
  0
HATCH
  5
10F
330
17
100
AcDbEntity
  8
TID-HATCH
 62
7
420
12500670
100
AcDbHatch
 10
0.0
 20
0.0
 30
0.0
210
0.0
220
0.0
230
1.0
  2
SOLID
 70
1
 71
0
 91
1
 92
3
 72
0
 73
1
 93
4
 10
2439.59822496185
 20
9065.0
 10
3738.6363306385083
 20
9815.0
 10
3738.6363306385083
 20
10865.0
 10
2439.59822496185
 20
10115.0
 97
0
 75
1
 76
1
 98
0
  0
LWPOLYLINE
  5
110
330
17
100
AcDbEntity
  8
TID-E-CONTROL BOX
100
AcDbPolyline
 90
4
 70
1
 10
2439.59822496185
 20
9065.0
 10
3738.6363306385083
 20
9815.0
 10
3738.6363306385083
 20
10865.0
 10
2439.59822496185
 20
10115.0
  0
HATCH
  5
111
330
17
100
AcDbEntity
  8
TID-HATCH
 62
7
420
10526880
100
AcDbHatch
 10
0.0
 20
0.0
 30
0.0
210
0.0
220
0.0
230
1.0
  2
SOLID
 70
1
 71
0
 91
1
 92
3
 72
0
 73
1
 93
4
 10
2439.59822496185
 20
9065.0
 10
2075.867555372386
 20
9275.0
 10
2075.867555372386
 20
10325.0
 10
2439.59822496185
 20
10115.0
 97
0
 75
1
 76
1
 98
0
  0
LWPOLYLINE
  5
112
330
17
100
AcDbEntity
  8
TID-E-CONTROL BOX
100
AcDbPolyline
 90
4
 70
1
 10
2439.59822496185
 20
9065.0
 10
2075.867555372386
 20
9275.0
 10
2075.867555372386
 20
10325.0
 10
2439.59822496185
 20
10115.0
  0
CIRCLE
  5
113
330
17
100
AcDbEntity
  8
TID-E-CONTROL BOX
100
AcDbCircle
 10
2517.54051130245
 20
9200.0
 30
0.0
 40
12.0
  0
CIRCLE
  5
114
330
17
100
AcDbEntity
  8
TID-E-CONTROL BOX
100
AcDbCircle
 10
3660.6940442979085
 20
9860.0
 30
0.0
 40
12.0
  0
CIRCLE
  5
115
330
17
100
AcDbEntity
  8
TID-E-CONTROL BOX
100
AcDbCircle
 10
2517.54051130245
 20
10070.0
 30
0.0
 40
12.0
  0
CIRCLE
  5
116
330
17
100
AcDbEntity
  8
TID-E-CONTROL BOX
100
AcDbCircle
 10
3660.6940442979085
 20
10730.0
 30
0.0
 40
12.0
  0
LWPOLYLINE
  5
117
330
17
100
AcDbEntity
  8
TID-E-CONTROL BOX
100
AcDbPolyline
 90
4
 70
1
 10
2829.3096566648474
 20
10010.0
 10
3348.924898935511
 20
10310.0
 10
3348.924898935511
 20
10460.0
 10
2829.3096566648474
 20
10160.0
  0
HATCH
  5
118
330
17
100
AcDbEntity
  8
TID-HATCH
 62
7
420
15527148
100
AcDbHatch
 10
0.0
 20
0.0
 30
0.0
210
0.0
220
0.0
230
1.0
  2
SOLID
 70
1
 71
0
 91
1
 92
3
 72
0
 73
1
 93
4
 10
3270.982612594911
 20
9701.0
 10
3364.513356203631
 20
9755.0
 10
3270.982612594911
 20
9809.0
 10
3177.4518689861925
 20
9755.0
 97
0
 75
1
 76
1
 98
0
  0
LWPOLYLINE
  5
119
330
17
100
AcDbEntity
  8
TID-E-CONTROL BOX
100
AcDbPolyline
 90
4
 70
1
 10
3270.982612594911
 20
9701.0
 10
3364.513356203631
 20
9755.0
 10
3270.982612594911
 20
9809.0
 10
3177.4518689861925
 20
9755.0
  0
HATCH
  5
11A
330
17
100
AcDbEntity
  8
TID-HATCH
 62
7
420
13487565
100
AcDbHatch
 10
0.0
 20
0.0
 30
0.0
210
0.0
220
0.0
230
1.0
  2
SOLID
 70
1
 71
0
 91
1
 92
3
 72
0
 73
1
 93
4
 10
3270.982612594911
 20
9566.0
 10
3364.513356203631
 20
9620.0
 10
3364.513356203631
 20
9755.0
 10
3270.982612594911
 20
9701.0
 97
0
 75
1
 76
1
 98
0
  0
LWPOLYLINE
  5
11B
330
17
100
AcDbEntity
  8
TID-E-CONTROL BOX
100
AcDbPolyline
 90
4
 70
1
 10
3270.982612594911
 20
9566.0
 10
3364.513356203631
 20
9620.0
 10
3364.513356203631
 20
9755.0
 10
3270.982612594911
 20
9701.0
  0
HATCH
  5
11C
330
17
100
AcDbEntity
  8
TID-HATCH
 62
7
420
11513775
100
AcDbHatch
 10
0.0
 20
0.0
 30
0.0
210
0.0
220
0.0
230
1.0
  2
SOLID
 70
1
 71
0
 91
1
 92
3
 72
0
 73
1
 93
4
 10
3270.982612594911
 20
9566.0
 10
3177.4518689861925
 20
9620.0
 10
3177.4518689861925
 20
9755.0
 10
3270.982612594911
 20
9701.0
 97
0
 75
1
 76
1
 98
0
  0
LWPOLYLINE
  5
11D
330
17
100
AcDbEntity
  8
TID-E-CONTROL BOX
100
AcDbPolyline
 90
4
 70
1
 10
3270.982612594911
 20
9566.0
 10
3177.4518689861925
 20
9620.0
 10
3177.4518689861925
 20
9755.0
 10
3270.982612594911
 20
9701.0
  0
HATCH
  5
11E
330
17
100
AcDbEntity
  8
TID-HATCH
 62
7
420
15527148
100
AcDbHatch
 10
0.0
 20
0.0
 30
0.0
210
0.0
220
0.0
230
1.0
  2
SOLID
 70
1
 71
0
 91
1
 92
3
 72
0
 73
1
 93
4
 10
2543.521273415983
 20
9281.0
 10
2637.052017024702
 20
9335.0
 10
2543.521273415983
 20
9389.0
 10
2449.9905298072626
 20
9335.0
 97
0
 75
1
 76
1
 98
0
  0
LWPOLYLINE
  5
11F
330
17
100
AcDbEntity
  8
TID-E-CONTROL BOX
100
AcDbPolyline
 90
4
 70
1
 10
2543.521273415983
 20
9281.0
 10
2637.052017024702
 20
9335.0
 10
2543.521273415983
 20
9389.0
 10
2449.9905298072626
 20
9335.0
  0
HATCH
  5
120
330
17
100
AcDbEntity
  8
TID-HATCH
 62
7
420
13487565
100
AcDbHatch
 10
0.0
 20
0.0
 30
0.0
210
0.0
220
0.0
230
1.0
  2
SOLID
 70
1
 71
0
 91
1
 92
3
 72
0
 73
1
 93
4
 10
2543.521273415983
 20
9146.0
 10
2637.052017024702
 20
9200.0
 10
2637.052017024702
 20
9335.0
 10
2543.521273415983
 20
9281.0
 97
0
 75
1
 76
1
 98
0
  0
LWPOLYLINE
  5
121
330
17
100
AcDbEntity
  8
TID-E-CONTROL BOX
100
AcDbPolyline
 90
4
 70
1
 10
2543.521273415983
 20
9146.0
 10
2637.052017024702
 20
9200.0
 10
2637.052017024702
 20
9335.0
 10
2543.521273415983
 20
9281.0
  0
HATCH
  5
122
330
17
100
AcDbEntity
  8
TID-HATCH
 62
7
420
11513775
100
AcDbHatch
 10
0.0
 20
0.0
 30
0.0
210
0.0
220
0.0
230
1.0
  2
SOLID
 70
1
 71
0
 91
1
 92
3
 72
0
 73
1
 93
4
 10
2543.521273415983
 20
9146.0
 10
2449.9905298072626
 20
9200.0
 10
2449.9905298072626
 20
9335.0
 10
2543.521273415983
 20
9281.0
 97
0
 75
1
 76
1
 98
0
  0
LWPOLYLINE
  5
123
330
17
100
AcDbEntity
  8
TID-E-CONTROL BOX
100
AcDbPolyline
 90
4
 70
1
 10
2543.521273415983
 20
9146.0
 10
2449.9905298072626
 20
9200.0
 10
2449.9905298072626
 20
9335.0
 10
2543.521273415983
 20
9281.0
  0
LWPOLYLINE
  5
124
330
17
100
AcDbEntity
  8
ELC-GROUNDING
100
AcDbPolyline
 90
9
 70
0
 43
45.0
 10
3270.982612594911
 20
9620.0
 10
3270.982612594911
 20
8585.0
 10
3270.982612594911
 20
8480.0
 10
5687.193489153495
 20
7085.0
 10
9064.692563912806
 20
9035.0
 10
9064.692563912806
 20
9860.0
 10
9064.692563912806
 20
9950.0
 10
9558.327044069936
 20
10325.0
 10
9558.327044069936
 20
10565.0
  0
HATCH
  5
125
330
17
100
AcDbEntity
  8
TID-HATCH
 62
7
420
15527148
100
AcDbHatch
 10
0.0
 20
0.0
 30
0.0
210
0.0
220
0.0
230
1.0
  2
SOLID
 70
1
 71
0
 91
1
 92
3
 72
0
 73
1
 93
4
 10
4102.367000227972
 20
7985.0
 10
4232.270810795639
 20
8060.0
 10
4154.328524455039
 20
8105.0
 10
4024.4247138873725
 20
8030.0
 97
0
 75
1
 76
1
 98
0
  0
LWPOLYLINE
  5
126
330
17
100
AcDbEntity
  8
TID-E-SUPPORT
100
AcDbPolyline
 90
4
 70
1
 10
4102.367000227972
 20
7985.0
 10
4232.270810795639
 20
8060.0
 10
4154.328524455039
 20
8105.0
 10
4024.4247138873725
 20
8030.0
  0
HATCH
  5
127
330
17
100
AcDbEntity
  8
TID-HATCH
 62
7
420
13487565
100
AcDbHatch
 10
0.0
 20
0.0
 30
0.0
210
0.0
220
0.0
230
1.0
  2
SOLID
 70
1
 71
0
 91
1
 92
3
 72
0
 73
1
 93
4
 10
4102.367000227972
 20
7850.0
 10
4232.270810795639
 20
7925.0
 10
4232.270810795639
 20
8060.0
 10
4102.367000227972
 20
7985.0
 97
0
 75
1
 76
1
 98
0
  0
LWPOLYLINE
  5
128
330
17
100
AcDbEntity
  8
TID-E-SUPPORT
100
AcDbPolyline
 90
4
 70
1
 10
4102.367000227972
 20
7850.0
 10
4232.270810795639
 20
7925.0
 10
4232.270810795639
 20
8060.0
 10
4102.367000227972
 20
7985.0
  0
HATCH
  5
129
330
17
100
AcDbEntity
  8
TID-HATCH
 62
7
420
11513775
100
AcDbHatch
 10
0.0
 20
0.0
 30
0.0
210
0.0
220
0.0
230
1.0
  2
SOLID
 70
1
 71
0
 91
1
 92
3
 72
0
 73
1
 93
4
 10
4102.367000227972
 20
7850.0
 10
4024.4247138873725
 20
7895.0
 10
4024.4247138873725
 20
8030.0
 10
4102.367000227972
 20
7985.0
 97
0
 75
1
 76
1
 98
0
  0
LWPOLYLINE
  5
12A
330
17
100
AcDbEntity
  8
TID-E-SUPPORT
100
AcDbPolyline
 90
4
 70
1
 10
4102.367000227972
 20
7850.0
 10
4024.4247138873725
 20
7895.0
 10
4024.4247138873725
 20
8030.0
 10
4102.367000227972
 20
7985.0
  0
HATCH
  5
12B
330
17
100
AcDbEntity
  8
TID-HATCH
 62
7
420
15527148
100
AcDbHatch
 10
0.0
 20
0.0
 30
0.0
210
0.0
220
0.0
230
1.0
  2
SOLID
 70
1
 71
0
 91
1
 92
3
 72
0
 73
1
 93
4
 10
5141.597484769299
 20
7385.0
 10
5271.501295336964
 20
7460.0
 10
5193.559008996365
 20
7505.0
 10
5063.655198428699
 20
7430.0
 97
0
 75
1
 76
1
 98
0
  0
LWPOLYLINE
  5
12C
330
17
100
AcDbEntity
  8
TID-E-SUPPORT
100
AcDbPolyline
 90
4
 70
1
 10
5141.597484769299
 20
7385.0
 10
5271.501295336964
 20
7460.0
 10
5193.559008996365
 20
7505.0
 10
5063.655198428699
 20
7430.0
  0
HATCH
  5
12D
330
17
100
AcDbEntity
  8
TID-HATCH
 62
7
420
13487565
100
AcDbHatch
 10
0.0
 20
0.0
 30
0.0
210
0.0
220
0.0
230
1.0
  2
SOLID
 70
1
 71
0
 91
1
 92
3
 72
0
 73
1
 93
4
 10
5141.597484769299
 20
7250.0
 10
5271.501295336964
 20
7325.0
 10
5271.501295336964
 20
7460.0
 10
5141.597484769299
 20
7385.0
 97
0
 75
1
 76
1
 98
0
  0
LWPOLYLINE
  5
12E
330
17
100
AcDbEntity
  8
TID-E-SUPPORT
100
AcDbPolyline
 90
4
 70
1
 10
5141.597484769299
 20
7250.0
 10
5271.501295336964
 20
7325.0
 10
5271.501295336964
 20
7460.0
 10
5141.597484769299
 20
7385.0
  0
HATCH
  5
12F
330
17
100
AcDbEntity
  8
TID-HATCH
 62
7
420
11513775
100
AcDbHatch
 10
0.0
 20
0.0
 30
0.0
210
0.0
220
0.0
230
1.0
  2
SOLID
 70
1
 71
0
 91
1
 92
3
 72
0
 73
1
 93
4
 10
5141.597484769299
 20
7250.0
 10
5063.655198428699
 20
7295.0
 10
5063.655198428699
 20
7430.0
 10
5141.597484769299
 20
7385.0
 97
0
 75
1
 76
1
 98
0
  0
LWPOLYLINE
  5
130
330
17
100
AcDbEntity
  8
TID-E-SUPPORT
100
AcDbPolyline
 90
4
 70
1
 10
5141.597484769299
 20
7250.0
 10
5063.655198428699
 20
7295.0
 10
5063.655198428699
 20
7430.0
 10
5141.597484769299
 20
7385.0
  0
HATCH
  5
131
330
17
100
AcDbEntity
  8
TID-HATCH
 62
7
420
15527148
100
AcDbHatch
 10
0.0
 20
0.0
 30
0.0
210
0.0
220
0.0
230
1.0
  2
SOLID
 70
1
 71
0
 91
1
 92
3
 72
0
 73
1
 93
4
 10
6908.289308489554
 20
7775.0
 10
6986.231594830153
 20
7820.0
 10
6856.3277842624875
 20
7895.0
 10
6778.385497921888
 20
7850.0
 97
0
 75
1
 76
1
 98
0
  0
LWPOLYLINE
  5
132
330
17
100
AcDbEntity
  8
TID-E-SUPPORT
100
AcDbPolyline
 90
4
 70
1
 10
6908.289308489554
 20
7775.0
 10
6986.231594830153
 20
7820.0
 10
6856.3277842624875
 20
7895.0
 10
6778.385497921888
 20
7850.0
  0
HATCH
  5
133
330
17
100
AcDbEntity
  8
TID-HATCH
 62
7
420
13487565
100
AcDbHatch
 10
0.0
 20
0.0
 30
0.0
210
0.0
220
0.0
230
1.0
  2
SOLID
 70
1
 71
0
 91
1
 92
3
 72
0
 73
1
 93
4
 10
6908.289308489554
 20
7640.0
 10
6986.231594830153
 20
7685.0
 10
6986.231594830153
 20
7820.0
 10
6908.289308489554
 20
7775.0
 97
0
 75
1
 76
1
 98
0
  0
LWPOLYLINE
  5
134
330
17
100
AcDbEntity
  8
TID-E-SUPPORT
100
AcDbPolyline
 90
4
 70
1
 10
6908.289308489554
 20
7640.0
 10
6986.231594830153
 20
7685.0
 10
6986.231594830153
 20
7820.0
 10
6908.289308489554
 20
7775.0
  0
HATCH
  5
135
330
17
100
AcDbEntity
  8
TID-HATCH
 62
7
420
11513775
100
AcDbHatch
 10
0.0
 20
0.0
 30
0.0
210
0.0
220
0.0
230
1.0
  2
SOLID
 70
1
 71
0
 91
1
 92
3
 72
0
 73
1
 93
4
 10
6908.289308489554
 20
7640.0
 10
6778.385497921888
 20
7715.0
 10
6778.385497921888
 20
7850.0
 10
6908.289308489554
 20
7775.0
 97
0
 75
1
 76
1
 98
0
  0
LWPOLYLINE
  5
136
330
17
100
AcDbEntity
  8
TID-E-SUPPORT
100
AcDbPolyline
 90
4
 70
1
 10
6908.289308489554
 20
7640.0
 10
6778.385497921888
 20
7715.0
 10
6778.385497921888
 20
7850.0
 10
6908.289308489554
 20
7775.0
  0
HATCH
  5
137
330
17
100
AcDbEntity
  8
TID-HATCH
 62
7
420
15527148
100
AcDbHatch
 10
0.0
 20
0.0
 30
0.0
210
0.0
220
0.0
230
1.0
  2
SOLID
 70
1
 71
0
 91
1
 92
3
 72
0
 73
1
 93
4
 10
7947.5197930308805
 20
8375.0
 10
8025.46207937148
 20
8420.0
 10
7895.558268803814
 20
8495.0
 10
7817.615982463214
 20
8450.0
 97
0
 75
1
 76
1
 98
0
  0
LWPOLYLINE
  5
138
330
17
100
AcDbEntity
  8
TID-E-SUPPORT
100
AcDbPolyline
 90
4
 70
1
 10
7947.5197930308805
 20
8375.0
 10
8025.46207937148
 20
8420.0
 10
7895.558268803814
 20
8495.0
 10
7817.615982463214
 20
8450.0
  0
HATCH
  5
139
330
17
100
AcDbEntity
  8
TID-HATCH
 62
7
420
13487565
100
AcDbHatch
 10
0.0
 20
0.0
 30
0.0
210
0.0
220
0.0
230
1.0
  2
SOLID
 70
1
 71
0
 91
1
 92
3
 72
0
 73
1
 93
4
 10
7947.5197930308805
 20
8240.0
 10
8025.46207937148
 20
8285.0
 10
8025.46207937148
 20
8420.0
 10
7947.5197930308805
 20
8375.0
 97
0
 75
1
 76
1
 98
0
  0
LWPOLYLINE
  5
13A
330
17
100
AcDbEntity
  8
TID-E-SUPPORT
100
AcDbPolyline
 90
4
 70
1
 10
7947.5197930308805
 20
8240.0
 10
8025.46207937148
 20
8285.0
 10
8025.46207937148
 20
8420.0
 10
7947.5197930308805
 20
8375.0
  0
HATCH
  5
13B
330
17
100
AcDbEntity
  8
TID-HATCH
 62
7
420
11513775
100
AcDbHatch
 10
0.0
 20
0.0
 30
0.0
210
0.0
220
0.0
230
1.0
  2
SOLID
 70
1
 71
0
 91
1
 92
3
 72
0
 73
1
 93
4
 10
7947.5197930308805
 20
8240.0
 10
7817.615982463214
 20
8315.0
 10
7817.615982463214
 20
8450.0
 10
7947.5197930308805
 20
8375.0
 97
0
 75
1
 76
1
 98
0
  0
LWPOLYLINE
  5
13C
330
17
100
AcDbEntity
  8
TID-E-SUPPORT
100
AcDbPolyline
 90
4
 70
1
 10
7947.5197930308805
 20
8240.0
 10
7817.615982463214
 20
8315.0
 10
7817.615982463214
 20
8450.0
 10
7947.5197930308805
 20
8375.0
  0
HATCH
  5
13D
330
17
100
AcDbEntity
  8
TID-HATCH
 62
7
420
15527148
100
AcDbHatch
 10
0.0
 20
0.0
 30
0.0
210
0.0
220
0.0
230
1.0
  2
SOLID
 70
1
 71
0
 91
1
 92
3
 72
0
 73
1
 93
4
 10
9090.673326026339
 20
9485.0
 10
9129.644469196639
 20
9507.5
 10
8999.740658628973
 20
9582.5
 10
8960.769515458673
 20
9560.0
 97
0
 75
1
 76
1
 98
0
  0
LWPOLYLINE
  5
13E
330
17
100
AcDbEntity
  8
TID-E-SUPPORT
100
AcDbPolyline
 90
4
 70
1
 10
9090.673326026339
 20
9485.0
 10
9129.644469196639
 20
9507.5
 10
8999.740658628973
 20
9582.5
 10
8960.769515458673
 20
9560.0
  0
HATCH
  5
13F
330
17
100
AcDbEntity
  8
TID-HATCH
 62
7
420
13487565
100
AcDbHatch
 10
0.0
 20
0.0
 30
0.0
210
0.0
220
0.0
230
1.0
  2
SOLID
 70
1
 71
0
 91
1
 92
3
 72
0
 73
1
 93
4
 10
9090.673326026339
 20
9395.0
 10
9129.644469196639
 20
9417.5
 10
9129.644469196639
 20
9507.5
 10
9090.673326026339
 20
9485.0
 97
0
 75
1
 76
1
 98
0
  0
LWPOLYLINE
  5
140
330
17
100
AcDbEntity
  8
TID-E-SUPPORT
100
AcDbPolyline
 90
4
 70
1
 10
9090.673326026339
 20
9395.0
 10
9129.644469196639
 20
9417.5
 10
9129.644469196639
 20
9507.5
 10
9090.673326026339
 20
9485.0
  0
HATCH
  5
141
330
17
100
AcDbEntity
  8
TID-HATCH
 62
7
420
11513775
100
AcDbHatch
 10
0.0
 20
0.0
 30
0.0
210
0.0
220
0.0
230
1.0
  2
SOLID
 70
1
 71
0
 91
1
 92
3
 72
0
 73
1
 93
4
 10
9090.673326026339
 20
9395.0
 10
8960.769515458673
 20
9470.0
 10
8960.769515458673
 20
9560.0
 10
9090.673326026339
 20
9485.0
 97
0
 75
1
 76
1
 98
0
  0
LWPOLYLINE
  5
142
330
17
100
AcDbEntity
  8
TID-E-SUPPORT
100
AcDbPolyline
 90
4
 70
1
 10
9090.673326026339
 20
9395.0
 10
8960.769515458673
 20
9470.0
 10
8960.769515458673
 20
9560.0
 10
9090.673326026339
 20
9485.0
  0
LWPOLYLINE
  5
143
330
17
100
AcDbEntity
  8
ELC-GROUNDING-70
100
AcDbPolyline
 90
2
 70
0
 43
60.0
 10
2543.521273415983
 20
9200.0
 10
2543.521273415983
 20
7985.0
  0
LWPOLYLINE
  5
144
330
17
100
AcDbEntity
  8
TID-HIDDEN
100
AcDbPolyline
 90
2
 70
0
 10
2543.521273415983
 20
7985.0
 10
2543.521273415983
 20
6185.0
  0
HATCH
  5
145
330
17
100
AcDbEntity
  8
TID-HATCH
 62
7
420
15527148
100
AcDbHatch
 10
0.0
 20
0.0
 30
0.0
210
0.0
220
0.0
230
1.0
  2
SOLID
 70
1
 71
0
 91
1
 92
3
 72
0
 73
1
 93
4
 10
2543.521273415983
 20
8015.0
 10
2699.405846097181
 20
8105.0
 10
2543.521273415983
 20
8195.0
 10
2387.6367007347835
 20
8105.0
 97
0
 75
1
 76
1
 98
0
  0
LWPOLYLINE
  5
146
330
17
100
AcDbEntity
  8
TID-E-CONDUIT
100
AcDbPolyline
 90
4
 70
1
 10
2543.521273415983
 20
8015.0
 10
2699.405846097181
 20
8105.0
 10
2543.521273415983
 20
8195.0
 10
2387.6367007347835
 20
8105.0
  0
HATCH
  5
147
330
17
100
AcDbEntity
  8
TID-HATCH
 62
7
420
13487565
100
AcDbHatch
 10
0.0
 20
0.0
 30
0.0
210
0.0
220
0.0
230
1.0
  2
SOLID
 70
1
 71
0
 91
1
 92
3
 72
0
 73
1
 93
4
 10
2543.521273415983
 20
7895.0
 10
2699.405846097181
 20
7985.0
 10
2699.405846097181
 20
8105.0
 10
2543.521273415983
 20
8015.0
 97
0
 75
1
 76
1
 98
0
  0
LWPOLYLINE
  5
148
330
17
100
AcDbEntity
  8
TID-E-CONDUIT
100
AcDbPolyline
 90
4
 70
1
 10
2543.521273415983
 20
7895.0
 10
2699.405846097181
 20
7985.0
 10
2699.405846097181
 20
8105.0
 10
2543.521273415983
 20
8015.0
  0
HATCH
  5
149
330
17
100
AcDbEntity
  8
TID-HATCH
 62
7
420
11513775
100
AcDbHatch
 10
0.0
 20
0.0
 30
0.0
210
0.0
220
0.0
230
1.0
  2
SOLID
 70
1
 71
0
 91
1
 92
3
 72
0
 73
1
 93
4
 10
2543.521273415983
 20
7895.0
 10
2387.6367007347835
 20
7985.0
 10
2387.6367007347835
 20
8105.0
 10
2543.521273415983
 20
8015.0
 97
0
 75
1
 76
1
 98
0
  0
LWPOLYLINE
  5
14A
330
17
100
AcDbEntity
  8
TID-E-CONDUIT
100
AcDbPolyline
 90
4
 70
1
 10
2543.521273415983
 20
7895.0
 10
2387.6367007347835
 20
7985.0
 10
2387.6367007347835
 20
8105.0
 10
2543.521273415983
 20
8015.0
  0
LINE
  5
14B
330
17
100
AcDbEntity
  8
TID-ELC TEXT
100
AcDbLine
 10
10779.422863405995
 20
15800.0
 30
0.0
 11
11679.422863405995
 21
16300.0
 31
0.0
  0
LINE
  5
14C
330
17
100
AcDbEntity
  8
TID-ELC TEXT
100
AcDbLine
 10
11679.422863405995
 20
16300.0
 30
0.0
 11
14679.422863405995
 21
16300.0
 31
0.0
  0
SOLID
  5
14D
330
17
100
AcDbEntity
  8
TID-ELC TEXT
100
AcDbTrace
 10
10779.422863405995
 20
15800.0
 30
0.0
 11
10888.447642316794
 21
15903.022315948785
 31
0.0
 12
10924.492637504065
 22
15838.141324611699
 32
0.0
 13
10924.492637504065
 23
15838.141324611699
 33
0.0
  0
TEXT
  5
14E
330
17
100
AcDbEntity
  8
TID-ELC TEXT
100
AcDbText
 10
11779.422863405995
 20
16387.5
 30
0.0
 40
250.0
  1
PIPE RACK COLUMN
  7
TX-AN
 41
0.9
 11
11779.422863405995
 21
16387.5
 31
0.0
100
AcDbText
  0
TEXT
  5
14F
330
17
100
AcDbEntity
  8
TID-ELC TEXT
100
AcDbText
 10
11779.422863405995
 20
15925.0
 30
0.0
 40
250.0
  1
(EXISTING STRUCTURE)
  7
TX-AN
 41
0.9
 11
11779.422863405995
 21
15925.0
 31
0.0
100
AcDbText
  0
LINE
  5
150
330
17
100
AcDbEntity
  8
TID-ELC TEXT
100
AcDbLine
 10
10000.0
 20
8900.0
 30
0.0
 11
11500.0
 21
7400.0
 31
0.0
  0
LINE
  5
151
330
17
100
AcDbEntity
  8
TID-ELC TEXT
100
AcDbLine
 10
11500.0
 20
7400.0
 30
0.0
 11
14087.5
 21
7400.0
 31
0.0
  0
SOLID
  5
152
330
17
100
AcDbEntity
  8
TID-ELC TEXT
100
AcDbTrace
 10
10000.0
 20
8900.0
 30
0.0
 11
10129.009834157312
 21
8823.47247102707
 31
0.0
 12
10076.52752897293
 22
8770.990165842688
 32
0.0
 13
10076.52752897293
 23
8770.990165842688
 33
0.0
  0
TEXT
  5
153
330
17
100
AcDbEntity
  8
TID-ELC TEXT
100
AcDbText
 10
11600.0
 20
7487.5
 30
0.0
 40
250.0
  1
CONCRETE PEDESTAL
  7
TX-AN
 41
0.9
 11
11600.0
 21
7487.5
 31
0.0
100
AcDbText
  0
LINE
  5
154
330
17
100
AcDbEntity
  8
TID-ELC TEXT
100
AcDbLine
 10
1426.348502534056
 20
14750.0
 30
0.0
 11
1126.348502534056
 21
15250.0
 31
0.0
  0
LINE
  5
155
330
17
100
AcDbEntity
  8
TID-ELC TEXT
100
AcDbLine
 10
1126.348502534056
 20
15250.0
 30
0.0
 11
326.348502534056
 21
15250.0
 31
0.0
  0
SOLID
  5
156
330
17
100
AcDbEntity
  8
TID-ELC TEXT
100
AcDbTrace
 10
1426.348502534056
 20
14750.0
 30
0.0
 11
1319.751231553282
 21
14855.532089050921
 31
0.0
 12
1383.3953750094904
 22
14893.718575124645
 32
0.0
 13
1383.3953750094904
 23
14893.718575124645
 33
0.0
  0
TEXT
  5
157
330
17
100
AcDbEntity
  8
TID-ELC TEXT
100
AcDbText
 10
376.348502534056
 20
15337.5
 30
0.0
 40
250.0
  1
WALL
  7
TX-AN
 41
0.9
 11
376.348502534056
 21
15337.5
 31
0.0
100
AcDbText
  0
LINE
  5
158
330
17
100
AcDbEntity
  8
TID-ELC TEXT
100
AcDbLine
 10
11299.038105676658
 20
7550.0
 30
0.0
 11
10699.038105676658
 21
6850.0
 31
0.0
  0
LINE
  5
159
330
17
100
AcDbEntity
  8
TID-ELC TEXT
100
AcDbLine
 10
10699.038105676658
 20
6850.0
 30
0.0
 11
10036.538105676658
 21
6850.0
 31
0.0
  0
SOLID
  5
15A
330
17
100
AcDbEntity
  8
TID-ELC TEXT
100
AcDbTrace
 10
11299.038105676658
 20
7550.0
 30
0.0
 11
11232.630592251413
 21
7415.500772639112
 31
0.0
 12
11176.27766539682
 22
7463.803281371621
 32
0.0
 13
11176.27766539682
 23
7463.803281371621
 33
0.0
  0
TEXT
  5
15B
330
17
100
AcDbEntity
  8
TID-ELC TEXT
100
AcDbText
 10
10086.538105676658
 20
6937.5
 30
0.0
 40
250.0
  1
FFL
  7
TX-AN
 41
0.9
 11
10086.538105676658
 21
6937.5
 31
0.0
100
AcDbText
  0
LINE
  5
15C
330
17
100
AcDbEntity
  8
TID-ELC TEXT
100
AcDbLine
 10
2543.521273415983
 20
6485.0
 30
0.0
 11
2843.521273415983
 21
5585.0
 31
0.0
  0
LINE
  5
15D
330
17
100
AcDbEntity
  8
TID-ELC TEXT
100
AcDbLine
 10
2843.521273415983
 20
5585.0
 30
0.0
 11
5018.521273415983
 21
5585.0
 31
0.0
  0
SOLID
  5
15E
330
17
100
AcDbEntity
  8
TID-ELC TEXT
100
AcDbTrace
 10
2543.521273415983
 20
6485.0
 30
0.0
 11
2624.687025605962
 21
6358.856745438232
 31
0.0
 12
2554.274624401061
 22
6335.385945036598
 32
0.0
 13
2554.274624401061
 23
6335.385945036598
 33
0.0
  0
TEXT
  5
15F
330
17
100
AcDbEntity
  8
TID-ELC TEXT
100
AcDbText
 10
2943.521273415983
 20
5672.5
 30
0.0
 40
250.0
  1
TO MAIN
  7
TX-AN
 41
0.9
 11
2943.521273415983
 21
5672.5
 31
0.0
100
AcDbText
  0
TEXT
  5
160
330
17
100
AcDbEntity
  8
TID-ELC TEXT
100
AcDbText
 10
2943.521273415983
 20
5210.0
 30
0.0
 40
250.0
  1
GROUNDING GRID
  7
TX-AN
 41
0.9
 11
2943.521273415983
 21
5210.0
 31
0.0
100
AcDbText
  0
CIRCLE
  5
161
330
17
100
AcDbEntity
  8
TID-ELC TEXT
100
AcDbCircle
 10
11053.13089164723
 20
11837.0
 30
0.0
 40
225.0
  0
TEXT
  5
162
330
17
100
AcDbEntity
  8
TID-ELC TEXT
100
AcDbText
 10
11053.13089164723
 20
11837.0
 30
0.0
 40
250.0
  1
1
  7
TX-AN
 41
0.9
 72
1
 11
11053.13089164723
 21
11837.0
 31
0.0
100
AcDbText
 73
2
  0
LINE
  5
163
330
17
100
AcDbEntity
  8
TID-ELC TEXT
100
AcDbLine
 10
10860.194983361907
 20
11721.238455028806
 30
0.0
 11
9553.13089164723
 21
10937.0
 31
0.0
  0
SOLID
  5
164
330
17
100
AcDbEntity
  8
TID-ELC TEXT
100
AcDbTrace
 10
9553.13089164723
 20
10937.0
 30
0.0
 11
9658.662980698151
 21
11043.597270980774
 31
0.0
 12
9696.849466771875
 22
10979.953127524566
 32
0.0
 13
9696.849466771875
 23
10979.953127524566
 33
0.0
  0
CIRCLE
  5
165
330
17
100
AcDbEntity
  8
TID-ELC TEXT
100
AcDbCircle
 10
8001.9237886466835
 20
6675.0
 30
0.0
 40
225.0
  0
TEXT
  5
166
330
17
100
AcDbEntity
  8
TID-ELC TEXT
100
AcDbText
 10
8001.9237886466835
 20
6675.0
 30
0.0
 40
250.0
  1
2
  7
TX-AN
 41
0.9
 72
1
 11
8001.9237886466835
 21
6675.0
 31
0.0
100
AcDbText
 73
2
  0
LINE
  5
167
330
17
100
AcDbEntity
  8
TID-ELC TEXT
100
AcDbLine
 10
7913.291946466371
 20
6881.807631754063
 30
0.0
 11
7401.9237886466835
 21
8075.0
 31
0.0
  0
SOLID
  5
168
330
17
100
AcDbEntity
  8
TID-ELC TEXT
100
AcDbTrace
 10
7401.9237886466835
 20
8075.0
 30
0.0
 11
7493.284801811757
 21
7956.032923573573
 31
0.0
 12
7425.064765945081
 22
7926.795765344998
 32
0.0
 13
7425.064765945081
 23
7926.795765344998
 33
0.0
  0
CIRCLE
  5
169
330
17
100
AcDbEntity
  8
TID-ELC TEXT
100
AcDbCircle
 10
1295.4827976430497
 20
9980.0
 30
0.0
 40
225.0
  0
TEXT
  5
16A
330
17
100
AcDbEntity
  8
TID-ELC TEXT
100
AcDbText
 10
1295.4827976430497
 20
9980.0
 30
0.0
 40
250.0
  1
3
  7
TX-AN
 41
0.9
 72
1
 11
1295.4827976430497
 21
9980.0
 31
0.0
100
AcDbText
 73
2
  0
LINE
  5
16B
330
17
100
AcDbEntity
  8
TID-ELC TEXT
100
AcDbLine
 10
1514.7208166743392
 20
9929.406610992779
 30
0.0
 11
2595.4827976430497
 21
9680.0
 31
0.0
  0
SOLID
  5
16C
330
17
100
AcDbEntity
  8
TID-ELC TEXT
100
AcDbTrace
 10
2595.4827976430497
 20
9680.0
 30
0.0
 11
2445.523167840955
 21
9676.520139425384
 31
0.0
 12
2462.2125075109425
 22
9748.840611328664
 32
0.0
 13
2462.2125075109425
 23
9748.840611328664
 33
0.0
  0
CIRCLE
  5
16D
330
17
100
AcDbEntity
  8
TID-ELC TEXT
100
AcDbCircle
 10
11019.355900899636
 20
12842.5
 30
0.0
 40
225.0
  0
TEXT
  5
16E
330
17
100
AcDbEntity
  8
TID-ELC TEXT
100
AcDbText
 10
11019.355900899636
 20
12842.5
 30
0.0
 40
250.0
  1
4
  7
TX-AN
 41
0.9
 72
1
 11
11019.355900899636
 21
12842.5
 31
0.0
100
AcDbText
 73
2
  0
LINE
  5
16F
330
17
100
AcDbEntity
  8
TID-ELC TEXT
100
AcDbLine
 10
10870.491032555095
 20
12673.786482542855
 30
0.0
 11
9519.355900899636
 21
11142.5
 31
0.0
  0
SOLID
  5
170
330
17
100
AcDbEntity
  8
TID-ELC TEXT
100
AcDbTrace
 10
9519.355900899636
 20
11142.5
 30
0.0
 11
9587.686986164095
 21
11276.032253731379
 31
0.0
 12
9643.34084242897
 22
11226.925909968255
 32
0.0
 13
9643.34084242897
 23
11226.925909968255
 33
0.0
  0
CIRCLE
  5
171
330
17
100
AcDbEntity
  8
TID-ELC TEXT
100
AcDbCircle
 10
3967.578246882832
 20
6545.0
 30
0.0
 40
225.0
  0
TEXT
  5
172
330
17
100
AcDbEntity
  8
TID-ELC TEXT
100
AcDbText
 10
3967.578246882832
 20
6545.0
 30
0.0
 40
250.0
  1
5
  7
TX-AN
 41
0.9
 72
1
 11
3967.578246882832
 21
6545.0
 31
0.0
100
AcDbText
 73
2
  0
LINE
  5
173
330
17
100
AcDbEntity
  8
TID-ELC TEXT
100
AcDbLine
 10
4147.578246882832
 20
6680.0
 30
0.0
 11
5167.578246882832
 21
7445.0
 31
0.0
  0
SOLID
  5
174
330
17
100
AcDbEntity
  8
TID-ELC TEXT
100
AcDbTrace
 10
5167.578246882832
 20
7445.0
 30
0.0
 11
5073.5751126104615
 21
7328.1094069354995
 31
0.0
 12
5029.0423999446475
 22
7387.486357156585
 32
0.0
 13
5029.0423999446475
 23
7387.486357156585
 33
0.0
  0
CIRCLE
  5
175
330
17
100
AcDbEntity
  8
TID-ELC TEXT
100
AcDbCircle
 10
1243.5212734159832
 20
8285.0
 30
0.0
 40
225.0
  0
TEXT
  5
176
330
17
100
AcDbEntity
  8
TID-ELC TEXT
100
AcDbText
 10
1243.5212734159832
 20
8285.0
 30
0.0
 40
250.0
  1
6
  7
TX-AN
 41
0.9
 72
1
 11
1243.5212734159832
 21
8285.0
 31
0.0
100
AcDbText
 73
2
  0
LINE
  5
177
330
17
100
AcDbEntity
  8
TID-ELC TEXT
100
AcDbLine
 10
1462.7592924472726
 20
8335.593389007221
 30
0.0
 11
2543.521273415983
 21
8585.0
 31
0.0
  0
SOLID
  5
178
330
17
100
AcDbEntity
  8
TID-ELC TEXT
100
AcDbTrace
 10
2543.521273415983
 20
8585.0
 30
0.0
 11
2410.250983283876
 21
8516.159388671336
 31
0.0
 12
2393.5616436138885
 22
8588.479860574616
 32
0.0
 13
2393.5616436138885
 23
8588.479860574616
 33
0.0
  0
CIRCLE
  5
179
330
17
100
AcDbEntity
  8
TID-E-TITLE
100
AcDbCircle
 10
9571.317425126703
 20
10872.5
 30
0.0
 40
420.0
  0
TEXT
  5
17A
330
17
100
AcDbEntity
  8
TID-E-TITLE
100
AcDbText
 10
7371.317425126703
 20
12372.5
 30
0.0
 40
250.0
  1
DETAIL-A
  7
TX-AN
 41
0.9
 11
7371.317425126703
 21
12372.5
 31
0.0
100
AcDbText
  0
LINE
  5
17B
330
17
100
AcDbEntity
  8
TID-E-TITLE
100
AcDbLine
 10
8421.317425126703
 20
12322.5
 30
0.0
 11
9271.317425126703
 21
11162.5
 31
0.0
  0
TEXT
  5
17C
330
17
100
AcDbEntity
  8
TID-E-TITLE
100
AcDbText
 10
1200.0
 20
4700.0
 30
0.0
 40
300.0
  1
DETAIL (CONNECTION EARTH BOX TO PIPE RACK) - ISOMETRIC
  7
TX-AN
 41
0.9
 11
1200.0
 21
4700.0
 31
0.0
100
AcDbText
  0
LINE
  5
17D
330
17
100
AcDbEntity
  8
TID-E-TITLE
100
AcDbLine
 10
1200.0
 20
4610.0
 30
0.0
 11
11244.0
 21
4610.0
 31
0.0
  0
TEXT
  5
17E
330
17
100
AcDbEntity
  8
TID-ELC TEXT
100
AcDbText
 10
1200.0
 20
4340.0
 30
0.0
 40
150.0
  1
SCALE  :  NTS
  7
TX-AN
 41
0.9
 11
1200.0
 21
4340.0
 31
0.0
100
AcDbText
  0
HATCH
  5
17F
330
17
100
AcDbEntity
  8
TID-HATCH
 62
7
420
3960510
100
AcDbHatch
 10
0.0
 20
0.0
 30
0.0
210
0.0
220
0.0
230
1.0
  2
SOLID
 70
1
 71
0
 91
1
 92
3
 72
0
 73
1
 93
4
 10
22600.0
 20
11960.0
 10
22930.0
 20
11960.0
 10
22930.0
 20
19000.0
 10
22600.0
 20
19000.0
 97
0
 75
1
 76
1
 98
0
  0
HATCH
  5
180
330
17
100
AcDbEntity
  8
TID-HATCH
 62
7
100
AcDbHatch
 10
0.0
 20
0.0
 30
0.0
210
0.0
220
0.0
230
1.0
  2
ANSI31
 70
0
 71
0
 91
1
 92
3
 72
0
 73
1
 93
4
 10
22600.0
 20
11960.0
 10
22930.0
 20
11960.0
 10
22930.0
 20
19000.0
 10
22600.0
 20
19000.0
 97
0
 75
1
 76
1
 52
0.0
 41
10.0
 77
0
 78
1
 53
45.0
 43
0.0
 44
0.0
 45
-22.450640303
 46
22.450640303
 79
0
 98
0
  0
LWPOLYLINE
  5
181
330
17
100
AcDbEntity
  8
TID-STRUCTURE
100
AcDbPolyline
 90
4
 70
1
 10
22600.0
 20
11960.0
 10
22930.0
 20
11960.0
 10
22930.0
 20
19000.0
 10
22600.0
 20
19000.0
  0
LWPOLYLINE
  5
182
330
17
100
AcDbEntity
  8
TID-STRUCTURE
100
AcDbPolyline
 90
2
 70
0
 10
22930.0
 20
11960.0
 10
23920.0
 20
11960.0
  0
LWPOLYLINE
  5
183
330
17
100
AcDbEntity
  8
TID-STRUCTURE
100
AcDbPolyline
 90
2
 70
0
 10
22930.0
 20
19000.0
 10
23920.0
 20
19000.0
  0
HATCH
  5
184
330
17
100
AcDbEntity
  8
TID-HATCH
 62
7
420
14128720
100
AcDbHatch
 10
0.0
 20
0.0
 30
0.0
210
0.0
220
0.0
230
1.0
  2
SOLID
 70
1
 71
0
 91
1
 92
3
 72
0
 73
1
 93
4
 10
22380.0
 20
14380.0
 10
22600.0
 20
14380.0
 10
22600.0
 20
17020.0
 10
22380.0
 20
17020.0
 97
0
 75
1
 76
1
 98
0
  0
LWPOLYLINE
  5
185
330
17
100
AcDbEntity
  8
ELC-GROUNDING
100
AcDbPolyline
 90
4
 70
1
 10
22380.0
 20
14380.0
 10
22600.0
 20
14380.0
 10
22600.0
 20
17020.0
 10
22380.0
 20
17020.0
  0
HATCH
  5
186
330
17
100
AcDbEntity
  8
TID-HATCH
 62
7
420
2631720
100
AcDbHatch
 10
0.0
 20
0.0
 30
0.0
210
0.0
220
0.0
230
1.0
  2
SOLID
 70
1
 71
0
 91
1
 92
3
 72
0
 73
1
 93
3
 10
22600.0
 20
14380.0
 10
22424.0
 20
14380.0
 10
22600.0
 20
14204.0
 97
0
 75
1
 76
1
 98
0
  0
HATCH
  5
187
330
17
100
AcDbEntity
  8
TID-HATCH
 62
7
420
2631720
100
AcDbHatch
 10
0.0
 20
0.0
 30
0.0
210
0.0
220
0.0
230
1.0
  2
SOLID
 70
1
 71
0
 91
1
 92
3
 72
0
 73
1
 93
3
 10
22600.0
 20
17020.0
 10
22424.0
 20
17020.0
 10
22600.0
 20
17196.0
 97
0
 75
1
 76
1
 98
0
  0
HATCH
  5
188
330
17
100
AcDbEntity
  8
TID-HATCH
 62
7
420
15777400
100
AcDbHatch
 10
0.0
 20
0.0
 30
0.0
210
0.0
220
0.0
230
1.0
  2
SOLID
 70
1
 71
0
 91
1
 92
3
 72
0
 73
1
 93
4
 10
22248.0
 20
14820.0
 10
22380.0
 20
14820.0
 10
22380.0
 20
16580.0
 10
22248.0
 20
16580.0
 97
0
 75
1
 76
1
 98
0
  0
LWPOLYLINE
  5
189
330
17
100
AcDbEntity
  8
ELC-GROUNDING
100
AcDbPolyline
 90
4
 70
1
 10
22248.0
 20
14820.0
 10
22380.0
 20
14820.0
 10
22380.0
 20
16580.0
 10
22248.0
 20
16580.0
  0
HATCH
  5
18A
330
17
100
AcDbEntity
  8
TID-HATCH
 62
7
420
15777400
100
AcDbHatch
 10
0.0
 20
0.0
 30
0.0
210
0.0
220
0.0
230
1.0
  2
SOLID
 70
1
 71
0
 91
1
 92
3
 72
0
 73
1
 93
4
 10
22160.0
 20
12840.0
 10
22468.0
 20
12840.0
 10
22380.0
 20
14820.0
 10
22248.0
 20
14820.0
 97
0
 75
1
 76
1
 98
0
  0
LWPOLYLINE
  5
18B
330
17
100
AcDbEntity
  8
ELC-GROUNDING
100
AcDbPolyline
 90
4
 70
1
 10
22160.0
 20
12840.0
 10
22468.0
 20
12840.0
 10
22380.0
 20
14820.0
 10
22248.0
 20
14820.0
  0
LINE
  5
18C
330
17
100
AcDbEntity
  8
ELC-GROUNDING
100
AcDbLine
 10
22182.0
 20
13390.0
 30
0.0
 11
22446.0
 21
13390.0
 31
0.0
  0
LINE
  5
18D
330
17
100
AcDbEntity
  8
ELC-GROUNDING
100
AcDbLine
 10
22182.0
 20
13940.0
 30
0.0
 11
22446.0
 21
13940.0
 31
0.0
  0
LINE
  5
18E
330
17
100
AcDbEntity
  8
ELC-GROUNDING
100
AcDbLine
 10
22182.0
 20
14490.0
 30
0.0
 11
22446.0
 21
14490.0
 31
0.0
  0
LWPOLYLINE
  5
18F
330
17
100
AcDbEntity
  8
ELC-GROUNDING
100
AcDbPolyline
 90
4
 70
0
 43
220.0
 10
22314.0
 20
12840.0
 10
22314.0
 20
12400.0
 10
22116.0
 20
12070.0
 10
21390.0
 20
11960.0
  0
LWPOLYLINE
  5
190
330
17
100
AcDbEntity
  8
TID-STRUCTURE
100
AcDbPolyline
 90
4
 70
1
 10
21940.0
 20
15832.0
 10
22930.0
 20
15832.0
 10
22930.0
 20
16096.0
 10
21940.0
 20
16096.0
  0
HATCH
  5
191
330
17
100
AcDbEntity
  8
TID-HATCH
 62
7
420
11184810
100
AcDbHatch
 10
0.0
 20
0.0
 30
0.0
210
0.0
220
0.0
230
1.0
  2
SOLID
 70
1
 71
0
 91
1
 92
3
 72
0
 73
1
 93
4
 10
22182.0
 20
15656.0
 10
22248.0
 20
15656.0
 10
22248.0
 20
16272.0
 10
22182.0
 20
16272.0
 97
0
 75
1
 76
1
 98
0
  0
LWPOLYLINE
  5
192
330
17
100
AcDbEntity
  8
TID-STRUCTURE
100
AcDbPolyline
 90
4
 70
1
 10
22182.0
 20
15656.0
 10
22248.0
 20
15656.0
 10
22248.0
 20
16272.0
 10
22182.0
 20
16272.0
  0
HATCH
  5
193
330
17
100
AcDbEntity
  8
TID-HATCH
 62
7
420
11184810
100
AcDbHatch
 10
0.0
 20
0.0
 30
0.0
210
0.0
220
0.0
230
1.0
  2
SOLID
 70
1
 71
0
 91
1
 92
3
 72
0
 73
1
 93
4
 10
22116.0
 20
15700.0
 10
22182.0
 20
15700.0
 10
22182.0
 20
16228.0
 10
22116.0
 20
16228.0
 97
0
 75
1
 76
1
 98
0
  0
LWPOLYLINE
  5
194
330
17
100
AcDbEntity
  8
TID-STRUCTURE
100
AcDbPolyline
 90
4
 70
1
 10
22116.0
 20
15700.0
 10
22182.0
 20
15700.0
 10
22182.0
 20
16228.0
 10
22116.0
 20
16228.0
  0
HATCH
  5
195
330
17
100
AcDbEntity
  8
TID-HATCH
 62
7
420
11184810
100
AcDbHatch
 10
0.0
 20
0.0
 30
0.0
210
0.0
220
0.0
230
1.0
  2
SOLID
 70
1
 71
0
 91
1
 92
3
 72
0
 73
1
 93
4
 10
21940.0
 20
15744.0
 10
22116.0
 20
15744.0
 10
22116.0
 20
16184.0
 10
21940.0
 20
16184.0
 97
0
 75
1
 76
1
 98
0
  0
LWPOLYLINE
  5
196
330
17
100
AcDbEntity
  8
TID-STRUCTURE
100
AcDbPolyline
 90
4
 70
1
 10
21940.0
 20
15744.0
 10
22116.0
 20
15744.0
 10
22116.0
 20
16184.0
 10
21940.0
 20
16184.0
  0
LINE
  5
197
330
17
100
AcDbEntity
  8
TID-HIDDEN
100
AcDbLine
 10
21720.0
 20
15964.0
 30
0.0
 11
23150.0
 21
15964.0
 31
0.0
  0
LINE
  5
198
330
17
100
AcDbEntity
  8
TID-ELC TEXT
100
AcDbLine
 10
21984.0
 20
16184.0
 30
0.0
 11
20784.0
 21
16484.0
 31
0.0
  0
LINE
  5
199
330
17
100
AcDbEntity
  8
TID-ELC TEXT
100
AcDbLine
 10
20784.0
 20
16484.0
 30
0.0
 11
17371.5
 21
16484.0
 31
0.0
  0
SOLID
  5
19A
330
17
100
AcDbEntity
  8
TID-ELC TEXT
100
AcDbTrace
 10
21984.0
 20
16184.0
 30
0.0
 11
21834.001891032825
 21
16183.246802634203
 31
0.0
 12
21852.003173201105
 22
16255.251931307313
 32
0.0
 13
21852.003173201105
 23
16255.251931307313
 33
0.0
  0
TEXT
  5
19B
330
17
100
AcDbEntity
  8
TID-ELC TEXT
100
AcDbText
 10
17421.5
 20
16571.5
 30
0.0
 40
250.0
  1
BOLT M10 c/w NUT,
  7
TX-AN
 41
0.9
 11
17421.5
 21
16571.5
 31
0.0
100
AcDbText
  0
TEXT
  5
19C
330
17
100
AcDbEntity
  8
TID-ELC TEXT
100
AcDbText
 10
17421.5
 20
16109.0
 30
0.0
 40
250.0
  1
FLAT & LOCK WASHER (SS)
  7
TX-AN
 41
0.9
 11
17421.5
 21
16109.0
 31
0.0
100
AcDbText
  0
LINE
  5
19D
330
17
100
AcDbEntity
  8
TID-ELC TEXT
100
AcDbLine
 10
22314.0
 20
16580.0
 30
0.0
 11
21414.0
 21
18080.0
 31
0.0
  0
LINE
  5
19E
330
17
100
AcDbEntity
  8
TID-ELC TEXT
100
AcDbLine
 10
21414.0
 20
18080.0
 30
0.0
 11
18276.5
 21
18080.0
 31
0.0
  0
SOLID
  5
19F
330
17
100
AcDbEntity
  8
TID-ELC TEXT
100
AcDbTrace
 10
22314.0
 20
16580.0
 30
0.0
 11
22207.402729019224
 21
16685.53208905092
 31
0.0
 12
22271.046872475436
 22
16723.718575124647
 32
0.0
 13
22271.046872475436
 23
16723.718575124647
 33
0.0
  0
TEXT
  5
1A0
330
17
100
AcDbEntity
  8
TID-ELC TEXT
100
AcDbText
 10
18326.5
 20
18167.5
 30
0.0
 40
250.0
  1
COMPRESSION LUG 35mm²
  7
TX-AN
 41
0.9
 11
18326.5
 21
18167.5
 31
0.0
100
AcDbText
  0
LINE
  5
1A1
330
17
100
AcDbEntity
  8
TID-ELC TEXT
100
AcDbLine
 10
22490.0
 20
16910.0
 30
0.0
 11
23390.0
 21
19510.0
 31
0.0
  0
LINE
  5
1A2
330
17
100
AcDbEntity
  8
TID-ELC TEXT
100
AcDbLine
 10
23390.0
 20
19510.0
 30
0.0
 11
27215.0
 21
19510.0
 31
0.0
  0
SOLID
  5
1A3
330
17
100
AcDbEntity
  8
TID-ELC TEXT
100
AcDbTrace
 10
22490.0
 20
16910.0
 30
0.0
 11
22502.47222889145
 21
17059.480579027775
 31
0.0
 12
22572.610217694302
 22
17035.202044442172
 32
0.0
 13
22572.610217694302
 23
17035.202044442172
 33
0.0
  0
TEXT
  5
1A4
330
17
100
AcDbEntity
  8
TID-ELC TEXT
100
AcDbText
 10
23490.0
 20
19597.5
 30
0.0
 40
250.0
  1
GROUNDING BOSS 60x100x10mm
  7
TX-AN
 41
0.9
 11
23490.0
 21
19597.5
 31
0.0
100
AcDbText
  0
TEXT
  5
1A5
330
17
100
AcDbEntity
  8
TID-ELC TEXT
100
AcDbText
 10
23490.0
 20
19135.0
 30
0.0
 40
250.0
  1
WELDED ALL AROUND
  7
TX-AN
 41
0.9
 11
23490.0
 21
19135.0
 31
0.0
100
AcDbText
  0
LINE
  5
1A6
330
17
100
AcDbEntity
  8
TID-ELC TEXT
100
AcDbLine
 10
21500.0
 20
12004.0
 30
0.0
 11
21200.0
 21
11104.0
 31
0.0
  0
LINE
  5
1A7
330
17
100
AcDbEntity
  8
TID-ELC TEXT
100
AcDbLine
 10
21200.0
 20
11104.0
 30
0.0
 11
17650.0
 21
11104.0
 31
0.0
  0
SOLID
  5
1A8
330
17
100
AcDbEntity
  8
TID-ELC TEXT
100
AcDbTrace
 10
21500.0
 20
12004.0
 30
0.0
 11
21489.246649014924
 21
11854.385945036598
 31
0.0
 12
21418.83424781002
 22
11877.856745438232
 32
0.0
 13
21418.83424781002
 23
11877.856745438232
 33
0.0
  0
TEXT
  5
1A9
330
17
100
AcDbEntity
  8
TID-ELC TEXT
100
AcDbText
 10
17700.0
 20
11191.5
 30
0.0
 40
250.0
  1
BC 35mm² TO EARTHING BOX
  7
TX-AN
 41
0.9
 11
17700.0
 21
11191.5
 31
0.0
100
AcDbText
  0
LINE
  5
1AA
330
17
100
AcDbEntity
  8
TID-ELC TEXT
100
AcDbLine
 10
22930.0
 20
12620.0
 30
0.0
 11
23630.0
 21
12240.0
 31
0.0
  0
LINE
  5
1AB
330
17
100
AcDbEntity
  8
TID-ELC TEXT
100
AcDbLine
 10
23630.0
 20
12240.0
 30
0.0
 11
27592.5
 21
12240.0
 31
0.0
  0
SOLID
  5
1AC
330
17
100
AcDbEntity
  8
TID-ELC TEXT
100
AcDbTrace
 10
22930.0
 20
12620.0
 30
0.0
 11
23075.43496339218
 21
12583.275737950029
 31
0.0
 12
23040.024638648993
 22
12518.046192370475
 32
0.0
 13
23040.024638648993
 23
12518.046192370475
 33
0.0
  0
TEXT
  5
1AD
330
17
100
AcDbEntity
  8
TID-ELC TEXT
100
AcDbText
 10
23730.0
 20
12327.5
 30
0.0
 40
250.0
  1
PIPE RACK COLUMN
  7
TX-AN
 41
0.9
 11
23730.0
 21
12327.5
 31
0.0
100
AcDbText
  0
TEXT
  5
1AE
330
17
100
AcDbEntity
  8
TID-ELC TEXT
100
AcDbText
 10
23730.0
 20
11865.0
 30
0.0
 40
250.0
  1
(TOUCH UP PAINT AFTER WELD)
  7
TX-AN
 41
0.9
 11
23730.0
 21
11865.0
 31
0.0
100
AcDbText
  0
TEXT
  5
1AF
330
17
100
AcDbEntity
  8
TID-ELC TEXT
100
AcDbText
 10
21700.0
 20
19900.0
 30
0.0
 40
300.0
  1
%%UDETAIL - A
  7
TX-AN
 41
0.9
 11
21700.0
 21
19900.0
 31
0.0
100
AcDbText
  0
HATCH
  5
1B0
330
17
100
AcDbEntity
  8
TID-HATCH
 62
7
420
14803425
100
AcDbHatch
 10
0.0
 20
0.0
 30
0.0
210
0.0
220
0.0
230
1.0
  2
SOLID
 70
1
 71
0
 91
1
 92
3
 72
0
 73
1
 93
4
 10
18800.0
 20
5900.0
 10
21800.0
 20
5900.0
 10
21800.0
 20
8000.0
 10
18800.0
 20
8000.0
 97
0
 75
1
 76
1
 98
0
  0
LWPOLYLINE
  5
1B1
330
17
100
AcDbEntity
  8
TID-E-CONTROL BOX
100
AcDbPolyline
 90
4
 70
1
 10
18800.0
 20
5900.0
 10
21800.0
 20
5900.0
 10
21800.0
 20
8000.0
 10
18800.0
 20
8000.0
  0
LWPOLYLINE
  5
1B2
330
17
100
AcDbEntity
  8
TID-E-CONTROL BOX
100
AcDbPolyline
 90
4
 70
1
 10
18872.0
 20
5972.0
 10
21728.0
 20
5972.0
 10
21728.0
 20
7928.0
 10
18872.0
 20
7928.0
  0
HATCH
  5
1B3
330
17
100
AcDbEntity
  8
TID-HATCH
 62
7
420
13777980
100
AcDbHatch
 10
0.0
 20
0.0
 30
0.0
210
0.0
220
0.0
230
1.0
  2
SOLID
 70
1
 71
0
 91
1
 92
3
 72
0
 73
1
 93
4
 10
19292.0
 20
6860.0
 10
19508.0
 20
6860.0
 10
19508.0
 20
7190.0
 10
19292.0
 20
7190.0
 97
0
 75
1
 76
1
 98
0
  0
LWPOLYLINE
  5
1B4
330
17
100
AcDbEntity
  8
TID-E-CONTROL BOX
100
AcDbPolyline
 90
4
 70
1
 10
19292.0
 20
6860.0
 10
19508.0
 20
6860.0
 10
19508.0
 20
7190.0
 10
19292.0
 20
7190.0
  0
HATCH
  5
1B5
330
17
100
AcDbEntity
  8
TID-HATCH
 62
7
420
13777980
100
AcDbHatch
 10
0.0
 20
0.0
 30
0.0
210
0.0
220
0.0
230
1.0
  2
SOLID
 70
1
 71
0
 91
1
 92
3
 72
0
 73
1
 93
4
 10
21092.0
 20
6860.0
 10
21308.0
 20
6860.0
 10
21308.0
 20
7190.0
 10
21092.0
 20
7190.0
 97
0
 75
1
 76
1
 98
0
  0
LWPOLYLINE
  5
1B6
330
17
100
AcDbEntity
  8
TID-E-CONTROL BOX
100
AcDbPolyline
 90
4
 70
1
 10
21092.0
 20
6860.0
 10
21308.0
 20
6860.0
 10
21308.0
 20
7190.0
 10
21092.0
 20
7190.0
  0
HATCH
  5
1B7
330
17
100
AcDbEntity
  8
TID-HATCH
 62
7
420
14128720
100
AcDbHatch
 10
0.0
 20
0.0
 30
0.0
210
0.0
220
0.0
230
1.0
  2
SOLID
 70
1
 71
0
 91
1
 92
3
 72
0
 73
1
 93
4
 10
19220.0
 20
7190.0
 10
21380.0
 20
7190.0
 10
21380.0
 20
7490.0
 10
19220.0
 20
7490.0
 97
0
 75
1
 76
1
 98
0
  0
LWPOLYLINE
  5
1B8
330
17
100
AcDbEntity
  8
ELC-GROUNDING
100
AcDbPolyline
 90
4
 70
1
 10
19220.0
 20
7190.0
 10
21380.0
 20
7190.0
 10
21380.0
 20
7490.0
 10
19220.0
 20
7490.0
  0
CIRCLE
  5
1B9
330
17
100
AcDbEntity
  8
ELC-GROUNDING
100
AcDbCircle
 10
19460.0
 20
7340.0
 30
0.0
 40
30.0
  0
CIRCLE
  5
1BA
330
17
100
AcDbEntity
  8
ELC-GROUNDING
100
AcDbCircle
 10
19730.0
 20
7340.0
 30
0.0
 40
30.0
  0
CIRCLE
  5
1BB
330
17
100
AcDbEntity
  8
ELC-GROUNDING
100
AcDbCircle
 10
20000.0
 20
7340.0
 30
0.0
 40
30.0
  0
CIRCLE
  5
1BC
330
17
100
AcDbEntity
  8
ELC-GROUNDING
100
AcDbCircle
 10
20270.0
 20
7340.0
 30
0.0
 40
30.0
  0
CIRCLE
  5
1BD
330
17
100
AcDbEntity
  8
ELC-GROUNDING
100
AcDbCircle
 10
20540.0
 20
7340.0
 30
0.0
 40
30.0
  0
CIRCLE
  5
1BE
330
17
100
AcDbEntity
  8
ELC-GROUNDING
100
AcDbCircle
 10
20810.0
 20
7340.0
 30
0.0
 40
30.0
  0
CIRCLE
  5
1BF
330
17
100
AcDbEntity
  8
ELC-GROUNDING
100
AcDbCircle
 10
21080.0
 20
7340.0
 30
0.0
 40
30.0
  0
HATCH
  5
1C0
330
17
100
AcDbEntity
  8
TID-HATCH
 62
7
420
15777400
100
AcDbHatch
 10
0.0
 20
0.0
 30
0.0
210
0.0
220
0.0
230
1.0
  2
SOLID
 70
1
 71
0
 91
1
 92
3
 72
0
 73
1
 93
4
 10
21068.0
 20
6980.0
 10
21212.0
 20
6980.0
 10
21212.0
 20
7340.0
 10
21068.0
 20
7340.0
 97
0
 75
1
 76
1
 98
0
  0
LWPOLYLINE
  5
1C1
330
17
100
AcDbEntity
  8
ELC-GROUNDING
100
AcDbPolyline
 90
4
 70
1
 10
21068.0
 20
6980.0
 10
21212.0
 20
6980.0
 10
21212.0
 20
7340.0
 10
21068.0
 20
7340.0
  0
LWPOLYLINE
  5
1C2
330
17
100
AcDbEntity
  8
ELC-GROUNDING
100
AcDbPolyline
 90
3
 70
0
 43
36.0
 10
21140.0
 20
6980.0
 10
21140.0
 20
5900.0
 10
21140.0
 20
5630.0
  0
LWPOLYLINE
  5
1C3
330
17
100
AcDbEntity
  8
TID-E-CONTROL BOX
100
AcDbPolyline
 90
4
 70
1
 10
21020.0
 20
5630.0
 10
21260.0
 20
5630.0
 10
21260.0
 20
5900.0
 10
21020.0
 20
5900.0
  0
HATCH
  5
1C4
330
17
100
AcDbEntity
  8
TID-HATCH
 62
7
420
15777400
100
AcDbHatch
 10
0.0
 20
0.0
 30
0.0
210
0.0
220
0.0
230
1.0
  2
SOLID
 70
1
 71
0
 91
1
 92
3
 72
0
 73
1
 93
4
 10
19388.0
 20
6980.0
 10
19532.0
 20
6980.0
 10
19532.0
 20
7340.0
 10
19388.0
 20
7340.0
 97
0
 75
1
 76
1
 98
0
  0
LWPOLYLINE
  5
1C5
330
17
100
AcDbEntity
  8
ELC-GROUNDING-70
100
AcDbPolyline
 90
4
 70
1
 10
19388.0
 20
6980.0
 10
19532.0
 20
6980.0
 10
19532.0
 20
7340.0
 10
19388.0
 20
7340.0
  0
LWPOLYLINE
  5
1C6
330
17
100
AcDbEntity
  8
ELC-GROUNDING-70
100
AcDbPolyline
 90
3
 70
0
 43
48.0
 10
19460.0
 20
6980.0
 10
19460.0
 20
5900.0
 10
19460.0
 20
5630.0
  0
LWPOLYLINE
  5
1C7
330
17
100
AcDbEntity
  8
TID-E-CONTROL BOX
100
AcDbPolyline
 90
4
 70
1
 10
19340.0
 20
5630.0
 10
19580.0
 20
5630.0
 10
19580.0
 20
5900.0
 10
19340.0
 20
5900.0
  0
LINE
  5
1C8
330
17
100
AcDbEntity
  8
TID-ELC DIMENTION
100
AcDbLine
 10
18800.0
 20
8250.0
 30
0.0
 11
21800.0
 21
8250.0
 31
0.0
  0
LINE
  5
1C9
330
17
100
AcDbEntity
  8
TID-ELC DIMENTION
100
AcDbLine
 10
18720.0
 20
8170.0
 30
0.0
 11
18880.0
 21
8330.0
 31
0.0
  0
LINE
  5
1CA
330
17
100
AcDbEntity
  8
TID-ELC DIMENTION
100
AcDbLine
 10
21720.0
 20
8170.0
 30
0.0
 11
21880.0
 21
8330.0
 31
0.0
  0
TEXT
  5
1CB
330
17
100
AcDbEntity
  8
TID-ELC DIMENTION
100
AcDbText
 10
20300.0
 20
8310.0
 30
0.0
 40
200.0
  1
500
  7
TX-AN
 41
0.9
 72
1
 11
20300.0
 21
8310.0
 31
0.0
100
AcDbText
 73
1
  0
LINE
  5
1CC
330
17
100
AcDbEntity
  8
TID-ELC DIMENTION
100
AcDbLine
 10
18450.0
 20
5900.0
 30
0.0
 11
18450.0
 21
8000.0
 31
0.0
  0
LINE
  5
1CD
330
17
100
AcDbEntity
  8
TID-ELC DIMENTION
100
AcDbLine
 10
18370.0
 20
5820.0
 30
0.0
 11
18530.0
 21
5980.0
 31
0.0
  0
LINE
  5
1CE
330
17
100
AcDbEntity
  8
TID-ELC DIMENTION
100
AcDbLine
 10
18370.0
 20
7920.0
 30
0.0
 11
18530.0
 21
8080.0
 31
0.0
  0
TEXT
  5
1CF
330
17
100
AcDbEntity
  8
TID-ELC DIMENTION
100
AcDbText
 10
18390.0
 20
6950.0
 30
0.0
 40
200.0
  1
350
 50
90.0
  7
TX-AN
 41
0.9
 72
1
 11
18390.0
 21
6950.0
 31
0.0
100
AcDbText
 73
1
  0
LINE
  5
1D0
330
17
100
AcDbEntity
  8
TID-ELC TEXT
100
AcDbLine
 10
20300.0
 20
7472.0
 30
0.0
 11
20800.0
 21
8172.0
 31
0.0
  0
LINE
  5
1D1
330
17
100
AcDbEntity
  8
TID-ELC TEXT
100
AcDbLine
 10
20800.0
 20
8172.0
 30
0.0
 11
24350.0
 21
8172.0
 31
0.0
  0
SOLID
  5
1D2
330
17
100
AcDbEntity
  8
TID-ELC TEXT
100
AcDbTrace
 10
20300.0
 20
7472.0
 30
0.0
 11
20354.27720349689
 21
7611.835564791497
 31
0.0
 12
20414.673468263234
 22
7568.695375672682
 32
0.0
 13
20414.673468263234
 23
7568.695375672682
 33
0.0
  0
TEXT
  5
1D3
330
17
100
AcDbEntity
  8
TID-ELC TEXT
100
AcDbText
 10
20900.0
 20
8259.5
 30
0.0
 40
250.0
  1
COPPER BUSBAR 300x50x6mm
  7
TX-AN
 41
0.9
 11
20900.0
 21
8259.5
 31
0.0
100
AcDbText
  0
LINE
  5
1D4
330
17
100
AcDbEntity
  8
TID-ELC TEXT
100
AcDbLine
 10
21308.0
 20
7040.0
 30
0.0
 11
22608.0
 21
6740.0
 31
0.0
  0
LINE
  5
1D5
330
17
100
AcDbEntity
  8
TID-ELC TEXT
100
AcDbLine
 10
22608.0
 20
6740.0
 30
0.0
 11
24095.5
 21
6740.0
 31
0.0
  0
SOLID
  5
1D6
330
17
100
AcDbEntity
  8
TID-ELC TEXT
100
AcDbTrace
 10
21308.0
 20
7040.0
 30
0.0
 11
21457.959629802095
 21
7043.479860574616
 31
0.0
 12
21441.270290132106
 22
6971.159388671337
 32
0.0
 13
21441.270290132106
 23
6971.159388671337
 33
0.0
  0
TEXT
  5
1D7
330
17
100
AcDbEntity
  8
TID-ELC TEXT
100
AcDbText
 10
22708.0
 20
6827.5
 30
0.0
 40
250.0
  1
INSULATOR
  7
TX-AN
 41
0.9
 11
22708.0
 21
6827.5
 31
0.0
100
AcDbText
  0
LINE
  5
1D8
330
17
100
AcDbEntity
  8
TID-ELC TEXT
100
AcDbLine
 10
21140.0
 20
5720.0
 30
0.0
 11
21740.0
 21
5020.0
 31
0.0
  0
LINE
  5
1D9
330
17
100
AcDbEntity
  8
TID-ELC TEXT
100
AcDbLine
 10
21740.0
 20
5020.0
 30
0.0
 11
24877.5
 21
5020.0
 31
0.0
  0
SOLID
  5
1DA
330
17
100
AcDbEntity
  8
TID-ELC TEXT
100
AcDbTrace
 10
21140.0
 20
5720.0
 30
0.0
 11
21262.76044027984
 21
5633.803281371621
 31
0.0
 12
21206.407513425245
 22
5585.500772639112
 32
0.0
 13
21206.407513425245
 23
5585.500772639112
 33
0.0
  0
TEXT
  5
1DB
330
17
100
AcDbEntity
  8
TID-ELC TEXT
100
AcDbText
 10
21840.0
 20
5107.5
 30
0.0
 40
250.0
  1
BC 35mm² TO PIPE RACK
  7
TX-AN
 41
0.9
 11
21840.0
 21
5107.5
 31
0.0
100
AcDbText
  0
LINE
  5
1DC
330
17
100
AcDbEntity
  8
TID-ELC TEXT
100
AcDbLine
 10
19460.0
 20
5720.0
 30
0.0
 11
19160.0
 21
5020.0
 31
0.0
  0
LINE
  5
1DD
330
17
100
AcDbEntity
  8
TID-ELC TEXT
100
AcDbLine
 10
19160.0
 20
5020.0
 30
0.0
 11
16710.0
 21
5020.0
 31
0.0
  0
SOLID
  5
1DE
330
17
100
AcDbEntity
  8
TID-ELC TEXT
100
AcDbTrace
 10
19460.0
 20
5720.0
 30
0.0
 11
19436.859022701603
 21
5571.795765344998
 31
0.0
 12
19368.63898683493
 22
5601.032923573573
 32
0.0
 13
19368.63898683493
 23
5601.032923573573
 33
0.0
  0
TEXT
  5
1DF
330
17
100
AcDbEntity
  8
TID-ELC TEXT
100
AcDbText
 10
16760.0
 20
5107.5
 30
0.0
 40
250.0
  1
BC 70mm² TO GRID
  7
TX-AN
 41
0.9
 11
16760.0
 21
5107.5
 31
0.0
100
AcDbText
  0
TEXT
  5
1E0
330
17
100
AcDbEntity
  8
TID-ELC TEXT
100
AcDbText
 10
19100.0
 20
4400.0
 30
0.0
 40
250.0
  1
%%UEARTHING BOX (COVER REMOVED)
  7
TX-AN
 41
0.9
 11
19100.0
 21
4400.0
 31
0.0
100
AcDbText
  0
ENDSEC
  0
SECTION
  2
OBJECTS
  0
DICTIONARY
  5
A
330
0
100
AcDbDictionary
281
1
  3
ACAD_COLOR
350
B
  3
ACAD_GROUP
350
C
  3
ACAD_LAYOUT
350
D
  3
ACAD_MATERIAL
350
E
  3
ACAD_MLEADERSTYLE
350
F
  3
ACAD_MLINESTYLE
350
10
  3
ACAD_PLOTSETTINGS
350
11
  3
ACAD_PLOTSTYLENAME
350
12
  3
ACAD_SCALELIST
350
14
  3
ACAD_TABLESTYLE
350
15
  3
ACAD_VISUALSTYLE
350
16
  3
EZDXF_META
350
2D
  0
DICTIONARY
  5
B
330
A
100
AcDbDictionary
281
1
  0
DICTIONARY
  5
C
330
A
100
AcDbDictionary
281
1
  0
DICTIONARY
  5
D
330
A
100
AcDbDictionary
281
1
  3
Model
350
1A
  3
Layout1
350
1E
  0
DICTIONARY
  5
E
330
A
100
AcDbDictionary
281
1
  3
ByBlock
350
1F
  3
ByLayer
350
20
  3
Global
350
21
  0
DICTIONARY
  5
F
330
A
100
AcDbDictionary
281
1
  3
Standard
350
2C
  0
DICTIONARY
  5
10
330
A
100
AcDbDictionary
281
1
  3
Standard
350
22
  0
DICTIONARY
  5
11
330
A
100
AcDbDictionary
281
1
  0
ACDBDICTIONARYWDFLT
  5
12
330
A
100
AcDbDictionary
281
1
  3
Normal
350
13
100
AcDbDictionaryWithDefault
340
13
  0
ACDBPLACEHOLDER
  5
13
330
12
  0
DICTIONARY
  5
14
330
A
100
AcDbDictionary
281
1
  0
DICTIONARY
  5
15
330
A
100
AcDbDictionary
281
1
  0
DICTIONARY
  5
16
330
A
100
AcDbDictionary
281
1
  3
2dWireframe
350
5A
  3
Basic
350
5B
  3
Brighten
350
5C
  3
ColorChange
350
5D
  3
Conceptual
350
5E
  3
Dim
350
5F
  3
EdgeColorOff
350
60
  3
Facepattern
350
61
  3
Flat
350
62
  3
FlatWithEdges
350
63
  3
Gouraud
350
64
  3
GouraudWithEdges
350
65
  3
Hidden
350
66
  3
JitterOff
350
67
  3
Linepattern
350
68
  3
Modeling
350
69
  3
OverhangOff
350
6A
  3
Realistic
350
6B
  3
Shaded
350
6C
  3
Shaded with edges
350
6D
  3
Shades of Gray
350
6E
  3
Sketchy
350
6F
  3
Thicken
350
70
  3
Wireframe
350
71
  3
X-Ray
350
72
  0
LAYOUT
  5
1A
330
D
100
AcDbPlotSettings
  1

  4
A3
  6

 40
7.5
 41
20.0
 42
7.5
 43
20.0
 44
420.0
 45
297.0
 46
0.0
 47
0.0
 48
0.0
 49
0.0
140
0.0
141
0.0
142
1.0
143
1.0
 70
1024
 72
1
 73
0
 74
5
  7

 75
16
 76
0
 77
2
 78
300
147
1.0
148
0.0
149
0.0
100
AcDbLayout
  1
Model
 70
1
 71
0
 10
0.0
 20
0.0
 11
420.0
 21
297.0
 12
0.0
 22
0.0
 32
0.0
 14
1e+20
 24
1e+20
 34
1e+20
 15
-1e+20
 25
-1e+20
 35
-1e+20
146
0.0
 13
0.0
 23
0.0
 33
0.0
 16
1.0
 26
0.0
 36
0.0
 17
0.0
 27
1.0
 37
0.0
 76
1
330
17
  0
LAYOUT
  5
1E
330
D
100
AcDbPlotSettings
  1

  4
A3
  6

 40
7.5
 41
20.0
 42
7.5
 43
20.0
 44
420.0
 45
297.0
 46
0.0
 47
0.0
 48
0.0
 49
0.0
140
0.0
141
0.0
142
1.0
143
1.0
 70
0
 72
1
 73
0
 74
5
  7

 75
16
 76
0
 77
2
 78
300
147
1.0
148
0.0
149
0.0
100
AcDbLayout
  1
Layout1
 70
1
 71
1
 10
0.0
 20
0.0
 11
420.0
 21
297.0
 12
0.0
 22
0.0
 32
0.0
 14
1e+20
 24
1e+20
 34
1e+20
 15
-1e+20
 25
-1e+20
 35
-1e+20
146
0.0
 13
0.0
 23
0.0
 33
0.0
 16
1.0
 26
0.0
 36
0.0
 17
0.0
 27
1.0
 37
0.0
 76
1
330
1B
  0
MATERIAL
  5
1F
102
{ACAD_REACTORS
330
E
102
}
330
E
100
AcDbMaterial
  1
ByBlock
  2

 70
0
 40
1.0
 71
1
 41
1.0
 91
-1023410177
 42
1.0
 72
1
  3

 73
1
 74
1
 75
1
 44
0.5
 73
0
 45
1.0
 46
1.0
 77
1
  4

 78
1
 79
1
170
1
 48
1.0
171
1
  6

172
1
173
1
174
1
140
1.0
141
1.0
175
1
  7

176
1
177
1
178
1
143
1.0
179
1
  8

270
1
271
1
272
1
145
1.0
146
1.0
273
1
  9

274
1
275
1
276
1
 42
1.0
 72
1
  3

 73
1
 74
1
 75
1
 94
63
  0
MATERIAL
  5
20
102
{ACAD_REACTORS
330
E
102
}
330
E
100
AcDbMaterial
  1
ByLayer
  2

 70
0
 40
1.0
 71
1
 41
1.0
 91
-1023410177
 42
1.0
 72
1
  3

 73
1
 74
1
 75
1
 44
0.5
 73
0
 45
1.0
 46
1.0
 77
1
  4

 78
1
 79
1
170
1
 48
1.0
171
1
  6

172
1
173
1
174
1
140
1.0
141
1.0
175
1
  7

176
1
177
1
178
1
143
1.0
179
1
  8

270
1
271
1
272
1
145
1.0
146
1.0
273
1
  9

274
1
275
1
276
1
 42
1.0
 72
1
  3

 73
1
 74
1
 75
1
 94
63
  0
MATERIAL
  5
21
102
{ACAD_REACTORS
330
E
102
}
330
E
100
AcDbMaterial
  1
Global
  2

 70
0
 40
1.0
 71
1
 41
1.0
 91
-1023410177
 42
1.0
 72
1
  3

 73
1
 74
1
 75
1
 44
0.5
 73
0
 45
1.0
 46
1.0
 77
1
  4

 78
1
 79
1
170
1
 48
1.0
171
1
  6

172
1
173
1
174
1
140
1.0
141
1.0
175
1
  7

176
1
177
1
178
1
143
1.0
179
1
  8

270
1
271
1
272
1
145
1.0
146
1.0
273
1
  9

274
1
275
1
276
1
 42
1.0
 72
1
  3

 73
1
 74
1
 75
1
 94
63
  0
MLINESTYLE
  5
22
102
{ACAD_REACTORS
330
10
102
}
330
10
100
AcDbMlineStyle
  2
Standard
 70
0
  3

 62
256
 51
90.0
 52
90.0
 71
2
 49
0.5
 62
256
  6
BYLAYER
 49
-0.5
 62
256
  6
BYLAYER
  0
MLEADERSTYLE
  5
2C
102
{ACAD_REACTORS
330
F
102
}
330
F
100
AcDbMLeaderStyle
179
2
170
2
171
1
172
0
 90
2
 40
0.0
 41
0.0
173
1
 91
-1056964608
 92
-2
290
1
 42
2.0
291
1
 43
8.0
  3
Standard
 44
4.0
300

342
29
174
1
175
1
176
0
178
1
 93
-1056964608
 45
4.0
292
0
297
0
 46
4.0
 94
-1056964608
 47
1.0
 49
1.0
140
1.0
294
1
141
0.0
177
0
142
1.0
295
0
296
0
143
3.75
271
0
272
9
273
9
  0
DICTIONARY
  5
2D
330
A
100
AcDbDictionary
280
1
281
1
  3
CREATED_BY_EZDXF
350
2E
  3
WRITTEN_BY_EZDXF
350
1E3
  0
DICTIONARYVAR
  5
2E
330
2D
100
DictionaryVariables
280
0
  1
1.4.4 @ 2026-09-24T11:44:58.471778+00:00
  0
VISUALSTYLE
  5
5A
102
{ACAD_REACTORS
330
16
102
}
330
16
100
AcDbVisualStyle
  2
2dWireframe
 70
4
 90
0
 40
0.6
 62
7
290
0
291
0
  0
VISUALSTYLE
  5
5B
102
{ACAD_REACTORS
330
16
102
}
330
16
100
AcDbVisualStyle
  2
Basic
 70
7
 90
1
 40
0.6
 62
7
290
0
291
1
  0
VISUALSTYLE
  5
5C
102
{ACAD_REACTORS
330
16
102
}
330
16
100
AcDbVisualStyle
  2
Brighten
 70
12
 90
2
 40
0.6
 62
7
290
0
291
1
  0
VISUALSTYLE
  5
5D
102
{ACAD_REACTORS
330
16
102
}
330
16
100
AcDbVisualStyle
  2
ColorChange
 70
16
 90
2
 40
0.6
 62
8
290
0
291
1
  0
VISUALSTYLE
  5
5E
102
{ACAD_REACTORS
330
16
102
}
330
16
100
AcDbVisualStyle
  2
Conceptual
 70
9
 90
3
 40
0.6
 62
7
290
0
291
0
  0
VISUALSTYLE
  5
5F
102
{ACAD_REACTORS
330
16
102
}
330
16
100
AcDbVisualStyle
  2
Dim
 70
11
 90
2
 40
0.6
 62
7
290
0
291
1
  0
VISUALSTYLE
  5
60
102
{ACAD_REACTORS
330
16
102
}
330
16
100
AcDbVisualStyle
  2
EdgeColorOff
 70
22
 90
2
 40
0.6
 62
7
290
0
291
1
  0
VISUALSTYLE
  5
61
102
{ACAD_REACTORS
330
16
102
}
330
16
100
AcDbVisualStyle
  2
Facepattern
 70
15
 90
2
 40
0.6
 62
7
290
0
291
1
  0
VISUALSTYLE
  5
62
102
{ACAD_REACTORS
330
16
102
}
330
16
100
AcDbVisualStyle
  2
Flat
 70
0
 90
2
 40
0.6
 62
7
290
0
291
1
  0
VISUALSTYLE
  5
63
102
{ACAD_REACTORS
330
16
102
}
330
16
100
AcDbVisualStyle
  2
FlatWithEdges
 70
1
 90
2
 40
0.6
 62
7
290
0
291
1
  0
VISUALSTYLE
  5
64
102
{ACAD_REACTORS
330
16
102
}
330
16
100
AcDbVisualStyle
  2
Gouraud
 70
2
 90
2
 40
0.6
 62
7
290
0
291
1
  0
VISUALSTYLE
  5
65
102
{ACAD_REACTORS
330
16
102
}
330
16
100
AcDbVisualStyle
  2
GouraudWithEdges
 70
3
 90
2
 40
0.6
 62
7
290
0
291
1
  0
VISUALSTYLE
  5
66
102
{ACAD_REACTORS
330
16
102
}
330
16
100
AcDbVisualStyle
  2
Hidden
 70
6
 90
1
 40
0.6
 62
7
290
0
291
0
  0
VISUALSTYLE
  5
67
102
{ACAD_REACTORS
330
16
102
}
330
16
100
AcDbVisualStyle
  2
JitterOff
 70
20
 90
2
 40
0.6
 62
7
290
0
291
1
  0
VISUALSTYLE
  5
68
102
{ACAD_REACTORS
330
16
102
}
330
16
100
AcDbVisualStyle
  2
Linepattern
 70
14
 90
2
 40
0.6
 62
7
290
0
291
1
  0
VISUALSTYLE
  5
69
102
{ACAD_REACTORS
330
16
102
}
330
16
100
AcDbVisualStyle
  2
Modeling
 70
10
 90
2
 40
0.6
 62
7
290
0
291
0
  0
VISUALSTYLE
  5
6A
102
{ACAD_REACTORS
330
16
102
}
330
16
100
AcDbVisualStyle
  2
OverhangOff
 70
21
 90
2
 40
0.6
 62
7
290
0
291
1
  0
VISUALSTYLE
  5
6B
102
{ACAD_REACTORS
330
16
102
}
330
16
100
AcDbVisualStyle
  2
Realistic
 70
8
 90
2
 40
0.6
 62
7
290
0
291
0
  0
VISUALSTYLE
  5
6C
102
{ACAD_REACTORS
330
16
102
}
330
16
100
AcDbVisualStyle
  2
Shaded
 70
27
 90
2
 40
0.6
 62
7
290
0
291
0
  0
VISUALSTYLE
  5
6D
102
{ACAD_REACTORS
330
16
102
}
330
16
100
AcDbVisualStyle
  2
Shaded with edges
 70
26
 90
2
 40
0.6
 62
7
290
0
291
0
  0
VISUALSTYLE
  5
6E
102
{ACAD_REACTORS
330
16
102
}
330
16
100
AcDbVisualStyle
  2
Shades of Gray
 70
23
 90
2
 40
0.6
 62
7
290
0
291
0
  0
VISUALSTYLE
  5
6F
102
{ACAD_REACTORS
330
16
102
}
330
16
100
AcDbVisualStyle
  2
Sketchy
 70
24
 90
1
 40
0.6
 62
7
290
0
291
0
  0
VISUALSTYLE
  5
70
102
{ACAD_REACTORS
330
16
102
}
330
16
100
AcDbVisualStyle
  2
Thicken
 70
13
 90
2
 40
0.6
 62
7
290
0
291
1
  0
VISUALSTYLE
  5
71
102
{ACAD_REACTORS
330
16
102
}
330
16
100
AcDbVisualStyle
  2
Wireframe
 70
5
 90
0
 40
0.6
 62
7
290
0
291
0
  0
VISUALSTYLE
  5
72
102
{ACAD_REACTORS
330
16
102
}
330
16
100
AcDbVisualStyle
  2
X-Ray
 70
25
 90
2
 40
0.5
 62
7
290
0
291
0
  0
DICTIONARYVAR
  5
1E3
330
2D
100
DictionaryVariables
280
0
  1
1.4.4 @ 2026-09-24T11:44:58.487927+00:00
  0
ENDSEC
  0
EOF
