  0
SECTION
  2
HEADER
  9
$ACADVER
  1
AC1024
  9
$ACADMAINTVER
 70
6
  9
$DWGCODEPAGE
  3
ANSI_1252
  9
$LASTSAVEDBY
  1
ezdxf
  9
$INSBASE
 10
0.0
 20
0.0
 30
0.0
  9
$EXTMIN
 10
1e+20
 20
1e+20
 30
1e+20
  9
$EXTMAX
 10
-1e+20
 20
-1e+20
 30
-1e+20
  9
$LIMMIN
 10
0.0
 20
0.0
  9
$LIMMAX
 10
420.0
 20
297.0
  9
$ORTHOMODE
 70
0
  9
$REGENMODE
 70
1
  9
$FILLMODE
 70
1
  9
$QTEXTMODE
 70
0
  9
$MIRRTEXT
 70
1
  9
$LTSCALE
 40
1.0
  9
$ATTMODE
 70
1
  9
$TEXTSIZE
 40
2.5
  9
$TRACEWID
 40
1.0
  9
$TEXTSTYLE
  7
OpenSans
  9
$CLAYER
  8
0
  9
$CELTYPE
  6
ByLayer
  9
$CECOLOR
 62
256
  9
$CELTSCALE
 40
1.0
  9
$DISPSILH
 70
0
  9
$DIMSCALE
 40
1.0
  9
$DIMASZ
 40
0.175
  9
$DIMEXO
 40
0.125
  9
$DIMDLI
 40
3.75
  9
$DIMRND
 40
0.0
  9
$DIMDLE
 40
0.0
  9
$DIMEXE
 40
0.375
  9
$DIMTP
 40
0.0
  9
$DIMTM
 40
0.0
  9
$DIMTXT
 40
0.25
  9
$DIMCEN
 40
2.5
  9
$DIMTSZ
 40
0.0
  9
$DIMTOL
 70
0
  9
$DIMLIM
 70
0
  9
$DIMTIH
 70
0
  9
$DIMTOH
 70
0
  9
$DIMSE1
 70
0
  9
$DIMSE2
 70
0
  9
$DIMTAD
 70
1
  9
$DIMZIN
 70
12
  9
$DIMBLK
  1
ARCHTICK
  9
$DIMASO
 70
1
  9
$DIMSHO
 70
1
  9
$DIMPOST
  1

  9
$DIMAPOST
  1

  9
$DIMALT
 70
0
  9
$DIMALTD
 70
3
  9
$DIMALTF
 40
0.03937007874
  9
$DIMLFAC
 40
100.0
  9
$DIMTOFL
 70
1
  9
$DIMTVP
 40
0.0
  9
$DIMTIX
 70
0
  9
$DIMSOXD
 70
0
  9
$DIMSAH
 70
0
  9
$DIMBLK1
  1

  9
$DIMBLK2
  1

  9
$DIMSTYLE
  2
EZDXF
  9
$DIMCLRD
 70
0
  9
$DIMCLRE
 70
0
  9
$DIMCLRT
 70
0
  9
$DIMTFAC
 40
0.5
  9
$DIMGAP
 40
0.1
  9
$DIMJUST
 70
0
  9
$DIMSD1
 70
0
  9
$DIMSD2
 70
0
  9
$DIMTOLJ
 70
0
  9
$DIMTZIN
 70
8
  9
$DIMALTZ
 70
0
  9
$DIMALTTZ
 70
0
  9
$DIMUPT
 70
1
  9
$DIMDEC
 70
2
  9
$DIMTDEC
 70
2
  9
$DIMALTU
 70
2
  9
$DIMALTTD
 70
3
  9
$DIMTXSTY
  7
OpenSansCondensed-Light
  9
$DIMAUNIT
 70
0
  9
$DIMADEC
 70
2
  9
$DIMALTRND
 40
0.0
  9
$DIMAZIN
 70
3
  9
$DIMDSEP
 70
46
  9
$DIMATFIT
 70
3
  9
$DIMFRAC
 70
0
  9
$DIMLDRBLK
  1

  9
$DIMLUNIT
 70
2
  9
$DIMLWD
 70
-2
  9
$DIMLWE
 70
-2
  9
$DIMTMOVE
 70
2
  9
$DIMFXL
 40
1.0
  9
$DIMFXLON
 70
0
  9
$DIMJOGANG
 40
0.785398163397
  9
$DIMTFILL
 70
0
  9
$DIMTFILLCLR
 70
0
  9
$DIMARCSYM
 70
0
  9
$DIMLTYPE
  6

  9
$DIMLTEX1
  6

  9
$DIMLTEX2
  6

  9
$DIMTXTDIRECTION
 70
0
  9
$LUNITS
 70
2
  9
$LUPREC
 70
4
  9
$SKETCHINC
 40
1.0
  9
$FILLETRAD
 40
10.0
  9
$AUNITS
 70
0
  9
$AUPREC
 70
2
  9
$MENU
  1
.
  9
$ELEVATION
 40
0.0
  9
$PELEVATION
 40
0.0
  9
$THICKNESS
 40
0.0
  9
$LIMCHECK
 70
0
  9
$CHAMFERA
 40
0.0
  9
$CHAMFERB
 40
0.0
  9
$CHAMFERC
 40
0.0
  9
$CHAMFERD
 40
0.0
  9
$SKPOLY
 70
0
  9
$TDCREATE
 40
2461308.4894212964
  9
$TDUCREATE
 40
2458532.153996898
  9
$TDUPDATE
 40
2461308.4894212964
  9
$TDUUPDATE
 40
2458532.1544311
  9
$TDINDWG
 40
0.0
  9
$TDUSRTIMER
 40
0.0
  9
$USRTIMER
 70
1
  9
$ANGBASE
 50
0.0
  9
$ANGDIR
 70
0
  9
$PDMODE
 70
0
  9
$PDSIZE
 40
0.0
  9
$PLINEWID
 40
0.0
  9
$SPLFRAME
 70
0
  9
$SPLINETYPE
 70
6
  9
$SPLINESEGS
 70
8
  9
$HANDSEED
  5
205
  9
$SURFTAB1
 70
6
  9
$SURFTAB2
 70
6
  9
$SURFTYPE
 70
6
  9
$SURFU
 70
6
  9
$SURFV
 70
6
  9
$UCSBASE
  2

  9
$UCSNAME
  2

  9
$UCSORG
 10
0.0
 20
0.0
 30
0.0
  9
$UCSXDIR
 10
1.0
 20
0.0
 30
0.0
  9
$UCSYDIR
 10
0.0
 20
1.0
 30
0.0
  9
$UCSORTHOREF
  2

  9
$UCSORTHOVIEW
 70
0
  9
$UCSORGTOP
 10
0.0
 20
0.0
 30
0.0
  9
$UCSORGBOTTOM
 10
0.0
 20
0.0
 30
0.0
  9
$UCSORGLEFT
 10
0.0
 20
0.0
 30
0.0
  9
$UCSORGRIGHT
 10
0.0
 20
0.0
 30
0.0
  9
$UCSORGFRONT
 10
0.0
 20
0.0
 30
0.0
  9
$UCSORGBACK
 10
0.0
 20
0.0
 30
0.0
  9
$PUCSBASE
  2

  9
$PUCSNAME
  2

  9
$PUCSORG
 10
0.0
 20
0.0
 30
0.0
  9
$PUCSXDIR
 10
1.0
 20
0.0
 30
0.0
  9
$PUCSYDIR
 10
0.0
 20
1.0
 30
0.0
  9
$PUCSORTHOREF
  2

  9
$PUCSORTHOVIEW
 70
0
  9
$PUCSORGTOP
 10
0.0
 20
0.0
 30
0.0
  9
$PUCSORGBOTTOM
 10
0.0
 20
0.0
 30
0.0
  9
$PUCSORGLEFT
 10
0.0
 20
0.0
 30
0.0
  9
$PUCSORGRIGHT
 10
0.0
 20
0.0
 30
0.0
  9
$PUCSORGFRONT
 10
0.0
 20
0.0
 30
0.0
  9
$PUCSORGBACK
 10
0.0
 20
0.0
 30
0.0
  9
$USERI1
 70
0
  9
$USERI2
 70
0
  9
$USERI3
 70
0
  9
$USERI4
 70
0
  9
$USERI5
 70
0
  9
$USERR1
 40
0.0
  9
$USERR2
 40
0.0
  9
$USERR3
 40
0.0
  9
$USERR4
 40
0.0
  9
$USERR5
 40
0.0
  9
$WORLDVIEW
 70
1
  9
$SHADEDGE
 70
3
  9
$SHADEDIF
 70
70
  9
$TILEMODE
 70
1
  9
$MAXACTVP
 70
64
  9
$PINSBASE
 10
0.0
 20
0.0
 30
0.0
  9
$PLIMCHECK
 70
0
  9
$PEXTMIN
 10
1e+20
 20
1e+20
 30
1e+20
  9
$PEXTMAX
 10
-1e+20
 20
-1e+20
 30
-1e+20
  9
$PLIMMIN
 10
0.0
 20
0.0
  9
$PLIMMAX
 10
420.0
 20
297.0
  9
$UNITMODE
 70
0
  9
$VISRETAIN
 70
1
  9
$PLINEGEN
 70
0
  9
$PSLTSCALE
 70
1
  9
$TREEDEPTH
 70
3020
  9
$CMLSTYLE
  2
Standard
  9
$CMLJUST
 70
0
  9
$CMLSCALE
 40
20.0
  9
$PROXYGRAPHICS
 70
1
  9
$MEASUREMENT
 70
1
  9
$CELWEIGHT
370
-1
  9
$ENDCAPS
280
0
  9
$JOINSTYLE
280
0
  9
$LWDISPLAY
290
0
  9
$INSUNITS
 70
4
  9
$HYPERLINKBASE
  1

  9
$STYLESHEET
  1

  9
$XEDIT
290
1
  9
$CEPSNTYPE
380
0
  9
$PSTYLEMODE
290
1
  9
$FINGERPRINTGUID
  2
{636F9C0A-E7D3-4306-9A63-A2CAC7C3F966}
  9
$VERSIONGUID
  2
{3F9844C1-9E50-4F8D-85EA-FDCA801F83ED}
  9
$EXTNAMES
290
1
  9
$PSVPSCALE
 40
0.0
  9
$OLESTARTUP
290
0
  9
$SORTENTS
280
127
  9
$INDEXCTL
280
0
  9
$HIDETEXT
280
1
  9
$XCLIPFRAME
280
1
  9
$HALOGAP
280
0
  9
$OBSCOLOR
 70
257
  9
$OBSLTYPE
280
0
  9
$INTERSECTIONDISPLAY
280
0
  9
$INTERSECTIONCOLOR
 70
257
  9
$DIMASSOC
280
2
  9
$PROJECTNAME
  1

  9
$CAMERADISPLAY
290
0
  9
$LENSLENGTH
 40
50.0
  9
$CAMERAHEIGHT
 40
0.0
  9
$STEPSPERSEC
 40
24.0
  9
$STEPSIZE
 40
100.0
  9
$3DDWFPREC
 40
2.0
  9
$PSOLWIDTH
 40
0.005
  9
$PSOLHEIGHT
 40
0.08
  9
$LOFTANG1
 40
1.570796326795
  9
$LOFTANG2
 40
1.570796326795
  9
$LOFTMAG1
 40
0.0
  9
$LOFTMAG2
 40
0.0
  9
$LOFTPARAM
 70
7
  9
$LOFTNORMALS
280
1
  9
$LATITUDE
 40
37.795
  9
$LONGITUDE
 40
-122.394
  9
$NORTHDIRECTION
 40
0.0
  9
$TIMEZONE
 70
-8000
  9
$LIGHTGLYPHDISPLAY
280
1
  9
$TILEMODELIGHTSYNCH
280
1
  9
$CMATERIAL
347
20
  9
$SOLIDHIST
280
0
  9
$SHOWHIST
280
1
  9
$DWFFRAME
280
2
  9
$DGNFRAME
280
2
  9
$REALWORLDSCALE
290
1
  9
$INTERFERECOLOR
 62
256
  9
$CSHADOW
280
0
  9
$SHADOWPLANELOCATION
 40
0.0
  0
ENDSEC
  0
SECTION
  2
CLASSES
  0
CLASS
  1
ACDBDICTIONARYWDFLT
  2
AcDbDictionaryWithDefault
  3
ObjectDBX Classes
 90
0
 91
0
280
0
281
0
  0
CLASS
  1
SUN
  2
AcDbSun
  3
SCENEOE
 90
1153
 91
0
280
0
281
0
  0
CLASS
  1
VISUALSTYLE
  2
AcDbVisualStyle
  3
ObjectDBX Classes
 90
4095
 91
0
280
0
281
0
  0
CLASS
  1
MATERIAL
  2
AcDbMaterial
  3
ObjectDBX Classes
 90
1153
 91
0
280
0
281
0
  0
CLASS
  1
SCALE
  2
AcDbScale
  3
ObjectDBX Classes
 90
1153
 91
0
280
0
281
0
  0
CLASS
  1
TABLESTYLE
  2
AcDbTableStyle
  3
ObjectDBX Classes
 90
4095
 91
0
280
0
281
0
  0
CLASS
  1
MLEADERSTYLE
  2
AcDbMLeaderStyle
  3
ACDB_MLEADERSTYLE_CLASS
 90
4095
 91
0
280
0
281
0
  0
CLASS
  1
DICTIONARYVAR
  2
AcDbDictionaryVar
  3
ObjectDBX Classes
 90
0
 91
0
280
0
281
0
  0
CLASS
  1
CELLSTYLEMAP
  2
AcDbCellStyleMap
  3
ObjectDBX Classes
 90
1152
 91
0
280
0
281
0
  0
CLASS
  1
MENTALRAYRENDERSETTINGS
  2
AcDbMentalRayRenderSettings
  3
SCENEOE
 90
1024
 91
0
280
0
281
0
  0
CLASS
  1
ACDBDETAILVIEWSTYLE
  2
AcDbDetailViewStyle
  3
ObjectDBX Classes
 90
1025
 91
0
280
0
281
0
  0
CLASS
  1
ACDBSECTIONVIEWSTYLE
  2
AcDbSectionViewStyle
  3
ObjectDBX Classes
 90
1025
 91
0
280
0
281
0
  0
CLASS
  1
RASTERVARIABLES
  2
AcDbRasterVariables
  3
ISM
 90
0
 91
0
280
0
281
0
  0
CLASS
  1
LAYOUT
  2
AcDbLayout
  3
ObjectDBX Classes
 90
0
 91
0
280
0
281
0
  0
CLASS
  1
ACDBPLACEHOLDER
  2
AcDbPlaceHolder
  3
ObjectDBX Classes
 90
0
 91
0
280
0
281
0
  0
ENDSEC
  0
SECTION
  2
TABLES
  0
TABLE
  2
VPORT
  5
8
330
0
100
AcDbSymbolTable
 70
1
  0
VPORT
  5
23
330
8
100
AcDbSymbolTableRecord
100
AcDbViewportTableRecord
  2
*Active
 70
0
 10
0.0
 20
0.0
 11
1.0
 21
1.0
 12
0.0
 22
0.0
 13
0.0
 23
0.0
 14
0.5
 24
0.5
 15
0.5
 25
0.5
 16
0.0
 26
0.0
 36
1.0
 17
0.0
 27
0.0
 37
0.0
 40
1000.0
 41
1.34
 42
50.0
 43
0.0
 44
0.0
 50
0.0
 51
0.0
 71
0
 72
1000
 73
1
 74
3
 75
0
 76
0
 77
0
 78
0
281
0
 65
0
146
0.0
  0
ENDTAB
  0
TABLE
  2
LTYPE
  5
2
330
0
100
AcDbSymbolTable
 70
21
  0
LTYPE
  5
24
330
2
100
AcDbSymbolTableRecord
100
AcDbLinetypeTableRecord
  2
ByBlock
 70
0
  3

 72
65
 73
0
 40
0.0
  0
LTYPE
  5
25
330
2
100
AcDbSymbolTableRecord
100
AcDbLinetypeTableRecord
  2
ByLayer
 70
0
  3

 72
65
 73
0
 40
0.0
  0
LTYPE
  5
26
330
2
100
AcDbSymbolTableRecord
100
AcDbLinetypeTableRecord
  2
Continuous
 70
0
  3

 72
65
 73
0
 40
0.0
  0
LTYPE
  5
2F
330
2
100
AcDbSymbolTableRecord
100
AcDbLinetypeTableRecord
  2
CENTER
 70
0
  3
Center ____ _ ____ _ ____ _ ____ _ ____ _ ____
 72
65
 73
4
 40
5.08
 49
3.175
 74
0
 49
-0.635
 74
0
 49
0.635
 74
0
 49
-0.635
 74
0
  0
LTYPE
  5
30
330
2
100
AcDbSymbolTableRecord
100
AcDbLinetypeTableRecord
  2
CENTERX2
 70
0
  3
Center (2x) ________  __  ________  __  ________
 72
65
 73
4
 40
8.89
 49
6.35
 74
0
 49
-0.635
 74
0
 49
1.27
 74
0
 49
-0.635
 74
0
  0
LTYPE
  5
31
330
2
100
AcDbSymbolTableRecord
100
AcDbLinetypeTableRecord
  2
CENTER2
 70
0
  3
Center (.5x) ____ _ ____ _ ____ _ ____ _ ____
 72
65
 73
4
 40
2.54
 49
1.587
 74
0
 49
-0.318
 74
0
 49
0.318
 74
0
 49
-0.318
 74
0
  0
LTYPE
  5
32
330
2
100
AcDbSymbolTableRecord
100
AcDbLinetypeTableRecord
  2
DASHED
 70
0
  3
Dashed __ __ __ __ __ __ __ __ __ __ __ __ __ _
 72
65
 73
2
 40
1.524
 49
1.27
 74
0
 49
-0.254
 74
0
  0
LTYPE
  5
33
330
2
100
AcDbSymbolTableRecord
100
AcDbLinetypeTableRecord
  2
DASHEDX2
 70
0
  3
Dashed (2x) ____  ____  ____  ____  ____  ____
 72
65
 73
2
 40
3.048
 49
2.54
 74
0
 49
-0.508
 74
0
  0
LTYPE
  5
34
330
2
100
AcDbSymbolTableRecord
100
AcDbLinetypeTableRecord
  2
DASHED2
 70
0
  3
Dashed (.5x) _ _ _ _ _ _ _ _ _ _ _ _ _ _
 72
65
 73
2
 40
0.762
 49
0.635
 74
0
 49
-0.127
 74
0
  0
LTYPE
  5
35
330
2
100
AcDbSymbolTableRecord
100
AcDbLinetypeTableRecord
  2
PHANTOM
 70
0
  3
Phantom ______  __  __  ______  __  __  ______
 72
65
 73
6
 40
6.35
 49
3.175
 74
0
 49
-0.635
 74
0
 49
0.635
 74
0
 49
-0.635
 74
0
 49
0.635
 74
0
 49
-0.635
 74
0
  0
LTYPE
  5
36
330
2
100
AcDbSymbolTableRecord
100
AcDbLinetypeTableRecord
  2
PHANTOMX2
 70
0
  3
Phantom (2x)____________    ____    ____    ____________
 72
65
 73
6
 40
10.795
 49
6.35
 74
0
 49
-0.635
 74
0
 49
1.27
 74
0
 49
-0.635
 74
0
 49
1.27
 74
0
 49
-0.635
 74
0
  0
LTYPE
  5
37
330
2
100
AcDbSymbolTableRecord
100
AcDbLinetypeTableRecord
  2
PHANTOM2
 70
0
  3
Phantom (.5x) ___ _ _ ___ _ _ ___ _ _ ___ _ _ ___
 72
65
 73
6
 40
3.175
 49
1.587
 74
0
 49
-0.318
 74
0
 49
0.318
 74
0
 49
-0.318
 74
0
 49
0.318
 74
0
 49
-0.318
 74
0
  0
LTYPE
  5
38
330
2
100
AcDbSymbolTableRecord
100
AcDbLinetypeTableRecord
  2
DASHDOT
 70
0
  3
Dash dot __ . __ . __ . __ . __ . __ . __ . __
 72
65
 73
4
 40
3.556
 49
2.54
 74
0
 49
-0.508
 74
0
 49
0.0
 74
0
 49
-0.508
 74
0
  0
LTYPE
  5
39
330
2
100
AcDbSymbolTableRecord
100
AcDbLinetypeTableRecord
  2
DASHDOTX2
 70
0
  3
Dash dot (2x) ____  .  ____  .  ____  .  ____
 72
65
 73
4
 40
6.096
 49
5.08
 74
0
 49
-0.508
 74
0
 49
0.0
 74
0
 49
-0.508
 74
0
  0
LTYPE
  5
3A
330
2
100
AcDbSymbolTableRecord
100
AcDbLinetypeTableRecord
  2
DASHDOT2
 70
0
  3
Dash dot (.5x) _ . _ . _ . _ . _ . _ . _ . _
 72
65
 73
4
 40
1.778
 49
1.27
 74
0
 49
-0.254
 74
0
 49
0.0
 74
0
 49
-0.254
 74
0
  0
LTYPE
  5
3B
330
2
100
AcDbSymbolTableRecord
100
AcDbLinetypeTableRecord
  2
DOT
 70
0
  3
Dot .  .  .  .  .  .  .  .  .  .  .  .  .  .  .  .
 72
65
 73
2
 40
0.508
 49
0.0
 74
0
 49
-0.508
 74
0
  0
LTYPE
  5
3C
330
2
100
AcDbSymbolTableRecord
100
AcDbLinetypeTableRecord
  2
DOTX2
 70
0
  3
Dot (2x) .    .    .    .    .    .    .    . 
 72
65
 73
2
 40
1.016
 49
0.0
 74
0
 49
-1.016
 74
0
  0
LTYPE
  5
3D
330
2
100
AcDbSymbolTableRecord
100
AcDbLinetypeTableRecord
  2
DOT2
 70
0
  3
Dot (.5) . . . . . . . . . . . . . . . . . . . 
 72
65
 73
2
 40
0.254
 49
0.0
 74
0
 49
-0.254
 74
0
  0
LTYPE
  5
3E
330
2
100
AcDbSymbolTableRecord
100
AcDbLinetypeTableRecord
  2
DIVIDE
 70
0
  3
Divide __ . . __ . . __ . . __ . . __ . . __
 72
65
 73
6
 40
4.064
 49
2.54
 74
0
 49
-0.508
 74
0
 49
0.0
 74
0
 49
-0.508
 74
0
 49
0.0
 74
0
 49
-0.508
 74
0
  0
LTYPE
  5
3F
330
2
100
AcDbSymbolTableRecord
100
AcDbLinetypeTableRecord
  2
DIVIDEX2
 70
0
  3
Divide (2x) ____  . .  ____  . .  ____  . .  ____
 72
65
 73
6
 40
6.604
 49
5.08
 74
0
 49
-0.508
 74
0
 49
0.0
 74
0
 49
-0.508
 74
0
 49
0.0
 74
0
 49
-0.508
 74
0
  0
LTYPE
  5
40
330
2
100
AcDbSymbolTableRecord
100
AcDbLinetypeTableRecord
  2
DIVIDE2
 70
0
  3
Divide(.5x) _ . _ . _ . _ . _ . _ . _ . _
 72
65
 73
6
 40
2.032
 49
1.27
 74
0
 49
-0.254
 74
0
 49
0.0
 74
0
 49
-0.254
 74
0
 49
0.0
 74
0
 49
-0.254
 74
0
  0
ENDTAB
  0
TABLE
  2
LAYER
  5
1
330
0
100
AcDbSymbolTable
 70
18
  0
LAYER
  5
27
330
1
100
AcDbSymbolTableRecord
100
AcDbLayerTableRecord
  2
0
 70
0
 62
7
  6
Continuous
370
-3
390
13
347
21
  0
LAYER
  5
28
330
1
100
AcDbSymbolTableRecord
100
AcDbLayerTableRecord
  2
Defpoints
 70
0
 62
7
  6
Continuous
290
0
370
-3
390
13
347
21
  0
LAYER
  5
8B
330
1
100
AcDbSymbolTableRecord
100
AcDbLayerTableRecord
  2
TID-FRAME
 70
0
 62
7
  6
Continuous
370
-3
390
13
347
21
  0
LAYER
  5
8C
330
1
100
AcDbSymbolTableRecord
100
AcDbLayerTableRecord
  2
TID-ELC TEXT
 70
0
 62
15
  6
Continuous
370
-3
390
13
347
21
  0
LAYER
  5
8D
330
1
100
AcDbSymbolTableRecord
100
AcDbLayerTableRecord
  2
TID-E-TITLE
 70
0
 62
4
  6
Continuous
370
-3
390
13
347
21
  0
LAYER
  5
8E
330
1
100
AcDbSymbolTableRecord
100
AcDbLayerTableRecord
  2
TID-ELC DIMENTION
 70
0
 62
7
  6
Continuous
370
-3
390
13
347
21
  0
LAYER
  5
8F
330
1
100
AcDbSymbolTableRecord
100
AcDbLayerTableRecord
  2
ELC-GROUNDING
 70
0
 62
172
  6
Continuous
370
-3
390
13
347
21
  0
LAYER
  5
90
330
1
100
AcDbSymbolTableRecord
100
AcDbLayerTableRecord
  2
ELC-GROUNDING-70
 70
0
 62
6
  6
Continuous
370
-3
390
13
347
21
  0
LAYER
  5
91
330
1
100
AcDbSymbolTableRecord
100
AcDbLayerTableRecord
  2
TID-E-CONTROL BOX
 70
0
 62
170
  6
Continuous
370
-3
390
13
347
21
  0
LAYER
  5
92
330
1
100
AcDbSymbolTableRecord
100
AcDbLayerTableRecord
  2
TID-STRUCTURE
 70
0
 62
8
  6
Continuous
370
-3
390
13
347
21
  0
LAYER
  5
93
330
1
100
AcDbSymbolTableRecord
100
AcDbLayerTableRecord
  2
TID-CONCRETE
 70
0
 62
9
  6
Continuous
370
-3
390
13
347
21
  0
LAYER
  5
94
330
1
100
AcDbSymbolTableRecord
100
AcDbLayerTableRecord
  2
TID-HATCH
 70
0
 62
250
  6
Continuous
370
-3
390
13
347
21
  0
LAYER
  5
95
330
1
100
AcDbSymbolTableRecord
100
AcDbLayerTableRecord
  2
TID-WALL
 70
0
 62
15
  6
Continuous
370
-3
390
13
347
21
  0
LAYER
  5
96
330
1
100
AcDbSymbolTableRecord
100
AcDbLayerTableRecord
  2
TID-E-LADDER
 70
0
 62
170
  6
Continuous
370
-3
390
13
347
21
  0
LAYER
  5
97
330
1
100
AcDbSymbolTableRecord
100
AcDbLayerTableRecord
  2
TID-E-SUPPORT
 70
0
 62
30
  6
Continuous
370
-3
390
13
347
21
  0
LAYER
  5
98
330
1
100
AcDbSymbolTableRecord
100
AcDbLayerTableRecord
  2
TID-E-LIGHTING
 70
0
 62
150
  6
Continuous
370
-3
390
13
347
21
  0
LAYER
  5
99
330
1
100
AcDbSymbolTableRecord
100
AcDbLayerTableRecord
  2
TID-E-CONDUIT
 70
0
 62
3
  6
Continuous
370
-3
390
13
347
21
  0
LAYER
  5
9A
330
1
100
AcDbSymbolTableRecord
100
AcDbLayerTableRecord
  2
TID-HIDDEN
 70
0
 62
8
  6
DASHED
370
-3
390
13
347
21
  0
ENDTAB
  0
TABLE
  2
STYLE
  5
5
330
0
100
AcDbSymbolTable
 70
27
  0
STYLE
  5
29
330
5
100
AcDbSymbolTableRecord
100
AcDbTextStyleTableRecord
  2
Standard
 70
0
 40
0.0
 41
1.0
 50
0.0
 71
0
 42
2.5
  3
txt
  4

  0
STYLE
  5
41
330
5
100
AcDbSymbolTableRecord
100
AcDbTextStyleTableRecord
  2
OpenSans-Light
 70
0
 40
0.0
 41
1.0
 50
0.0
 71
0
 42
2.5
  3
OpenSans-Light.ttf
  4

  0
STYLE
  5
42
330
5
100
AcDbSymbolTableRecord
100
AcDbTextStyleTableRecord
  2
OpenSans-Light-Italic
 70
0
 40
0.0
 41
1.0
 50
0.0
 71
0
 42
2.5
  3
OpenSans-LightItalic.ttf
  4

  0
STYLE
  5
43
330
5
100
AcDbSymbolTableRecord
100
AcDbTextStyleTableRecord
  2
OpenSans
 70
0
 40
0.0
 41
1.0
 50
0.0
 71
0
 42
2.5
  3
OpenSans-Regular.ttf
  4

  0
STYLE
  5
44
330
5
100
AcDbSymbolTableRecord
100
AcDbTextStyleTableRecord
  2
OpenSans-Italic
 70
0
 40
0.0
 41
1.0
 50
0.0
 71
0
 42
2.5
  3
OpenSans-Italic.ttf
  4

  0
STYLE
  5
45
330
5
100
AcDbSymbolTableRecord
100
AcDbTextStyleTableRecord
  2
OpenSans-SemiBold
 70
0
 40
0.0
 41
1.0
 50
0.0
 71
0
 42
2.5
  3
OpenSans-SemiBold.ttf
  4

  0
STYLE
  5
46
330
5
100
AcDbSymbolTableRecord
100
AcDbTextStyleTableRecord
  2
OpenSans-SemiBoldItalic
 70
0
 40
0.0
 41
1.0
 50
0.0
 71
0
 42
2.5
  3
OpenSans-SemiBoldItalic.ttf
  4

  0
STYLE
  5
47
330
5
100
AcDbSymbolTableRecord
100
AcDbTextStyleTableRecord
  2
OpenSans-Bold
 70
0
 40
0.0
 41
1.0
 50
0.0
 71
0
 42
2.5
  3
OpenSans-Bold.ttf
  4

  0
STYLE
  5
48
330
5
100
AcDbSymbolTableRecord
100
AcDbTextStyleTableRecord
  2
OpenSans-BoldItalic
 70
0
 40
0.0
 41
1.0
 50
0.0
 71
0
 42
2.5
  3
OpenSans-BoldItalic.ttf
  4

  0
STYLE
  5
49
330
5
100
AcDbSymbolTableRecord
100
AcDbTextStyleTableRecord
  2
OpenSans-ExtraBold
 70
0
 40
0.0
 41
1.0
 50
0.0
 71
0
 42
2.5
  3
OpenSans-ExtraBold.ttf
  4

  0
STYLE
  5
4A
330
5
100
AcDbSymbolTableRecord
100
AcDbTextStyleTableRecord
  2
OpenSans-ExtraBoldItalic
 70
0
 40
0.0
 41
1.0
 50
0.0
 71
0
 42
2.5
  3
OpenSans-ExtraBoldItalic.ttf
  4

  0
STYLE
  5
4B
330
5
100
AcDbSymbolTableRecord
100
AcDbTextStyleTableRecord
  2
OpenSansCondensed-Bold
 70
0
 40
0.0
 41
1.0
 50
0.0
 71
0
 42
2.5
  3
OpenSansCondensed-Bold.ttf
  4

  0
STYLE
  5
4C
330
5
100
AcDbSymbolTableRecord
100
AcDbTextStyleTableRecord
  2
OpenSansCondensed-Light
 70
0
 40
0.0
 41
1.0
 50
0.0
 71
0
 42
2.5
  3
OpenSansCondensed-Light.ttf
  4

  0
STYLE
  5
4D
330
5
100
AcDbSymbolTableRecord
100
AcDbTextStyleTableRecord
  2
OpenSansCondensed-Italic
 70
0
 40
0.0
 41
1.0
 50
0.0
 71
0
 42
2.5
  3
OpenSansCondensed-LightItalic.ttf
  4

  0
STYLE
  5
4E
330
5
100
AcDbSymbolTableRecord
100
AcDbTextStyleTableRecord
  2
LiberationSans
 70
0
 40
0.0
 41
1.0
 50
0.0
 71
0
 42
2.5
  3
LiberationSans-Regular.ttf
  4

  0
STYLE
  5
4F
330
5
100
AcDbSymbolTableRecord
100
AcDbTextStyleTableRecord
  2
LiberationSans-Bold
 70
0
 40
0.0
 41
1.0
 50
0.0
 71
0
 42
2.5
  3
LiberationSans-Bold.ttf
  4

  0
STYLE
  5
50
330
5
100
AcDbSymbolTableRecord
100
AcDbTextStyleTableRecord
  2
LiberationSans-BoldItalic
 70
0
 40
0.0
 41
1.0
 50
0.0
 71
0
 42
2.5
  3
LiberationSans-BoldItalic.ttf
  4

  0
STYLE
  5
51
330
5
100
AcDbSymbolTableRecord
100
AcDbTextStyleTableRecord
  2
LiberationSans-Italic
 70
0
 40
0.0
 41
1.0
 50
0.0
 71
0
 42
2.5
  3
LiberationSans-Italic.ttf
  4

  0
STYLE
  5
52
330
5
100
AcDbSymbolTableRecord
100
AcDbTextStyleTableRecord
  2
LiberationSerif
 70
0
 40
0.0
 41
1.0
 50
0.0
 71
0
 42
2.5
  3
LiberationSerif-Regular.ttf
  4

  0
STYLE
  5
53
330
5
100
AcDbSymbolTableRecord
100
AcDbTextStyleTableRecord
  2
LiberationSerif-Bold
 70
0
 40
0.0
 41
1.0
 50
0.0
 71
0
 42
2.5
  3
LiberationSerif-Bold.ttf
  4

  0
STYLE
  5
54
330
5
100
AcDbSymbolTableRecord
100
AcDbTextStyleTableRecord
  2
LiberationSerif-BoldItalic
 70
0
 40
0.0
 41
1.0
 50
0.0
 71
0
 42
2.5
  3
LiberationSerif-BoldItalic.ttf
  4

  0
STYLE
  5
55
330
5
100
AcDbSymbolTableRecord
100
AcDbTextStyleTableRecord
  2
LiberationSerif-Italic
 70
0
 40
0.0
 41
1.0
 50
0.0
 71
0
 42
2.5
  3
LiberationSerif-Italic.ttf
  4

  0
STYLE
  5
56
330
5
100
AcDbSymbolTableRecord
100
AcDbTextStyleTableRecord
  2
LiberationMono
 70
0
 40
0.0
 41
1.0
 50
0.0
 71
0
 42
2.5
  3
LiberationMono-Regular.ttf
  4

  0
STYLE
  5
57
330
5
100
AcDbSymbolTableRecord
100
AcDbTextStyleTableRecord
  2
LiberationMono-Bold
 70
0
 40
0.0
 41
1.0
 50
0.0
 71
0
 42
2.5
  3
LiberationMono-Bold.ttf
  4

  0
STYLE
  5
58
330
5
100
AcDbSymbolTableRecord
100
AcDbTextStyleTableRecord
  2
LiberationMono-BoldItalic
 70
0
 40
0.0
 41
1.0
 50
0.0
 71
0
 42
2.5
  3
LiberationMono-BoldItalic.ttf
  4

  0
STYLE
  5
59
330
5
100
AcDbSymbolTableRecord
100
AcDbTextStyleTableRecord
  2
LiberationMono-Italic
 70
0
 40
0.0
 41
1.0
 50
0.0
 71
0
 42
2.5
  3
LiberationMono-Italic.ttf
  4

  0
STYLE
  5
8A
330
5
100
AcDbSymbolTableRecord
100
AcDbTextStyleTableRecord
  2
TX-AN
 70
0
 40
0.0
 41
1.0
 50
0.0
 71
0
 42
2.5
  3
ARIALN.TTF
  4

  0
ENDTAB
  0
TABLE
  2
VIEW
  5
7
330
0
100
AcDbSymbolTable
 70
0
  0
ENDTAB
  0
TABLE
  2
UCS
  5
6
330
0
100
AcDbSymbolTable
 70
0
  0
ENDTAB
  0
TABLE
  2
APPID
  5
3
330
0
100
AcDbSymbolTable
 70
3
  0
APPID
  5
2A
330
3
100
AcDbSymbolTableRecord
100
AcDbRegAppTableRecord
  2
ACAD
 70
0
  0
APPID
  5
202
330
3
100
AcDbSymbolTableRecord
100
AcDbRegAppTableRecord
  2
HATCHBACKGROUNDCOLOR
 70
0
  0
APPID
  5
203
330
3
100
AcDbSymbolTableRecord
100
AcDbRegAppTableRecord
  2
EZDXF
 70
0
  0
ENDTAB
  0
TABLE
  2
DIMSTYLE
  5
4
330
0
100
AcDbSymbolTable
 70
12
100
AcDbDimStyleTable
  0
DIMSTYLE
105
2B
330
4
100
AcDbSymbolTableRecord
100
AcDbDimStyleTableRecord
  2
Standard
 70
0
 40
1.0
 41
2.5
 42
0.625
 43
3.75
 44
1.25
 45
0.0
 46
0.0
 47
0.0
 48
0.0
 49
2.5
140
2.5
141
2.5
142
0.0
143
0.03937007874
144
1.0
145
0.0
146
1.0
147
0.625
148
0.0
 69
0
 70
0
 71
0
 72
0
 73
0
 74
0
 75
0
 76
0
 77
1
 78
8
 79
3
170
0
171
3
172
1
173
0
174
0
175
0
176
0
177
0
178
0
179
2
271
2
272
2
273
2
274
3
275
0
276
0
277
2
278
44
279
0
280
0
281
0
282
0
283
0
284
8
285
0
286
0
288
0
289
3
290
0
371
-2
372
-2
  0
DIMSTYLE
105
73
330
4
100
AcDbSymbolTableRecord
100
AcDbDimStyleTableRecord
  2
EZDXF
 70
0
 40
1.0
 41
0.175
 42
0.125
 43
3.75
 44
0.375
 45
0.0
 46
0.0
 47
0.0
 48
0.0
 49
2.5
140
0.25
141
2.5
142
0.0
143
0.03937007874
144
100.0
145
0.0
146
0.5
147
0.1
148
0.0
 69
0
 70
0
 71
0
 72
0
 73
0
 74
0
 75
0
 76
0
 77
1
 78
12
 79
3
170
0
171
3
172
1
173
0
174
0
175
0
176
0
177
0
178
0
179
2
271
2
272
2
273
2
274
3
275
0
276
0
277
2
278
46
279
2
280
0
281
0
282
0
283
0
284
8
285
0
286
0
288
1
289
3
290
0
340
4C
342
74
371
-2
372
-2
  0
DIMSTYLE
105
7C
330
4
100
AcDbSymbolTableRecord
100
AcDbDimStyleTableRecord
  2
EZ_M_100_H25_CM
 70
0
 40
1.0
 41
0.25
 42
0.125
 43
3.75
 44
0.375
 45
0.0
 46
0.0
 47
0.0
 48
0.0
 49
2.5
140
0.25
141
2.5
142
0.125
143
0.03937007874
144
100.0
145
0.0
146
0.5
147
0.1
148
0.0
 69
0
 70
0
 71
0
 72
0
 73
0
 74
0
 75
0
 76
0
 77
1
 78
12
 79
3
170
0
171
3
172
1
173
0
174
0
175
0
176
0
177
0
178
0
179
2
271
2
272
2
273
2
274
3
275
0
276
0
277
2
278
46
279
2
280
0
281
0
282
0
283
0
284
8
285
0
286
0
288
1
289
3
290
0
340
4C
371
-2
372
-2
  0
DIMSTYLE
105
7D
330
4
100
AcDbSymbolTableRecord
100
AcDbDimStyleTableRecord
  2
EZ_M_50_H25_CM
 70
0
 40
1.0
 41
0.125
 42
0.0625
 43
3.75
 44
0.1875
 45
0.0
 46
0.0
 47
0.0
 48
0.0
 49
2.5
140
0.125
141
2.5
142
0.0625
143
0.03937007874
144
100.0
145
0.0
146
0.5
147
0.05
148
0.0
 69
0
 70
0
 71
0
 72
0
 73
0
 74
0
 75
0
 76
0
 77
1
 78
12
 79
3
170
0
171
3
172
1
173
0
174
0
175
0
176
0
177
0
178
0
179
2
271
2
272
2
273
2
274
3
275
0
276
0
277
2
278
46
279
2
280
0
281
0
282
0
283
0
284
8
285
0
286
0
288
1
289
3
290
0
340
4C
371
-2
372
-2
  0
DIMSTYLE
105
7E
330
4
100
AcDbSymbolTableRecord
100
AcDbDimStyleTableRecord
  2
EZ_M_25_H25_CM
 70
0
 40
1.0
 41
0.0625
 42
0.03125
 43
3.75
 44
0.09375
 45
0.0
 46
0.0
 47
0.0
 48
0.0
 49
2.5
140
0.0625
141
2.5
142
0.03125
143
0.03937007874
144
100.0
145
0.0
146
0.5
147
0.025
148
0.0
 69
0
 70
0
 71
0
 72
0
 73
0
 74
0
 75
0
 76
0
 77
1
 78
12
 79
3
170
0
171
3
172
1
173
0
174
0
175
0
176
0
177
0
178
0
179
2
271
2
272
2
273
2
274
3
275
0
276
0
277
2
278
46
279
2
280
0
281
0
282
0
283
0
284
8
285
0
286
0
288
1
289
3
290
0
340
4C
371
-2
372
-2
  0
DIMSTYLE
105
7F
330
4
100
AcDbSymbolTableRecord
100
AcDbDimStyleTableRecord
  2
EZ_M_20_H25_CM
 70
0
 40
1.0
 41
0.05
 42
0.025
 43
3.75
 44
0.07500000000000001
 45
0.0
 46
0.0
 47
0.0
 48
0.0
 49
2.5
140
0.05
141
2.5
142
0.025
143
0.03937007874
144
100.0
145
0.0
146
0.5
147
0.020000000000000004
148
0.0
 69
0
 70
0
 71
0
 72
0
 73
0
 74
0
 75
0
 76
0
 77
1
 78
12
 79
3
170
0
171
3
172
1
173
0
174
0
175
0
176
0
177
0
178
0
179
2
271
2
272
2
273
2
274
3
275
0
276
0
277
2
278
46
279
2
280
0
281
0
282
0
283
0
284
8
285
0
286
0
288
1
289
3
290
0
340
4C
371
-2
372
-2
  0
DIMSTYLE
105
80
330
4
100
AcDbSymbolTableRecord
100
AcDbDimStyleTableRecord
  2
EZ_M_10_H25_CM
 70
0
 40
1.0
 41
0.025
 42
0.0125
 43
3.75
 44
0.037500000000000006
 45
0.0
 46
0.0
 47
0.0
 48
0.0
 49
2.5
140
0.025
141
2.5
142
0.0125
143
0.03937007874
144
100.0
145
0.0
146
0.5
147
0.010000000000000002
148
0.0
 69
0
 70
0
 71
0
 72
0
 73
0
 74
0
 75
0
 76
0
 77
1
 78
12
 79
3
170
0
171
3
172
1
173
0
174
0
175
0
176
0
177
0
178
0
179
2
271
2
272
2
273
2
274
3
275
0
276
0
277
2
278
46
279
2
280
0
281
0
282
0
283
0
284
8
285
0
286
0
288
1
289
3
290
0
340
4C
371
-2
372
-2
  0
DIMSTYLE
105
81
330
4
100
AcDbSymbolTableRecord
100
AcDbDimStyleTableRecord
  2
EZ_M_5_H25_CM
 70
0
 40
1.0
 41
0.0125
 42
0.00625
 43
3.75
 44
0.018750000000000003
 45
0.0
 46
0.0
 47
0.0
 48
0.0
 49
2.5
140
0.0125
141
2.5
142
0.00625
143
0.03937007874
144
100.0
145
0.0
146
0.5
147
0.005000000000000001
148
0.0
 69
0
 70
0
 71
0
 72
0
 73
0
 74
0
 75
0
 76
0
 77
1
 78
12
 79
3
170
0
171
3
172
1
173
0
174
0
175
0
176
0
177
0
178
0
179
2
271
2
272
2
273
2
274
3
275
0
276
0
277
2
278
46
279
2
280
0
281
0
282
0
283
0
284
8
285
0
286
0
288
1
289
3
290
0
340
4C
371
-2
372
-2
  0
DIMSTYLE
105
82
330
4
100
AcDbSymbolTableRecord
100
AcDbDimStyleTableRecord
  2
EZ_M_1_H25_CM
 70
0
 40
1.0
 41
0.0025
 42
0.00125
 43
3.75
 44
0.00375
 45
0.0
 46
0.0
 47
0.0
 48
0.0
 49
2.5
140
0.0025
141
2.5
142
0.00125
143
0.03937007874
144
100.0
145
0.0
146
0.5
147
0.001
148
0.0
 69
0
 70
0
 71
0
 72
0
 73
0
 74
0
 75
0
 76
0
 77
1
 78
12
 79
3
170
0
171
3
172
1
173
0
174
0
175
0
176
0
177
0
178
0
179
2
271
2
272
2
273
2
274
3
275
0
276
0
277
2
278
46
279
2
280
0
281
0
282
0
283
0
284
8
285
0
286
0
288
1
289
3
290
0
340
4C
371
-2
372
-2
  0
DIMSTYLE
105
83
330
4
100
AcDbSymbolTableRecord
100
AcDbDimStyleTableRecord
  2
EZ_RADIUS
 70
0
 40
1.0
 41
0.25
 42
0.125
 43
3.75
 44
0.375
 45
0.0
 46
0.0
 47
0.0
 48
0.0
 49
2.5
140
0.25
141
0.0
142
0.0
143
0.03937007874
144
100.0
145
0.0
146
0.5
147
0.1
148
0.0
 69
0
 70
0
 71
0
 72
0
 73
0
 74
0
 75
0
 76
0
 77
1
 78
12
 79
3
170
0
171
3
172
0
173
0
174
0
175
0
176
0
177
0
178
0
179
2
271
2
272
2
273
2
274
3
275
0
276
0
277
2
278
46
279
1
280
0
281
0
282
0
283
0
284
8
285
0
286
0
288
1
289
3
290
0
340
4C
342
84
371
-2
372
-2
  0
DIMSTYLE
105
88
330
4
100
AcDbSymbolTableRecord
100
AcDbDimStyleTableRecord
  2
EZ_RADIUS_INSIDE
 70
0
 40
1.0
 41
0.25
 42
0.125
 43
3.75
 44
0.375
 45
0.0
 46
0.0
 47
0.0
 48
0.0
 49
2.5
140
0.25
141
0.0
142
0.0
143
0.03937007874
144
100.0
145
0.0
146
0.5
147
0.1
148
0.0
 69
0
 70
0
 71
0
 72
0
 73
0
 74
0
 75
0
 76
0
 77
0
 78
12
 79
3
170
0
171
3
172
0
173
0
174
1
175
0
176
0
177
0
178
0
179
2
271
2
272
2
273
2
274
3
275
0
276
0
277
2
278
46
279
0
280
0
281
0
282
0
283
0
284
8
285
0
286
0
288
1
289
0
290
0
340
4C
342
84
371
-2
372
-2
  0
DIMSTYLE
105
89
330
4
100
AcDbSymbolTableRecord
100
AcDbDimStyleTableRecord
  2
EZ_CURVED
 70
0
 40
1.0
 41
0.25
 42
0.125
 43
3.75
 44
0.375
 45
0.0
 46
0.0
 47
0.0
 48
0.0
 49
2.5
140
0.25
141
2.5
142
0.0
143
0.03937007874
144
100.0
145
0.0
146
0.5
147
0.1
148
0.0
 69
0
 70
0
 71
0
 72
0
 73
0
 74
0
 75
0
 76
0
 77
1
 78
12
 79
2
 90
2
170
0
171
3
172
1
173
0
174
0
175
0
176
0
177
0
178
0
179
2
271
2
272
2
273
2
274
3
275
0
276
0
277
2
278
46
279
2
280
0
281
0
282
0
283
0
284
8
285
0
286
0
288
1
289
3
290
0
340
4C
371
-2
372
-2
  0
ENDTAB
  0
TABLE
  2
BLOCK_RECORD
  5
9
330
0
100
AcDbSymbolTable
 70
5
  0
BLOCK_RECORD
  5
17
330
9
100
AcDbSymbolTableRecord
100
AcDbBlockTableRecord
  2
*Model_Space
340
1A
 70
0
280
1
281
0
  0
BLOCK_RECORD
  5
1B
330
9
100
AcDbSymbolTableRecord
100
AcDbBlockTableRecord
  2
*Paper_Space
340
1E
 70
0
280
1
281
0
  0
BLOCK_RECORD
  5
74
330
9
100
AcDbSymbolTableRecord
100
AcDbBlockTableRecord
  2
_ARCHTICK
340
0
 70
0
280
1
281
0
  0
BLOCK_RECORD
  5
78
330
9
100
AcDbSymbolTableRecord
100
AcDbBlockTableRecord
  2
_CLOSEDFILLED
340
0
 70
0
280
1
281
0
  0
BLOCK_RECORD
  5
84
330
9
100
AcDbSymbolTableRecord
100
AcDbBlockTableRecord
  2
_CLOSEDBLANK
340
0
 70
0
280
1
281
0
  0
ENDTAB
  0
ENDSEC
  0
SECTION
  2
BLOCKS
  0
BLOCK
  5
18
330
17
100
AcDbEntity
  8
0
100
AcDbBlockBegin
  2
*Model_Space
 70
0
 10
0.0
 20
0.0
 30
0.0
  3
*Model_Space
  1

  0
ENDBLK
  5
19
330
17
100
AcDbEntity
  8
0
100
AcDbBlockEnd
  0
BLOCK
  5
1C
330
1B
100
AcDbEntity
  8
0
100
AcDbBlockBegin
  2
*Paper_Space
 70
0
 10
0.0
 20
0.0
 30
0.0
  3
*Paper_Space
  1

  0
ENDBLK
  5
1D
330
1B
100
AcDbEntity
  8
0
100
AcDbBlockEnd
  0
BLOCK
  5
75
330
74
100
AcDbEntity
  8
0
100
AcDbBlockBegin
  2
_ARCHTICK
 70
0
 10
0.0
 20
0.0
 30
0.0
  3
_ARCHTICK
  1

  0
LWPOLYLINE
  5
77
330
74
100
AcDbEntity
  8
0
  6
BYBLOCK
 62
0
100
AcDbPolyline
 90
2
 70
0
 43
0.15
 10
-0.5
 20
-0.5
 10
0.5
 20
0.5
  0
ENDBLK
  5
76
330
74
100
AcDbEntity
  8
0
100
AcDbBlockEnd
  0
BLOCK
  5
79
330
78
100
AcDbEntity
  8
0
100
AcDbBlockBegin
  2
_CLOSEDFILLED
 70
0
 10
0.0
 20
0.0
 30
0.0
  3
_CLOSEDFILLED
  1

  0
SOLID
  5
7B
330
78
100
AcDbEntity
  8
0
  6
BYBLOCK
 62
0
100
AcDbTrace
 10
-1.0
 20
0.16439898372402537
 30
0.0
 11
0.0
 21
0.0
 31
0.0
 12
-1.0
 22
-0.16439898372402537
 32
0.0
 13
-1.0
 23
-0.16439898372402537
 33
0.0
  0
ENDBLK
  5
7A
330
78
100
AcDbEntity
  8
0
100
AcDbBlockEnd
  0
BLOCK
  5
85
330
84
100
AcDbEntity
  8
0
100
AcDbBlockBegin
  2
_CLOSEDBLANK
 70
0
 10
0.0
 20
0.0
 30
0.0
  3
_CLOSEDBLANK
  1

  0
LWPOLYLINE
  5
87
330
84
100
AcDbEntity
  8
0
  6
BYBLOCK
 62
0
100
AcDbPolyline
 90
3
 70
1
 10
-1.0
 20
0.16439898372402537
 10
0.0
 20
0.0
 10
-1.0
 20
-0.16439898372402537
  0
ENDBLK
  5
86
330
84
100
AcDbEntity
  8
0
100
AcDbBlockEnd
  0
ENDSEC
  0
SECTION
  2
ENTITIES
  0
LWPOLYLINE
  5
9B
330
17
100
AcDbEntity
  8
TID-FRAME
100
AcDbPolyline
 90
4
 70
1
 10
0.0
 20
0.0
 10
10400.0
 20
0.0
 10
10400.0
 20
4200.0
 10
0.0
 20
4200.0
  0
LINE
  5
9C
330
17
100
AcDbEntity
  8
TID-FRAME
100
AcDbLine
 10
5200.0
 20
0.0
 30
0.0
 11
5200.0
 21
4200.0
 31
0.0
  0
LWPOLYLINE
  5
9D
330
17
100
AcDbEntity
  8
TID-STRUCTURE
100
AcDbPolyline
 90
2
 70
0
 10
1400.0
 20
3760.0
 10
3200.0
 20
3760.0
  0
LWPOLYLINE
  5
9E
330
17
100
AcDbEntity
  8
TID-STRUCTURE
100
AcDbPolyline
 90
2
 70
0
 10
1400.0
 20
3775.0
 10
3200.0
 20
3775.0
  0
LWPOLYLINE
  5
9F
330
17
100
AcDbEntity
  8
TID-STRUCTURE
100
AcDbPolyline
 90
2
 70
0
 10
2325.0
 20
3650.0
 10
2325.0
 20
3760.0
  0
HATCH
  5
A0
330
17
100
AcDbEntity
  8
TID-HATCH
 62
7
420
13487565
100
AcDbHatch
 10
0.0
 20
0.0
 30
0.0
210
0.0
220
0.0
230
1.0
  2
SOLID
 70
1
 71
0
 91
1
 92
3
 72
0
 73
1
 93
4
 10
2275.0
 20
3500.0
 10
2325.0
 20
3500.0
 10
2325.0
 20
3650.0
 10
2275.0
 20
3650.0
 97
0
 75
1
 76
1
 98
0
  0
LWPOLYLINE
  5
A1
330
17
100
AcDbEntity
  8
TID-STRUCTURE
100
AcDbPolyline
 90
6
 70
0
 10
2275.0
 20
3630.0
 10
2275.0
 20
3650.0
 10
2325.0
 20
3650.0
 10
2325.0
 20
3500.0
 10
2275.0
 20
3500.0
 10
2275.0
 20
3520.0
  0
LWPOLYLINE
  5
A2
330
17
100
AcDbEntity
  8
TID-STRUCTURE
100
AcDbPolyline
 90
2
 70
0
 10
2275.0
 20
3500.0
 10
2275.0
 20
3650.0
  0
HATCH
  5
A3
330
17
100
AcDbEntity
  8
TID-HATCH
 62
7
420
16098630
100
AcDbHatch
 10
0.0
 20
0.0
 30
0.0
210
0.0
220
0.0
230
1.0
  2
SOLID
 70
1
 71
0
 91
1
 92
3
 72
0
 73
1
 93
4
 10
2255.0
 20
3455.0
 10
2345.0
 20
3455.0
 10
2345.0
 20
3508.0
 10
2255.0
 20
3508.0
 97
0
 75
1
 76
1
 98
0
  0
LWPOLYLINE
  5
A4
330
17
100
AcDbEntity
  8
TID-E-SUPPORT
100
AcDbPolyline
 90
4
 70
1
 10
2255.0
 20
3455.0
 10
2345.0
 20
3455.0
 10
2345.0
 20
3508.0
 10
2255.0
 20
3508.0
  0
LWPOLYLINE
  5
A5
330
17
100
AcDbEntity
  8
TID-E-SUPPORT
100
AcDbPolyline
 90
4
 70
1
 10
2295.0
 20
2940.0
 10
2305.0
 20
2940.0
 10
2305.0
 20
3455.0
 10
2295.0
 20
3455.0
  0
LWPOLYLINE
  5
A6
330
17
100
AcDbEntity
  8
TID-E-SUPPORT
100
AcDbPolyline
 90
4
 70
1
 10
2286.0
 20
3430.0
 10
2314.0
 20
3430.0
 10
2314.0
 20
3446.0
 10
2286.0
 20
3446.0
  0
LWPOLYLINE
  5
A7
330
17
100
AcDbEntity
  8
TID-E-SUPPORT
100
AcDbPolyline
 90
4
 70
1
 10
2286.0
 20
3010.0
 10
2314.0
 20
3010.0
 10
2314.0
 20
3026.0
 10
2286.0
 20
3026.0
  0
LWPOLYLINE
  5
A8
330
17
100
AcDbEntity
  8
TID-E-SUPPORT
100
AcDbPolyline
 90
4
 70
1
 10
2286.0
 20
2942.0
 10
2314.0
 20
2942.0
 10
2314.0
 20
2958.0
 10
2286.0
 20
2958.0
  0
HATCH
  5
A9
330
17
100
AcDbEntity
  8
TID-HATCH
 62
7
420
16098630
100
AcDbHatch
 10
0.0
 20
0.0
 30
0.0
210
0.0
220
0.0
230
1.0
  2
SOLID
 70
1
 71
0
 91
1
 92
3
 72
0
 73
1
 93
4
 10
2100.0
 20
2959.0
 10
2500.0
 20
2959.0
 10
2500.0
 20
3000.0
 10
2100.0
 20
3000.0
 97
0
 75
1
 76
1
 98
0
  0
LWPOLYLINE
  5
AA
330
17
100
AcDbEntity
  8
TID-E-SUPPORT
100
AcDbPolyline
 90
4
 70
1
 10
2100.0
 20
2959.0
 10
2500.0
 20
2959.0
 10
2500.0
 20
3000.0
 10
2100.0
 20
3000.0
  0
LINE
  5
AB
330
17
100
AcDbEntity
  8
TID-E-SUPPORT
100
AcDbLine
 10
2100.0
 20
2970.0
 30
0.0
 11
2500.0
 21
2970.0
 31
0.0
  0
LWPOLYLINE
  5
AC
330
17
100
AcDbEntity
  8
TID-E-SUPPORT
100
AcDbPolyline
 90
4
 70
1
 10
2145.0
 20
2310.0
 10
2155.0
 20
2310.0
 10
2155.0
 20
2959.0
 10
2145.0
 20
2959.0
  0
LWPOLYLINE
  5
AD
330
17
100
AcDbEntity
  8
TID-E-SUPPORT
100
AcDbPolyline
 90
4
 70
1
 10
2136.0
 20
2325.0
 10
2164.0
 20
2325.0
 10
2164.0
 20
2341.0
 10
2136.0
 20
2341.0
  0
LWPOLYLINE
  5
AE
330
17
100
AcDbEntity
  8
TID-E-SUPPORT
100
AcDbPolyline
 90
4
 70
1
 10
2445.0
 20
2310.0
 10
2455.0
 20
2310.0
 10
2455.0
 20
2959.0
 10
2445.0
 20
2959.0
  0
LWPOLYLINE
  5
AF
330
17
100
AcDbEntity
  8
TID-E-SUPPORT
100
AcDbPolyline
 90
4
 70
1
 10
2436.0
 20
2325.0
 10
2464.0
 20
2325.0
 10
2464.0
 20
2341.0
 10
2436.0
 20
2341.0
  0
HATCH
  5
B0
330
17
100
AcDbEntity
  8
TID-HATCH
 62
7
420
16098630
100
AcDbHatch
 10
0.0
 20
0.0
 30
0.0
210
0.0
220
0.0
230
1.0
  2
SOLID
 70
1
 71
0
 91
1
 92
3
 72
0
 73
1
 93
4
 10
2100.0
 20
2359.0
 10
2500.0
 20
2359.0
 10
2500.0
 20
2400.0
 10
2100.0
 20
2400.0
 97
0
 75
1
 76
1
 98
0
  0
LWPOLYLINE
  5
B1
330
17
100
AcDbEntity
  8
TID-E-SUPPORT
100
AcDbPolyline
 90
4
 70
1
 10
2100.0
 20
2359.0
 10
2500.0
 20
2359.0
 10
2500.0
 20
2400.0
 10
2100.0
 20
2400.0
  0
HATCH
  5
B2
330
17
100
AcDbEntity
  8
TID-HATCH
 62
7
420
12505840
100
AcDbHatch
 10
0.0
 20
0.0
 30
0.0
210
0.0
220
0.0
230
1.0
  2
SOLID
 70
1
 71
0
 91
1
 92
3
 72
0
 73
1
 93
4
 10
2200.0
 20
2400.0
 10
2400.0
 20
2400.0
 10
2400.0
 20
2500.0
 10
2200.0
 20
2500.0
 97
0
 75
1
 76
1
 98
0
  0
LWPOLYLINE
  5
B3
330
17
100
AcDbEntity
  8
TID-E-LADDER
100
AcDbPolyline
 90
4
 70
1
 10
2200.0
 20
2400.0
 10
2400.0
 20
2400.0
 10
2400.0
 20
2500.0
 10
2200.0
 20
2500.0
  0
LWPOLYLINE
  5
B4
330
17
100
AcDbEntity
  8
TID-E-LADDER
100
AcDbPolyline
 90
4
 70
0
 43
4.0
 10
2194.0
 20
2492.0
 10
2194.0
 20
2506.0
 10
2406.0
 20
2506.0
 10
2406.0
 20
2492.0
  0
CIRCLE
  5
B5
330
17
100
AcDbEntity
  8
TID-E-LIGHTING
100
AcDbCircle
 10
2230.0
 20
2416.0
 30
0.0
 40
12.0
  0
CIRCLE
  5
B6
330
17
100
AcDbEntity
  8
TID-E-LIGHTING
100
AcDbCircle
 10
2245.0
 20
2440.0
 30
0.0
 40
12.0
  0
CIRCLE
  5
B7
330
17
100
AcDbEntity
  8
TID-E-LIGHTING
100
AcDbCircle
 10
2260.0
 20
2416.0
 30
0.0
 40
12.0
  0
CIRCLE
  5
B8
330
17
100
AcDbEntity
  8
TID-E-LIGHTING
100
AcDbCircle
 10
2275.0
 20
2440.0
 30
0.0
 40
12.0
  0
CIRCLE
  5
B9
330
17
100
AcDbEntity
  8
TID-E-LIGHTING
100
AcDbCircle
 10
2290.0
 20
2416.0
 30
0.0
 40
12.0
  0
CIRCLE
  5
BA
330
17
100
AcDbEntity
  8
TID-E-LIGHTING
100
AcDbCircle
 10
2305.0
 20
2440.0
 30
0.0
 40
12.0
  0
CIRCLE
  5
BB
330
17
100
AcDbEntity
  8
TID-E-LIGHTING
100
AcDbCircle
 10
2320.0
 20
2416.0
 30
0.0
 40
12.0
  0
CIRCLE
  5
BC
330
17
100
AcDbEntity
  8
TID-E-LIGHTING
100
AcDbCircle
 10
2350.0
 20
2416.0
 30
0.0
 40
12.0
  0
CIRCLE
  5
BD
330
17
100
AcDbEntity
  8
TID-E-LIGHTING
100
AcDbCircle
 10
2375.0
 20
2416.0
 30
0.0
 40
12.0
  0
CIRCLE
  5
BE
330
17
100
AcDbEntity
  8
TID-E-SUPPORT
100
AcDbCircle
 10
2300.0
 20
2340.0
 30
0.0
 40
12.0
  0
LWPOLYLINE
  5
BF
330
17
100
AcDbEntity
  8
TID-E-SUPPORT
100
AcDbPolyline
 90
4
 70
1
 10
2295.0
 20
2350.0
 10
2305.0
 20
2350.0
 10
2305.0
 20
2359.0
 10
2295.0
 20
2359.0
  0
ELLIPSE
  5
C0
330
17
100
AcDbEntity
  8
TID-E-SUPPORT
100
AcDbEllipse
 10
2300.0
 20
2310.0
 30
0.0
 11
0.0
 21
20.0
 31
0.0
 40
0.45
 41
0.0
 42
6.283185307179586
  0
LWPOLYLINE
  5
C1
330
17
100
AcDbEntity
  8
TID-E-SUPPORT
100
AcDbPolyline
 90
4
 70
1
 10
2294.0
 20
2256.0
 10
2306.0
 20
2256.0
 10
2306.0
 20
2292.0
 10
2294.0
 20
2292.0
  0
ELLIPSE
  5
C2
330
17
100
AcDbEntity
  8
TID-E-SUPPORT
100
AcDbEllipse
 10
2300.0
 20
2238.0
 30
0.0
 11
0.0
 21
20.0
 31
0.0
 40
0.45
 41
0.0
 42
6.283185307179586
  0
LWPOLYLINE
  5
C3
330
17
100
AcDbEntity
  8
TID-E-SUPPORT
100
AcDbPolyline
 90
4
 70
1
 10
2294.0
 20
2184.0
 10
2306.0
 20
2184.0
 10
2306.0
 20
2220.0
 10
2294.0
 20
2220.0
  0
ELLIPSE
  5
C4
330
17
100
AcDbEntity
  8
TID-E-SUPPORT
100
AcDbEllipse
 10
2300.0
 20
2166.0
 30
0.0
 11
0.0
 21
20.0
 31
0.0
 40
0.45
 41
0.0
 42
6.283185307179586
  0
LWPOLYLINE
  5
C5
330
17
100
AcDbEntity
  8
TID-E-SUPPORT
100
AcDbPolyline
 90
4
 70
1
 10
2294.0
 20
2112.0
 10
2306.0
 20
2112.0
 10
2306.0
 20
2148.0
 10
2294.0
 20
2148.0
  0
ELLIPSE
  5
C6
330
17
100
AcDbEntity
  8
TID-E-SUPPORT
100
AcDbEllipse
 10
2300.0
 20
2094.0
 30
0.0
 11
0.0
 21
20.0
 31
0.0
 40
0.45
 41
0.0
 42
6.283185307179586
  0
LWPOLYLINE
  5
C7
330
17
100
AcDbEntity
  8
TID-E-SUPPORT
100
AcDbPolyline
 90
4
 70
1
 10
2294.0
 20
2040.0
 10
2306.0
 20
2040.0
 10
2306.0
 20
2076.0
 10
2294.0
 20
2076.0
  0
ELLIPSE
  5
C8
330
17
100
AcDbEntity
  8
TID-E-SUPPORT
100
AcDbEllipse
 10
2300.0
 20
2022.0
 30
0.0
 11
0.0
 21
20.0
 31
0.0
 40
0.45
 41
0.0
 42
6.283185307179586
  0
LWPOLYLINE
  5
C9
330
17
100
AcDbEntity
  8
TID-E-SUPPORT
100
AcDbPolyline
 90
4
 70
1
 10
2294.0
 20
1968.0
 10
2306.0
 20
1968.0
 10
2306.0
 20
2004.0
 10
2294.0
 20
2004.0
  0
LWPOLYLINE
  5
CA
330
17
100
AcDbEntity
  8
TID-E-LIGHTING
100
AcDbPolyline
 90
4
 70
0
 10
2288.0
 20
1940.0
 10
2288.0
 20
1900.0
 10
2312.0
 20
1900.0
 10
2312.0
 20
1940.0
  0
HATCH
  5
CB
330
17
100
AcDbEntity
  8
TID-HATCH
 62
7
420
9868950
100
AcDbHatch
 10
0.0
 20
0.0
 30
0.0
210
0.0
220
0.0
230
1.0
  2
SOLID
 70
1
 71
0
 91
1
 92
3
 72
0
 73
1
 93
4
 10
2190.0
 20
1810.0
 10
2410.0
 20
1810.0
 10
2410.0
 20
1900.0
 10
2190.0
 20
1900.0
 97
0
 75
1
 76
1
 98
0
  0
LWPOLYLINE
  5
CC
330
17
100
AcDbEntity
  8
TID-E-LIGHTING
100
AcDbPolyline
 90
4
 70
1
 10
2190.0
 20
1810.0
 10
2410.0
 20
1810.0
 10
2410.0
 20
1900.0
 10
2190.0
 20
1900.0
  0
HATCH
  5
CD
330
17
100
AcDbEntity
  8
TID-HATCH
 62
7
420
5921370
100
AcDbHatch
 10
0.0
 20
0.0
 30
0.0
210
0.0
220
0.0
230
1.0
  2
SOLID
 70
1
 71
0
 91
1
 92
3
 72
0
 73
1
 93
4
 10
2100.0
 20
1710.0
 10
2500.0
 20
1710.0
 10
2500.0
 20
1810.0
 10
2100.0
 20
1810.0
 97
0
 75
1
 76
1
 98
0
  0
LINE
  5
CE
330
17
100
AcDbEntity
  8
TID-E-LIGHTING
100
AcDbLine
 10
2110.0
 20
1715.0
 30
0.0
 11
2110.0
 21
1810.0
 31
0.0
  0
LINE
  5
CF
330
17
100
AcDbEntity
  8
TID-E-LIGHTING
100
AcDbLine
 10
2130.0
 20
1715.0
 30
0.0
 11
2130.0
 21
1810.0
 31
0.0
  0
LINE
  5
D0
330
17
100
AcDbEntity
  8
TID-E-LIGHTING
100
AcDbLine
 10
2150.0
 20
1715.0
 30
0.0
 11
2150.0
 21
1810.0
 31
0.0
  0
LINE
  5
D1
330
17
100
AcDbEntity
  8
TID-E-LIGHTING
100
AcDbLine
 10
2170.0
 20
1715.0
 30
0.0
 11
2170.0
 21
1810.0
 31
0.0
  0
LINE
  5
D2
330
17
100
AcDbEntity
  8
TID-E-LIGHTING
100
AcDbLine
 10
2190.0
 20
1715.0
 30
0.0
 11
2190.0
 21
1810.0
 31
0.0
  0
LINE
  5
D3
330
17
100
AcDbEntity
  8
TID-E-LIGHTING
100
AcDbLine
 10
2210.0
 20
1715.0
 30
0.0
 11
2210.0
 21
1810.0
 31
0.0
  0
LINE
  5
D4
330
17
100
AcDbEntity
  8
TID-E-LIGHTING
100
AcDbLine
 10
2230.0
 20
1715.0
 30
0.0
 11
2230.0
 21
1810.0
 31
0.0
  0
LINE
  5
D5
330
17
100
AcDbEntity
  8
TID-E-LIGHTING
100
AcDbLine
 10
2250.0
 20
1715.0
 30
0.0
 11
2250.0
 21
1810.0
 31
0.0
  0
LINE
  5
D6
330
17
100
AcDbEntity
  8
TID-E-LIGHTING
100
AcDbLine
 10
2270.0
 20
1715.0
 30
0.0
 11
2270.0
 21
1810.0
 31
0.0
  0
LINE
  5
D7
330
17
100
AcDbEntity
  8
TID-E-LIGHTING
100
AcDbLine
 10
2290.0
 20
1715.0
 30
0.0
 11
2290.0
 21
1810.0
 31
0.0
  0
LINE
  5
D8
330
17
100
AcDbEntity
  8
TID-E-LIGHTING
100
AcDbLine
 10
2310.0
 20
1715.0
 30
0.0
 11
2310.0
 21
1810.0
 31
0.0
  0
LINE
  5
D9
330
17
100
AcDbEntity
  8
TID-E-LIGHTING
100
AcDbLine
 10
2330.0
 20
1715.0
 30
0.0
 11
2330.0
 21
1810.0
 31
0.0
  0
LINE
  5
DA
330
17
100
AcDbEntity
  8
TID-E-LIGHTING
100
AcDbLine
 10
2350.0
 20
1715.0
 30
0.0
 11
2350.0
 21
1810.0
 31
0.0
  0
LINE
  5
DB
330
17
100
AcDbEntity
  8
TID-E-LIGHTING
100
AcDbLine
 10
2370.0
 20
1715.0
 30
0.0
 11
2370.0
 21
1810.0
 31
0.0
  0
LINE
  5
DC
330
17
100
AcDbEntity
  8
TID-E-LIGHTING
100
AcDbLine
 10
2390.0
 20
1715.0
 30
0.0
 11
2390.0
 21
1810.0
 31
0.0
  0
LINE
  5
DD
330
17
100
AcDbEntity
  8
TID-E-LIGHTING
100
AcDbLine
 10
2410.0
 20
1715.0
 30
0.0
 11
2410.0
 21
1810.0
 31
0.0
  0
LINE
  5
DE
330
17
100
AcDbEntity
  8
TID-E-LIGHTING
100
AcDbLine
 10
2430.0
 20
1715.0
 30
0.0
 11
2430.0
 21
1810.0
 31
0.0
  0
LINE
  5
DF
330
17
100
AcDbEntity
  8
TID-E-LIGHTING
100
AcDbLine
 10
2450.0
 20
1715.0
 30
0.0
 11
2450.0
 21
1810.0
 31
0.0
  0
LINE
  5
E0
330
17
100
AcDbEntity
  8
TID-E-LIGHTING
100
AcDbLine
 10
2470.0
 20
1715.0
 30
0.0
 11
2470.0
 21
1810.0
 31
0.0
  0
LINE
  5
E1
330
17
100
AcDbEntity
  8
TID-E-LIGHTING
100
AcDbLine
 10
2490.0
 20
1715.0
 30
0.0
 11
2490.0
 21
1810.0
 31
0.0
  0
LWPOLYLINE
  5
E2
330
17
100
AcDbEntity
  8
TID-E-LIGHTING
100
AcDbPolyline
 90
4
 70
1
 10
2100.0
 20
1710.0
 10
2500.0
 20
1710.0
 10
2500.0
 20
1810.0
 10
2100.0
 20
1810.0
  0
HATCH
  5
E3
330
17
100
AcDbEntity
  8
TID-HATCH
 62
7
420
16445620
100
AcDbHatch
 10
0.0
 20
0.0
 30
0.0
210
0.0
220
0.0
230
1.0
  2
SOLID
 70
1
 71
0
 91
1
 92
3
 72
0
 73
1
 93
4
 10
2110.0
 20
1710.0
 10
2490.0
 20
1710.0
 10
2470.0
 20
1685.0
 10
2130.0
 20
1685.0
 97
0
 75
1
 76
1
 98
0
  0
LWPOLYLINE
  5
E4
330
17
100
AcDbEntity
  8
TID-E-LIGHTING
100
AcDbPolyline
 90
4
 70
1
 10
2110.0
 20
1710.0
 10
2490.0
 20
1710.0
 10
2470.0
 20
1685.0
 10
2130.0
 20
1685.0
  0
LINE
  5
E5
330
17
100
AcDbEntity
  8
TID-HIDDEN
100
AcDbLine
 10
2150.0
 20
1660.0
 30
0.0
 11
2030.0
 21
1380.0
 31
0.0
  0
LINE
  5
E6
330
17
100
AcDbEntity
  8
TID-HIDDEN
100
AcDbLine
 10
2240.0
 20
1660.0
 30
0.0
 11
2192.0
 21
1380.0
 31
0.0
  0
LINE
  5
E7
330
17
100
AcDbEntity
  8
TID-HIDDEN
100
AcDbLine
 10
2360.0
 20
1660.0
 30
0.0
 11
2408.0
 21
1380.0
 31
0.0
  0
LINE
  5
E8
330
17
100
AcDbEntity
  8
TID-HIDDEN
100
AcDbLine
 10
2450.0
 20
1660.0
 30
0.0
 11
2570.0
 21
1380.0
 31
0.0
  0
LWPOLYLINE
  5
E9
330
17
100
AcDbEntity
  8
TID-E-CONDUIT
100
AcDbPolyline
 90
7
 70
0
 43
22.0
 10
2400.0
 20
2450.0
 10
2470.0
 20
2450.0
 10
2560.0
 20
2400.0
 10
2600.0
 20
2250.0
 10
2590.0
 20
1880.0
 10
2530.0
 20
1855.0
 10
2410.0
 20
1855.0
  0
LWPOLYLINE
  5
EA
330
17
100
AcDbEntity
  8
TID-E-CONDUIT
100
AcDbPolyline
 90
4
 70
1
 10
2400.0
 20
2438.0
 10
2425.0
 20
2438.0
 10
2425.0
 20
2462.0
 10
2400.0
 20
2462.0
  0
LWPOLYLINE
  5
EB
330
17
100
AcDbEntity
  8
TID-E-CONDUIT
100
AcDbPolyline
 90
4
 70
1
 10
2398.0
 20
1843.0
 10
2410.0
 20
1843.0
 10
2410.0
 20
1867.0
 10
2398.0
 20
1867.0
  0
LINE
  5
EC
330
17
100
AcDbEntity
  8
TID-ELC DIMENTION
100
AcDbLine
 10
1740.0
 20
2400.0
 30
0.0
 11
1740.0
 21
2500.0
 31
0.0
  0
LINE
  5
ED
330
17
100
AcDbEntity
  8
TID-ELC DIMENTION
100
AcDbLine
 10
1726.56
 20
2386.56
 30
0.0
 11
1753.44
 21
2413.44
 31
0.0
  0
LINE
  5
EE
330
17
100
AcDbEntity
  8
TID-ELC DIMENTION
100
AcDbLine
 10
1726.56
 20
2486.56
 30
0.0
 11
1753.44
 21
2513.44
 31
0.0
  0
TEXT
  5
EF
330
17
100
AcDbEntity
  8
TID-ELC DIMENTION
100
AcDbText
 10
1729.92
 20
2450.0
 30
0.0
 40
33.6
  1
100
 50
90.0
  7
TX-AN
 41
0.9
 72
1
 11
1729.92
 21
2450.0
 31
0.0
100
AcDbText
 73
1
  0
LINE
  5
F0
330
17
100
AcDbEntity
  8
TID-ELC DIMENTION
100
AcDbLine
 10
2200.0
 20
2580.0
 30
0.0
 11
2400.0
 21
2580.0
 31
0.0
  0
LINE
  5
F1
330
17
100
AcDbEntity
  8
TID-ELC DIMENTION
100
AcDbLine
 10
2186.56
 20
2566.56
 30
0.0
 11
2213.44
 21
2593.44
 31
0.0
  0
LINE
  5
F2
330
17
100
AcDbEntity
  8
TID-ELC DIMENTION
100
AcDbLine
 10
2386.56
 20
2566.56
 30
0.0
 11
2413.44
 21
2593.44
 31
0.0
  0
TEXT
  5
F3
330
17
100
AcDbEntity
  8
TID-ELC DIMENTION
100
AcDbText
 10
2300.0
 20
2590.08
 30
0.0
 40
33.6
  1
200
  7
TX-AN
 41
0.9
 72
1
 11
2300.0
 21
2590.08
 31
0.0
100
AcDbText
 73
1
  0
LINE
  5
F4
330
17
100
AcDbEntity
  8
TID-ELC DIMENTION
100
AcDbLine
 10
1740.0
 20
3000.0
 30
0.0
 11
1740.0
 21
3500.0
 31
0.0
  0
LINE
  5
F5
330
17
100
AcDbEntity
  8
TID-ELC DIMENTION
100
AcDbLine
 10
1726.56
 20
2986.56
 30
0.0
 11
1753.44
 21
3013.44
 31
0.0
  0
LINE
  5
F6
330
17
100
AcDbEntity
  8
TID-ELC DIMENTION
100
AcDbLine
 10
1726.56
 20
3486.56
 30
0.0
 11
1753.44
 21
3513.44
 31
0.0
  0
TEXT
  5
F7
330
17
100
AcDbEntity
  8
TID-ELC DIMENTION
100
AcDbText
 10
1729.92
 20
3250.0
 30
0.0
 40
33.6
  1
VARIES
 50
90.0
  7
TX-AN
 41
0.9
 72
1
 11
1729.92
 21
3250.0
 31
0.0
100
AcDbText
 73
1
  0
LINE
  5
F8
330
17
100
AcDbEntity
  8
TID-ELC DIMENTION
100
AcDbLine
 10
1740.0
 20
1685.0
 30
0.0
 11
1740.0
 21
2359.0
 31
0.0
  0
LINE
  5
F9
330
17
100
AcDbEntity
  8
TID-ELC DIMENTION
100
AcDbLine
 10
1726.56
 20
1671.56
 30
0.0
 11
1753.44
 21
1698.44
 31
0.0
  0
LINE
  5
FA
330
17
100
AcDbEntity
  8
TID-ELC DIMENTION
100
AcDbLine
 10
1726.56
 20
2345.56
 30
0.0
 11
1753.44
 21
2372.44
 31
0.0
  0
TEXT
  5
FB
330
17
100
AcDbEntity
  8
TID-ELC DIMENTION
100
AcDbText
 10
1729.92
 20
2022.0
 30
0.0
 40
33.6
  1
± 450
 50
90.0
  7
TX-AN
 41
0.9
 72
1
 11
1729.92
 21
2022.0
 31
0.0
100
AcDbText
 73
1
  0
LINE
  5
FC
330
17
100
AcDbEntity
  8
TID-ELC DIMENTION
100
AcDbLine
 10
1700.0
 20
3500.0
 30
0.0
 11
2270.0
 21
3500.0
 31
0.0
  0
LINE
  5
FD
330
17
100
AcDbEntity
  8
TID-ELC DIMENTION
100
AcDbLine
 10
1700.0
 20
3000.0
 30
0.0
 11
2090.0
 21
3000.0
 31
0.0
  0
LINE
  5
FE
330
17
100
AcDbEntity
  8
TID-ELC DIMENTION
100
AcDbLine
 10
1700.0
 20
2500.0
 30
0.0
 11
2190.0
 21
2500.0
 31
0.0
  0
LINE
  5
FF
330
17
100
AcDbEntity
  8
TID-ELC DIMENTION
100
AcDbLine
 10
1700.0
 20
2400.0
 30
0.0
 11
2090.0
 21
2400.0
 31
0.0
  0
LINE
  5
100
330
17
100
AcDbEntity
  8
TID-ELC DIMENTION
100
AcDbLine
 10
1700.0
 20
2359.0
 30
0.0
 11
2090.0
 21
2359.0
 31
0.0
  0
LINE
  5
101
330
17
100
AcDbEntity
  8
TID-ELC DIMENTION
100
AcDbLine
 10
1700.0
 20
1685.0
 30
0.0
 11
2090.0
 21
1685.0
 31
0.0
  0
LWPOLYLINE
  5
102
330
17
100
AcDbEntity
  8
TID-STRUCTURE
100
AcDbPolyline
 90
2
 70
0
 43
6.0
 10
1400.0
 20
750.0
 10
3200.0
 20
750.0
  0
HATCH
  5
103
330
17
100
AcDbEntity
  8
TID-HATCH
 62
7
100
AcDbHatch
 10
0.0
 20
0.0
 30
0.0
210
0.0
220
0.0
230
1.0
  2
AR-CONC
 70
0
 71
0
 91
1
 92
3
 72
0
 73
1
 93
4
 10
1400.0
 20
690.0
 10
3200.0
 20
690.0
 10
3200.0
 20
750.0
 10
1400.0
 20
750.0
 97
0
 75
1
 76
1
 52
0.0
 41
0.4
 77
0
 78
13
 53
50.0
 43
0.0
 44
0.0
 45
72.8738675984
 46
-6.3756342156
 79
2
 49
7.62
 49
-83.82
 53
355.0
 43
0.0
 44
0.0
 45
-14.09736857
 46
76.4227380956
 79
2
 49
6.096
 49
-67.056233668
 53
100.4514447
 43
6.0728028
 44
-0.5313014
 45
58.7764988362
 46
70.0471007649
 79
2
 49
6.47600352
 49
-71.23609784
 53
46.1842
 43
0.0
 44
20.32
 45
108.4316163568
 46
-16.8169311731
 79
2
 49
11.43
 49
-125.73
 53
96.63555761
 43
9.03596
 44
18.9186
 45
94.9616536206
 46
98.9704498391
 79
2
 49
9.714009256
 49
-106.854243264
 53
351.18415117
 43
0.0
 44
20.32
 45
94.961653626
 46
98.9704498342
 79
2
 49
9.143986828
 49
-100.583892768
 53
21.0
 43
10.16
 44
15.24
 45
60.6457565076
 46
-40.9060792748
 79
2
 49
7.62
 49
-83.82
 53
326.0
 43
10.16
 44
15.24
 45
24.720811339
 46
73.6751864489
 79
2
 49
6.096
 49
-67.056
 53
71.451445
 43
15.21381304
 44
11.83116004
 45
85.3665677115
 46
32.7691075544
 79
2
 49
6.47600352
 49
-71.23597504
 53
37.5
 43
0.0
 44
0.0
 45
1.2354413002
 46
33.8220155493
 79
6
 49
0.0
 49
-66.2432
 49
0.0
 49
-68.072
 49
0.0
 49
-67.31
 53
7.5
 43
0.0
 44
0.0
 45
26.7278650041
 46
40.0722299272
 79
6
 49
0.0
 49
-38.8112
 49
0.0
 49
-64.7192
 49
0.0
 49
-25.654
 53
-32.5
 43
-22.6568
 44
0.0
 45
54.2362380668
 46
-2.2914975971
 79
6
 49
0.0
 49
-25.4
 49
0.0
 49
-79.248
 49
0.0
 49
-105.156
 53
-42.5
 43
-32.8168
 44
0.0
 45
59.2516725544
 46
10.1705964133
 79
6
 49
0.0
 49
-33.02
 49
0.0
 49
-52.6288
 49
0.0
 49
-74.676
 98
0
  0
TEXT
  5
104
330
17
100
AcDbEntity
  8
TID-ELC TEXT
100
AcDbText
 10
1420.0
 20
770.0
 30
0.0
 40
45.0
  1
FFL
  7
TX-AN
 41
0.9
 11
1420.0
 21
770.0
 31
0.0
100
AcDbText
  0
LINE
  5
105
330
17
100
AcDbEntity
  8
TID-ELC DIMENTION
100
AcDbLine
 10
1600.0
 20
750.0
 30
0.0
 11
1600.0
 21
1685.0
 31
0.0
  0
TEXT
  5
106
330
17
100
AcDbEntity
  8
TID-ELC TEXT
100
AcDbText
 10
1565.0
 20
900.0
 30
0.0
 40
40.0
  1
MOUNTING HEIGHT REFER TO LAYOUT
 50
90.0
  7
TX-AN
 41
0.9
 11
1565.0
 21
900.0
 31
0.0
100
AcDbText
  0
LINE
  5
107
330
17
100
AcDbEntity
  8
TID-ELC TEXT
100
AcDbLine
 10
2300.0
 20
3770.0
 30
0.0
 11
2560.0
 21
3970.0
 31
0.0
  0
LINE
  5
108
330
17
100
AcDbEntity
  8
TID-ELC TEXT
100
AcDbLine
 10
2560.0
 20
3970.0
 30
0.0
 11
2833.0
 21
3970.0
 31
0.0
  0
SOLID
  5
109
330
17
100
AcDbEntity
  8
TID-ELC TEXT
100
AcDbTrace
 10
2300.0
 20
3770.0
 30
0.0
 11
2315.551886988386
 21
3789.8287370021512
 31
0.0
 12
2323.1544677425945
 22
3779.94538202168
 32
0.0
 13
2323.1544677425945
 23
3779.94538202168
 33
0.0
  0
TEXT
  5
10A
330
17
100
AcDbEntity
  8
TID-ELC TEXT
100
AcDbText
 10
2576.8
 20
3984.7
 30
0.0
 40
42.0
  1
ROOF SHEET
  7
TX-AN
 41
0.9
 11
2576.8
 21
3984.7
 31
0.0
100
AcDbText
  0
LINE
  5
10B
330
17
100
AcDbEntity
  8
TID-ELC TEXT
100
AcDbLine
 10
2325.0
 20
3590.0
 30
0.0
 11
2600.0
 21
3670.0
 31
0.0
  0
LINE
  5
10C
330
17
100
AcDbEntity
  8
TID-ELC TEXT
100
AcDbLine
 10
2600.0
 20
3670.0
 30
0.0
 11
3242.6
 21
3670.0
 31
0.0
  0
SOLID
  5
10D
330
17
100
AcDbEntity
  8
TID-ELC TEXT
100
AcDbTrace
 10
2325.0
 20
3590.0
 30
0.0
 11
2346.7031954783924
 21
3602.806689893438
 31
0.0
 12
2350.1862000890337
 22
3590.8338615443586
 32
0.0
 13
2350.1862000890337
 23
3590.8338615443586
 33
0.0
  0
TEXT
  5
10E
330
17
100
AcDbEntity
  8
TID-ELC TEXT
100
AcDbText
 10
2616.8
 20
3684.7
 30
0.0
 40
42.0
  1
'C' PURLIN 150x50x20x2.3mm
  7
TX-AN
 41
0.9
 11
2616.8
 21
3684.7
 31
0.0
100
AcDbText
  0
LINE
  5
10F
330
17
100
AcDbEntity
  8
TID-ELC TEXT
100
AcDbLine
 10
2345.0
 20
3475.0
 30
0.0
 11
2600.0
 21
3330.0
 31
0.0
  0
LINE
  5
110
330
17
100
AcDbEntity
  8
TID-ELC TEXT
100
AcDbLine
 10
2600.0
 20
3330.0
 30
0.0
 11
3219.5
 21
3330.0
 31
0.0
  0
SOLID
  5
111
330
17
100
AcDbEntity
  8
TID-ELC TEXT
100
AcDbTrace
 10
2345.0
 20
3475.0
 30
0.0
 11
2369.3068697070007
 21
3468.3504823447943
 31
0.0
 12
2363.1433364057
 22
3457.5111651597485
 32
0.0
 13
2363.1433364057
 23
3457.5111651597485
 33
0.0
  0
TEXT
  5
112
330
17
100
AcDbEntity
  8
TID-ELC TEXT
100
AcDbText
 10
2616.8
 20
3344.7
 30
0.0
 40
42.0
  1
PURLIN CLAMP C/W BOLT M10
  7
TX-AN
 41
0.9
 11
2616.8
 21
3344.7
 31
0.0
100
AcDbText
  0
LINE
  5
113
330
17
100
AcDbEntity
  8
TID-ELC TEXT
100
AcDbLine
 10
2305.0
 20
3250.0
 30
0.0
 11
2600.0
 21
3200.0
 31
0.0
  0
LINE
  5
114
330
17
100
AcDbEntity
  8
TID-ELC TEXT
100
AcDbLine
 10
2600.0
 20
3200.0
 30
0.0
 11
3219.5
 21
3200.0
 31
0.0
  0
SOLID
  5
115
330
17
100
AcDbEntity
  8
TID-ELC TEXT
100
AcDbTrace
 10
2305.0
 20
3250.0
 30
0.0
 11
2330.115110102861
 21
3252.0666989430433
 31
0.0
 12
2328.0314109201286
 22
3239.7728737649245
 32
0.0
 13
2328.0314109201286
 23
3239.7728737649245
 33
0.0
  0
TEXT
  5
116
330
17
100
AcDbEntity
  8
TID-ELC TEXT
100
AcDbText
 10
2616.8
 20
3214.7
 30
0.0
 40
42.0
  1
THREADED ROD M10 C/W NUT,
  7
TX-AN
 41
0.9
 11
2616.8
 21
3214.7
 31
0.0
100
AcDbText
  0
TEXT
  5
117
330
17
100
AcDbEntity
  8
TID-ELC TEXT
100
AcDbText
 10
2616.8
 20
3137.0
 30
0.0
 40
42.0
  1
LOCK & FLAT WASHER
  7
TX-AN
 41
0.9
 11
2616.8
 21
3137.0
 31
0.0
100
AcDbText
  0
LINE
  5
118
330
17
100
AcDbEntity
  8
TID-ELC TEXT
100
AcDbLine
 10
2500.0
 20
2980.0
 30
0.0
 11
2630.0
 21
3030.0
 31
0.0
  0
LINE
  5
119
330
17
100
AcDbEntity
  8
TID-ELC TEXT
100
AcDbLine
 10
2630.0
 20
3030.0
 30
0.0
 11
3318.8
 21
3030.0
 31
0.0
  0
SOLID
  5
11A
330
17
100
AcDbEntity
  8
TID-ELC TEXT
100
AcDbTrace
 10
2500.0
 20
2980.0
 30
0.0
 11
2520.551036113434
 21
2994.5840637225824
 31
0.0
 12
2525.027203527166
 22
2982.946028446879
 32
0.0
 13
2525.027203527166
 23
2982.946028446879
 33
0.0
  0
TEXT
  5
11B
330
17
100
AcDbEntity
  8
TID-ELC TEXT
100
AcDbText
 10
2646.8
 20
3044.7
 30
0.0
 40
42.0
  1
UNISTRUT CHANNEL 41x41x2.5mm
  7
TX-AN
 41
0.9
 11
2646.8
 21
3044.7
 31
0.0
100
AcDbText
  0
LINE
  5
11C
330
17
100
AcDbEntity
  8
TID-ELC TEXT
100
AcDbLine
 10
2200.0
 20
2470.0
 30
0.0
 11
1850.0
 21
2730.0
 31
0.0
  0
LINE
  5
11D
330
17
100
AcDbEntity
  8
TID-ELC TEXT
100
AcDbLine
 10
1850.0
 20
2730.0
 30
0.0
 11
1253.6
 21
2730.0
 31
0.0
  0
SOLID
  5
11E
330
17
100
AcDbEntity
  8
TID-ELC TEXT
100
AcDbTrace
 10
2200.0
 20
2470.0
 30
0.0
 11
2176.68190060246
 21
2479.555429895428
 31
0.0
 12
2184.1175597165025
 22
2489.5649710104854
 32
0.0
 13
2184.1175597165025
 23
2489.5649710104854
 33
0.0
  0
TEXT
  5
11F
330
17
100
AcDbEntity
  8
TID-ELC TEXT
100
AcDbText
 10
1262.0
 20
2744.7
 30
0.0
 40
42.0
  1
CABLE TRUNKING 200x100mm
  7
TX-AN
 41
0.9
 11
1262.0
 21
2744.7
 31
0.0
100
AcDbText
  0
TEXT
  5
120
330
17
100
AcDbEntity
  8
TID-ELC TEXT
100
AcDbText
 10
1262.0
 20
2667.0
 30
0.0
 40
42.0
  1
C/W COVER (HDG)
  7
TX-AN
 41
0.9
 11
1262.0
 21
2667.0
 31
0.0
100
AcDbText
  0
LINE
  5
121
330
17
100
AcDbEntity
  8
TID-ELC TEXT
100
AcDbLine
 10
2240.0
 20
2416.0
 30
0.0
 11
1900.0
 21
2250.0
 31
0.0
  0
LINE
  5
122
330
17
100
AcDbEntity
  8
TID-ELC TEXT
100
AcDbLine
 10
1900.0
 20
2250.0
 30
0.0
 11
1557.7
 21
2250.0
 31
0.0
  0
SOLID
  5
123
330
17
100
AcDbEntity
  8
TID-ELC TEXT
100
AcDbTrace
 10
2240.0
 20
2416.0
 30
0.0
 11
2220.794194055895
 21
2399.6850676361382
 31
0.0
 12
2215.3235243805675
 22
2410.8900537181344
 32
0.0
 13
2215.3235243805675
 23
2410.8900537181344
 33
0.0
  0
TEXT
  5
124
330
17
100
AcDbEntity
  8
TID-ELC TEXT
100
AcDbText
 10
1566.1
 20
2264.7
 30
0.0
 40
42.0
  1
NYY/NYM CABLE
  7
TX-AN
 41
0.9
 11
1566.1
 21
2264.7
 31
0.0
100
AcDbText
  0
TEXT
  5
125
330
17
100
AcDbEntity
  8
TID-ELC TEXT
100
AcDbText
 10
1566.1
 20
2187.0
 30
0.0
 40
42.0
  1
FOR HIGHBAY
  7
TX-AN
 41
0.9
 11
1566.1
 21
2187.0
 31
0.0
100
AcDbText
  0
LINE
  5
126
330
17
100
AcDbEntity
  8
TID-ELC TEXT
100
AcDbLine
 10
2500.0
 20
2380.0
 30
0.0
 11
2720.0
 21
2300.0
 31
0.0
  0
LINE
  5
127
330
17
100
AcDbEntity
  8
TID-ELC TEXT
100
AcDbLine
 10
2720.0
 20
2300.0
 30
0.0
 11
3408.8
 21
2300.0
 31
0.0
  0
SOLID
  5
128
330
17
100
AcDbEntity
  8
TID-ELC TEXT
100
AcDbTrace
 10
2500.0
 20
2380.0
 30
0.0
 11
2525.0771779396264
 21
2377.5150157778553
 31
0.0
 12
2520.815929162113
 22
2365.796581639694
 32
0.0
 13
2520.815929162113
 23
2365.796581639694
 33
0.0
  0
TEXT
  5
129
330
17
100
AcDbEntity
  8
TID-ELC TEXT
100
AcDbText
 10
2736.8
 20
2314.7
 30
0.0
 40
42.0
  1
UNISTRUT CHANNEL 41x41x2.5mm
  7
TX-AN
 41
0.9
 11
2736.8
 21
2314.7
 31
0.0
100
AcDbText
  0
LINE
  5
12A
330
17
100
AcDbEntity
  8
TID-ELC TEXT
100
AcDbLine
 10
2600.0
 20
2250.0
 30
0.0
 11
2720.0
 21
2070.0
 31
0.0
  0
LINE
  5
12B
330
17
100
AcDbEntity
  8
TID-ELC TEXT
100
AcDbLine
 10
2720.0
 20
2070.0
 30
0.0
 11
3270.2
 21
2070.0
 31
0.0
  0
SOLID
  5
12C
330
17
100
AcDbEntity
  8
TID-ELC TEXT
100
AcDbTrace
 10
2600.0
 20
2250.0
 30
0.0
 11
2618.731372878664
 21
2233.1424892086507
 31
0.0
 12
2608.356405007913
 22
2226.2258439614834
 32
0.0
 13
2608.356405007913
 23
2226.2258439614834
 33
0.0
  0
TEXT
  5
12D
330
17
100
AcDbEntity
  8
TID-ELC TEXT
100
AcDbText
 10
2736.8
 20
2084.7
 30
0.0
 40
42.0
  1
FLEXIBLE CONDUIT Ø20mm
  7
TX-AN
 41
0.9
 11
2736.8
 21
2084.7
 31
0.0
100
AcDbText
  0
TEXT
  5
12E
330
17
100
AcDbEntity
  8
TID-ELC TEXT
100
AcDbText
 10
2736.8
 20
2007.0
 30
0.0
 40
42.0
  1
C/W CONNECTOR & GLAND
  7
TX-AN
 41
0.9
 11
2736.8
 21
2007.0
 31
0.0
100
AcDbText
  0
LINE
  5
12F
330
17
100
AcDbEntity
  8
TID-ELC TEXT
100
AcDbLine
 10
2294.0
 20
2120.0
 30
0.0
 11
1900.0
 21
2080.0
 31
0.0
  0
LINE
  5
130
330
17
100
AcDbEntity
  8
TID-ELC TEXT
100
AcDbLine
 10
1900.0
 20
2080.0
 30
0.0
 11
1326.6999999999998
 21
2080.0
 31
0.0
  0
SOLID
  5
131
330
17
100
AcDbEntity
  8
TID-ELC TEXT
100
AcDbTrace
 10
2294.0
 20
2120.0
 30
0.0
 11
2270.3379874867824
 21
2111.3311382624743
 31
0.0
 12
2269.0785567315697
 22
2123.7365312013176
 32
0.0
 13
2269.0785567315697
 23
2123.7365312013176
 33
0.0
  0
TEXT
  5
132
330
17
100
AcDbEntity
  8
TID-ELC TEXT
100
AcDbText
 10
1335.1
 20
2094.7
 30
0.0
 40
42.0
  1
EYE BOLT + SAFETY CHAIN
  7
TX-AN
 41
0.9
 11
1335.1
 21
2094.7
 31
0.0
100
AcDbText
  0
LINE
  5
133
330
17
100
AcDbEntity
  8
TID-ELC TEXT
100
AcDbLine
 10
2190.0
 20
1850.0
 30
0.0
 11
1900.0
 21
1880.0
 31
0.0
  0
LINE
  5
134
330
17
100
AcDbEntity
  8
TID-ELC TEXT
100
AcDbLine
 10
1900.0
 20
1880.0
 30
0.0
 11
1627.0
 21
1880.0
 31
0.0
  0
SOLID
  5
135
330
17
100
AcDbEntity
  8
TID-ELC TEXT
100
AcDbTrace
 10
2190.0
 20
1850.0
 30
0.0
 11
2165.071482316694
 21
1846.3109613565168
 31
0.0
 12
2166.3545482487716
 22
1858.7139320332626
 32
0.0
 13
2166.3545482487716
 23
1858.7139320332626
 33
0.0
  0
TEXT
  5
136
330
17
100
AcDbEntity
  8
TID-ELC TEXT
100
AcDbText
 10
1635.4
 20
1894.7
 30
0.0
 40
42.0
  1
DRIVER BOX
  7
TX-AN
 41
0.9
 11
1635.4
 21
1894.7
 31
0.0
100
AcDbText
  0
LINE
  5
137
330
17
100
AcDbEntity
  8
TID-ELC TEXT
100
AcDbLine
 10
2500.0
 20
1760.0
 30
0.0
 11
2720.0
 21
1770.0
 31
0.0
  0
LINE
  5
138
330
17
100
AcDbEntity
  8
TID-ELC TEXT
100
AcDbLine
 10
2720.0
 20
1770.0
 30
0.0
 11
3131.6
 21
1770.0
 31
0.0
  0
SOLID
  5
139
330
17
100
AcDbEntity
  8
TID-ELC TEXT
100
AcDbTrace
 10
2500.0
 20
1760.0
 30
0.0
 11
2524.1083106088868
 21
1767.3368494318358
 31
0.0
 12
2524.6745059775117
 22
1754.8805513220914
 32
0.0
 13
2524.6745059775117
 23
1754.8805513220914
 33
0.0
  0
TEXT
  5
13A
330
17
100
AcDbEntity
  8
TID-ELC TEXT
100
AcDbText
 10
2736.8
 20
1784.7
 30
0.0
 40
42.0
  1
HIGHBAY LED 150W
  7
TX-AN
 41
0.9
 11
2736.8
 21
1784.7
 31
0.0
100
AcDbText
  0
TEXT
  5
13B
330
17
100
AcDbEntity
  8
TID-ELC TEXT
100
AcDbText
 10
2736.8
 20
1707.0
 30
0.0
 40
42.0
  1
(UFO TYPE) IP65
  7
TX-AN
 41
0.9
 11
2736.8
 21
1707.0
 31
0.0
100
AcDbText
  0
TEXT
  5
13C
330
17
100
AcDbEntity
  8
TID-E-TITLE
100
AcDbText
 10
1300.0
 20
300.0
 30
0.0
 40
50.4
  1
SECTION - CABLE TRUNKING FOR HIGHBAY (PURLIN TYPE)
  7
TX-AN
 41
0.9
 11
1300.0
 21
300.0
 31
0.0
100
AcDbText
  0
LINE
  5
13D
330
17
100
AcDbEntity
  8
TID-E-TITLE
100
AcDbLine
 10
1300.0
 20
284.88
 30
0.0
 11
2862.4
 21
284.88
 31
0.0
  0
TEXT
  5
13E
330
17
100
AcDbEntity
  8
TID-ELC TEXT
100
AcDbText
 10
1300.0
 20
239.52
 30
0.0
 40
25.2
  1
SCALE  :  NTS
  7
TX-AN
 41
0.9
 11
1300.0
 21
239.52
 31
0.0
100
AcDbText
  0
HATCH
  5
13F
330
17
100
AcDbEntity
  8
TID-HATCH
 62
7
420
15461355
100
AcDbHatch
 10
0.0
 20
0.0
 30
0.0
210
0.0
220
0.0
230
1.0
  2
SOLID
 70
1
 71
0
 91
1
 92
3
 72
0
 73
1
 93
4
 10
9640.918534703544
 20
3323.0
 10
9672.095449239783
 20
3341.0
 10
8674.43418408011
 20
3917.0
 10
8643.25726954387
 20
3899.0
 97
0
 75
1
 76
1
 98
0
  0
LWPOLYLINE
  5
140
330
17
100
AcDbEntity
  8
TID-STRUCTURE
100
AcDbPolyline
 90
4
 70
1
 10
9640.918534703544
 20
3323.0
 10
9672.095449239783
 20
3341.0
 10
8674.43418408011
 20
3917.0
 10
8643.25726954387
 20
3899.0
  0
HATCH
  5
141
330
17
100
AcDbEntity
  8
TID-HATCH
 62
7
420
13487565
100
AcDbHatch
 10
0.0
 20
0.0
 30
0.0
210
0.0
220
0.0
230
1.0
  2
SOLID
 70
1
 71
0
 91
1
 92
3
 72
0
 73
1
 93
4
 10
9640.918534703544
 20
3215.0
 10
9672.095449239783
 20
3233.0
 10
9672.095449239783
 20
3341.0
 10
9640.918534703544
 20
3323.0
 97
0
 75
1
 76
1
 98
0
  0
LWPOLYLINE
  5
142
330
17
100
AcDbEntity
  8
TID-STRUCTURE
100
AcDbPolyline
 90
4
 70
1
 10
9640.918534703544
 20
3215.0
 10
9672.095449239783
 20
3233.0
 10
9672.095449239783
 20
3341.0
 10
9640.918534703544
 20
3323.0
  0
HATCH
  5
143
330
17
100
AcDbEntity
  8
TID-HATCH
 62
7
420
11513775
100
AcDbHatch
 10
0.0
 20
0.0
 30
0.0
210
0.0
220
0.0
230
1.0
  2
SOLID
 70
1
 71
0
 91
1
 92
3
 72
0
 73
1
 93
4
 10
9640.918534703544
 20
3215.0
 10
8643.25726954387
 20
3791.0
 10
8643.25726954387
 20
3899.0
 10
9640.918534703544
 20
3323.0
 97
0
 75
1
 76
1
 98
0
  0
LWPOLYLINE
  5
144
330
17
100
AcDbEntity
  8
TID-STRUCTURE
100
AcDbPolyline
 90
4
 70
1
 10
9640.918534703544
 20
3215.0
 10
8643.25726954387
 20
3791.0
 10
8643.25726954387
 20
3899.0
 10
9640.918534703544
 20
3323.0
  0
HATCH
  5
145
330
17
100
AcDbEntity
  8
TID-HATCH
 62
7
420
15461355
100
AcDbHatch
 10
0.0
 20
0.0
 30
0.0
210
0.0
220
0.0
230
1.0
  2
SOLID
 70
1
 71
0
 91
1
 92
3
 72
0
 73
1
 93
4
 10
8705.61109861635
 20
2783.0
 10
8736.788013152589
 20
2801.0
 10
7739.126747992916
 20
3377.0
 10
7707.949833456676
 20
3359.0
 97
0
 75
1
 76
1
 98
0
  0
LWPOLYLINE
  5
146
330
17
100
AcDbEntity
  8
TID-STRUCTURE
100
AcDbPolyline
 90
4
 70
1
 10
8705.61109861635
 20
2783.0
 10
8736.788013152589
 20
2801.0
 10
7739.126747992916
 20
3377.0
 10
7707.949833456676
 20
3359.0
  0
HATCH
  5
147
330
17
100
AcDbEntity
  8
TID-HATCH
 62
7
420
13487565
100
AcDbHatch
 10
0.0
 20
0.0
 30
0.0
210
0.0
220
0.0
230
1.0
  2
SOLID
 70
1
 71
0
 91
1
 92
3
 72
0
 73
1
 93
4
 10
8705.61109861635
 20
2675.0
 10
8736.788013152589
 20
2693.0
 10
8736.788013152589
 20
2801.0
 10
8705.61109861635
 20
2783.0
 97
0
 75
1
 76
1
 98
0
  0
LWPOLYLINE
  5
148
330
17
100
AcDbEntity
  8
TID-STRUCTURE
100
AcDbPolyline
 90
4
 70
1
 10
8705.61109861635
 20
2675.0
 10
8736.788013152589
 20
2693.0
 10
8736.788013152589
 20
2801.0
 10
8705.61109861635
 20
2783.0
  0
HATCH
  5
149
330
17
100
AcDbEntity
  8
TID-HATCH
 62
7
420
11513775
100
AcDbHatch
 10
0.0
 20
0.0
 30
0.0
210
0.0
220
0.0
230
1.0
  2
SOLID
 70
1
 71
0
 91
1
 92
3
 72
0
 73
1
 93
4
 10
8705.61109861635
 20
2675.0
 10
7707.949833456676
 20
3251.0
 10
7707.949833456676
 20
3359.0
 10
8705.61109861635
 20
2783.0
 97
0
 75
1
 76
1
 98
0
  0
LWPOLYLINE
  5
14A
330
17
100
AcDbEntity
  8
TID-STRUCTURE
100
AcDbPolyline
 90
4
 70
1
 10
8705.61109861635
 20
2675.0
 10
7707.949833456676
 20
3251.0
 10
7707.949833456676
 20
3359.0
 10
8705.61109861635
 20
2783.0
  0
HATCH
  5
14B
330
17
100
AcDbEntity
  8
TID-HATCH
 62
7
420
15461355
100
AcDbHatch
 10
0.0
 20
0.0
 30
0.0
210
0.0
220
0.0
230
1.0
  2
SOLID
 70
1
 71
0
 91
1
 92
3
 72
0
 73
1
 93
4
 10
7770.303662529155
 20
2243.0
 10
7801.480577065396
 20
2261.0
 10
6803.819311905722
 20
2837.0
 10
6772.642397369482
 20
2819.0
 97
0
 75
1
 76
1
 98
0
  0
LWPOLYLINE
  5
14C
330
17
100
AcDbEntity
  8
TID-STRUCTURE
100
AcDbPolyline
 90
4
 70
1
 10
7770.303662529155
 20
2243.0
 10
7801.480577065396
 20
2261.0
 10
6803.819311905722
 20
2837.0
 10
6772.642397369482
 20
2819.0
  0
HATCH
  5
14D
330
17
100
AcDbEntity
  8
TID-HATCH
 62
7
420
13487565
100
AcDbHatch
 10
0.0
 20
0.0
 30
0.0
210
0.0
220
0.0
230
1.0
  2
SOLID
 70
1
 71
0
 91
1
 92
3
 72
0
 73
1
 93
4
 10
7770.303662529155
 20
2135.0
 10
7801.480577065396
 20
2153.0
 10
7801.480577065396
 20
2261.0
 10
7770.303662529155
 20
2243.0
 97
0
 75
1
 76
1
 98
0
  0
LWPOLYLINE
  5
14E
330
17
100
AcDbEntity
  8
TID-STRUCTURE
100
AcDbPolyline
 90
4
 70
1
 10
7770.303662529155
 20
2135.0
 10
7801.480577065396
 20
2153.0
 10
7801.480577065396
 20
2261.0
 10
7770.303662529155
 20
2243.0
  0
HATCH
  5
14F
330
17
100
AcDbEntity
  8
TID-HATCH
 62
7
420
11513775
100
AcDbHatch
 10
0.0
 20
0.0
 30
0.0
210
0.0
220
0.0
230
1.0
  2
SOLID
 70
1
 71
0
 91
1
 92
3
 72
0
 73
1
 93
4
 10
7770.303662529155
 20
2135.0
 10
6772.642397369482
 20
2711.0
 10
6772.642397369482
 20
2819.0
 10
7770.303662529155
 20
2243.0
 97
0
 75
1
 76
1
 98
0
  0
LWPOLYLINE
  5
150
330
17
100
AcDbEntity
  8
TID-STRUCTURE
100
AcDbPolyline
 90
4
 70
1
 10
7770.303662529155
 20
2135.0
 10
6772.642397369482
 20
2711.0
 10
6772.642397369482
 20
2819.0
 10
7770.303662529155
 20
2243.0
  0
LWPOLYLINE
  5
151
330
17
100
AcDbEntity
  8
TID-E-SUPPORT
100
AcDbPolyline
 90
2
 70
0
 43
10.0
 10
9157.676359391826
 20
3512.0
 10
9157.676359391826
 20
3188.0
  0
HATCH
  5
152
330
17
100
AcDbEntity
  8
TID-HATCH
 62
7
420
16764300
100
AcDbHatch
 10
0.0
 20
0.0
 30
0.0
210
0.0
220
0.0
230
1.0
  2
SOLID
 70
1
 71
0
 91
1
 92
3
 72
0
 73
1
 93
4
 10
9269.91325172229
 20
3108.7999999999997
 10
9294.854783351282
 20
3123.2
 10
9045.439467061362
 20
3267.2
 10
9020.497935432371
 20
3252.7999999999997
 97
0
 75
1
 76
1
 98
0
  0
LWPOLYLINE
  5
153
330
17
100
AcDbEntity
  8
TID-E-SUPPORT
100
AcDbPolyline
 90
4
 70
1
 10
9269.91325172229
 20
3108.7999999999997
 10
9294.854783351282
 20
3123.2
 10
9045.439467061362
 20
3267.2
 10
9020.497935432371
 20
3252.7999999999997
  0
HATCH
  5
154
330
17
100
AcDbEntity
  8
TID-HATCH
 62
7
420
16098630
100
AcDbHatch
 10
0.0
 20
0.0
 30
0.0
210
0.0
220
0.0
230
1.0
  2
SOLID
 70
1
 71
0
 91
1
 92
3
 72
0
 73
1
 93
4
 10
9269.91325172229
 20
3079.2799999999997
 10
9294.854783351282
 20
3093.68
 10
9294.854783351282
 20
3123.2
 10
9269.91325172229
 20
3108.7999999999997
 97
0
 75
1
 76
1
 98
0
  0
LWPOLYLINE
  5
155
330
17
100
AcDbEntity
  8
TID-E-SUPPORT
100
AcDbPolyline
 90
4
 70
1
 10
9269.91325172229
 20
3079.2799999999997
 10
9294.854783351282
 20
3093.68
 10
9294.854783351282
 20
3123.2
 10
9269.91325172229
 20
3108.7999999999997
  0
HATCH
  5
156
330
17
100
AcDbEntity
  8
TID-HATCH
 62
7
420
14452520
100
AcDbHatch
 10
0.0
 20
0.0
 30
0.0
210
0.0
220
0.0
230
1.0
  2
SOLID
 70
1
 71
0
 91
1
 92
3
 72
0
 73
1
 93
4
 10
9269.91325172229
 20
3079.2799999999997
 10
9020.497935432371
 20
3223.2799999999997
 10
9020.497935432371
 20
3252.7999999999997
 10
9269.91325172229
 20
3108.7999999999997
 97
0
 75
1
 76
1
 98
0
  0
LWPOLYLINE
  5
157
330
17
100
AcDbEntity
  8
TID-E-SUPPORT
100
AcDbPolyline
 90
4
 70
1
 10
9269.91325172229
 20
3079.2799999999997
 10
9020.497935432371
 20
3223.2799999999997
 10
9020.497935432371
 20
3252.7999999999997
 10
9269.91325172229
 20
3108.7999999999997
  0
LWPOLYLINE
  5
158
330
17
100
AcDbEntity
  8
TID-E-SUPPORT
100
AcDbPolyline
 90
2
 70
0
 43
10.0
 10
9064.145615783107
 20
3212.48
 10
9064.145615783107
 20
2954.0
  0
LWPOLYLINE
  5
159
330
17
100
AcDbEntity
  8
TID-E-SUPPORT
100
AcDbPolyline
 90
2
 70
0
 43
10.0
 10
9251.207103000546
 20
3104.48
 10
9251.207103000546
 20
2846.0
  0
HATCH
  5
15A
330
17
100
AcDbEntity
  8
TID-HATCH
 62
7
420
16764300
100
AcDbHatch
 10
0.0
 20
0.0
 30
0.0
210
0.0
220
0.0
230
1.0
  2
SOLID
 70
1
 71
0
 91
1
 92
3
 72
0
 73
1
 93
4
 10
9269.91325172229
 20
2820.7999999999997
 10
9294.854783351282
 20
2835.2
 10
9045.439467061362
 20
2979.2
 10
9020.497935432371
 20
2964.7999999999997
 97
0
 75
1
 76
1
 98
0
  0
LWPOLYLINE
  5
15B
330
17
100
AcDbEntity
  8
TID-E-SUPPORT
100
AcDbPolyline
 90
4
 70
1
 10
9269.91325172229
 20
2820.7999999999997
 10
9294.854783351282
 20
2835.2
 10
9045.439467061362
 20
2979.2
 10
9020.497935432371
 20
2964.7999999999997
  0
HATCH
  5
15C
330
17
100
AcDbEntity
  8
TID-HATCH
 62
7
420
16098630
100
AcDbHatch
 10
0.0
 20
0.0
 30
0.0
210
0.0
220
0.0
230
1.0
  2
SOLID
 70
1
 71
0
 91
1
 92
3
 72
0
 73
1
 93
4
 10
9269.91325172229
 20
2791.2799999999997
 10
9294.854783351282
 20
2805.68
 10
9294.854783351282
 20
2835.2
 10
9269.91325172229
 20
2820.7999999999997
 97
0
 75
1
 76
1
 98
0
  0
LWPOLYLINE
  5
15D
330
17
100
AcDbEntity
  8
TID-E-SUPPORT
100
AcDbPolyline
 90
4
 70
1
 10
9269.91325172229
 20
2791.2799999999997
 10
9294.854783351282
 20
2805.68
 10
9294.854783351282
 20
2835.2
 10
9269.91325172229
 20
2820.7999999999997
  0
HATCH
  5
15E
330
17
100
AcDbEntity
  8
TID-HATCH
 62
7
420
14452520
100
AcDbHatch
 10
0.0
 20
0.0
 30
0.0
210
0.0
220
0.0
230
1.0
  2
SOLID
 70
1
 71
0
 91
1
 92
3
 72
0
 73
1
 93
4
 10
9269.91325172229
 20
2791.2799999999997
 10
9020.497935432371
 20
2935.2799999999997
 10
9020.497935432371
 20
2964.7999999999997
 10
9269.91325172229
 20
2820.7999999999997
 97
0
 75
1
 76
1
 98
0
  0
LWPOLYLINE
  5
15F
330
17
100
AcDbEntity
  8
TID-E-SUPPORT
100
AcDbPolyline
 90
4
 70
1
 10
9269.91325172229
 20
2791.2799999999997
 10
9020.497935432371
 20
2935.2799999999997
 10
9020.497935432371
 20
2964.7999999999997
 10
9269.91325172229
 20
2820.7999999999997
  0
LWPOLYLINE
  5
160
330
17
100
AcDbEntity
  8
TID-E-SUPPORT
100
AcDbPolyline
 90
2
 70
0
 43
10.0
 10
8222.368923304632
 20
2972.0
 10
8222.368923304632
 20
2648.0
  0
HATCH
  5
161
330
17
100
AcDbEntity
  8
TID-HATCH
 62
7
420
16764300
100
AcDbHatch
 10
0.0
 20
0.0
 30
0.0
210
0.0
220
0.0
230
1.0
  2
SOLID
 70
1
 71
0
 91
1
 92
3
 72
0
 73
1
 93
4
 10
8334.605815635095
 20
2568.7999999999997
 10
8359.547347264088
 20
2583.2
 10
8110.1320309741695
 20
2727.2
 10
8085.190499345177
 20
2712.7999999999997
 97
0
 75
1
 76
1
 98
0
  0
LWPOLYLINE
  5
162
330
17
100
AcDbEntity
  8
TID-E-SUPPORT
100
AcDbPolyline
 90
4
 70
1
 10
8334.605815635095
 20
2568.7999999999997
 10
8359.547347264088
 20
2583.2
 10
8110.1320309741695
 20
2727.2
 10
8085.190499345177
 20
2712.7999999999997
  0
HATCH
  5
163
330
17
100
AcDbEntity
  8
TID-HATCH
 62
7
420
16098630
100
AcDbHatch
 10
0.0
 20
0.0
 30
0.0
210
0.0
220
0.0
230
1.0
  2
SOLID
 70
1
 71
0
 91
1
 92
3
 72
0
 73
1
 93
4
 10
8334.605815635095
 20
2539.2799999999997
 10
8359.547347264088
 20
2553.68
 10
8359.547347264088
 20
2583.2
 10
8334.605815635095
 20
2568.7999999999997
 97
0
 75
1
 76
1
 98
0
  0
LWPOLYLINE
  5
164
330
17
100
AcDbEntity
  8
TID-E-SUPPORT
100
AcDbPolyline
 90
4
 70
1
 10
8334.605815635095
 20
2539.2799999999997
 10
8359.547347264088
 20
2553.68
 10
8359.547347264088
 20
2583.2
 10
8334.605815635095
 20
2568.7999999999997
  0
HATCH
  5
165
330
17
100
AcDbEntity
  8
TID-HATCH
 62
7
420
14452520
100
AcDbHatch
 10
0.0
 20
0.0
 30
0.0
210
0.0
220
0.0
230
1.0
  2
SOLID
 70
1
 71
0
 91
1
 92
3
 72
0
 73
1
 93
4
 10
8334.605815635095
 20
2539.2799999999997
 10
8085.190499345177
 20
2683.2799999999997
 10
8085.190499345177
 20
2712.7999999999997
 10
8334.605815635095
 20
2568.7999999999997
 97
0
 75
1
 76
1
 98
0
  0
LWPOLYLINE
  5
166
330
17
100
AcDbEntity
  8
TID-E-SUPPORT
100
AcDbPolyline
 90
4
 70
1
 10
8334.605815635095
 20
2539.2799999999997
 10
8085.190499345177
 20
2683.2799999999997
 10
8085.190499345177
 20
2712.7999999999997
 10
8334.605815635095
 20
2568.7999999999997
  0
LWPOLYLINE
  5
167
330
17
100
AcDbEntity
  8
TID-E-SUPPORT
100
AcDbPolyline
 90
2
 70
0
 43
10.0
 10
8128.838179695913
 20
2672.48
 10
8128.838179695913
 20
2414.0
  0
LWPOLYLINE
  5
168
330
17
100
AcDbEntity
  8
TID-E-SUPPORT
100
AcDbPolyline
 90
2
 70
0
 43
10.0
 10
8315.899666913352
 20
2564.48
 10
8315.899666913352
 20
2306.0
  0
HATCH
  5
169
330
17
100
AcDbEntity
  8
TID-HATCH
 62
7
420
16764300
100
AcDbHatch
 10
0.0
 20
0.0
 30
0.0
210
0.0
220
0.0
230
1.0
  2
SOLID
 70
1
 71
0
 91
1
 92
3
 72
0
 73
1
 93
4
 10
8334.605815635095
 20
2280.8
 10
8359.547347264088
 20
2295.2
 10
8110.1320309741695
 20
2439.2
 10
8085.190499345177
 20
2424.8
 97
0
 75
1
 76
1
 98
0
  0
LWPOLYLINE
  5
16A
330
17
100
AcDbEntity
  8
TID-E-SUPPORT
100
AcDbPolyline
 90
4
 70
1
 10
8334.605815635095
 20
2280.8
 10
8359.547347264088
 20
2295.2
 10
8110.1320309741695
 20
2439.2
 10
8085.190499345177
 20
2424.8
  0
HATCH
  5
16B
330
17
100
AcDbEntity
  8
TID-HATCH
 62
7
420
16098630
100
AcDbHatch
 10
0.0
 20
0.0
 30
0.0
210
0.0
220
0.0
230
1.0
  2
SOLID
 70
1
 71
0
 91
1
 92
3
 72
0
 73
1
 93
4
 10
8334.605815635095
 20
2251.2799999999997
 10
8359.547347264088
 20
2265.68
 10
8359.547347264088
 20
2295.2
 10
8334.605815635095
 20
2280.8
 97
0
 75
1
 76
1
 98
0
  0
LWPOLYLINE
  5
16C
330
17
100
AcDbEntity
  8
TID-E-SUPPORT
100
AcDbPolyline
 90
4
 70
1
 10
8334.605815635095
 20
2251.2799999999997
 10
8359.547347264088
 20
2265.68
 10
8359.547347264088
 20
2295.2
 10
8334.605815635095
 20
2280.8
  0
HATCH
  5
16D
330
17
100
AcDbEntity
  8
TID-HATCH
 62
7
420
14452520
100
AcDbHatch
 10
0.0
 20
0.0
 30
0.0
210
0.0
220
0.0
230
1.0
  2
SOLID
 70
1
 71
0
 91
1
 92
3
 72
0
 73
1
 93
4
 10
8334.605815635095
 20
2251.2799999999997
 10
8085.190499345177
 20
2395.2799999999997
 10
8085.190499345177
 20
2424.8
 10
8334.605815635095
 20
2280.8
 97
0
 75
1
 76
1
 98
0
  0
LWPOLYLINE
  5
16E
330
17
100
AcDbEntity
  8
TID-E-SUPPORT
100
AcDbPolyline
 90
4
 70
1
 10
8334.605815635095
 20
2251.2799999999997
 10
8085.190499345177
 20
2395.2799999999997
 10
8085.190499345177
 20
2424.8
 10
8334.605815635095
 20
2280.8
  0
LWPOLYLINE
  5
16F
330
17
100
AcDbEntity
  8
TID-E-SUPPORT
100
AcDbPolyline
 90
2
 70
0
 43
10.0
 10
7287.061487217439
 20
2432.0
 10
7287.061487217439
 20
2108.0
  0
HATCH
  5
170
330
17
100
AcDbEntity
  8
TID-HATCH
 62
7
420
16764300
100
AcDbHatch
 10
0.0
 20
0.0
 30
0.0
210
0.0
220
0.0
230
1.0
  2
SOLID
 70
1
 71
0
 91
1
 92
3
 72
0
 73
1
 93
4
 10
7399.298379547902
 20
2028.8
 10
7424.239911176894
 20
2043.2
 10
7174.824594886975
 20
2187.2
 10
7149.883063257984
 20
2172.8
 97
0
 75
1
 76
1
 98
0
  0
LWPOLYLINE
  5
171
330
17
100
AcDbEntity
  8
TID-E-SUPPORT
100
AcDbPolyline
 90
4
 70
1
 10
7399.298379547902
 20
2028.8
 10
7424.239911176894
 20
2043.2
 10
7174.824594886975
 20
2187.2
 10
7149.883063257984
 20
2172.8
  0
HATCH
  5
172
330
17
100
AcDbEntity
  8
TID-HATCH
 62
7
420
16098630
100
AcDbHatch
 10
0.0
 20
0.0
 30
0.0
210
0.0
220
0.0
230
1.0
  2
SOLID
 70
1
 71
0
 91
1
 92
3
 72
0
 73
1
 93
4
 10
7399.298379547902
 20
1999.28
 10
7424.239911176894
 20
2013.6799999999998
 10
7424.239911176894
 20
2043.2
 10
7399.298379547902
 20
2028.8
 97
0
 75
1
 76
1
 98
0
  0
LWPOLYLINE
  5
173
330
17
100
AcDbEntity
  8
TID-E-SUPPORT
100
AcDbPolyline
 90
4
 70
1
 10
7399.298379547902
 20
1999.28
 10
7424.239911176894
 20
2013.6799999999998
 10
7424.239911176894
 20
2043.2
 10
7399.298379547902
 20
2028.8
  0
HATCH
  5
174
330
17
100
AcDbEntity
  8
TID-HATCH
 62
7
420
14452520
100
AcDbHatch
 10
0.0
 20
0.0
 30
0.0
210
0.0
220
0.0
230
1.0
  2
SOLID
 70
1
 71
0
 91
1
 92
3
 72
0
 73
1
 93
4
 10
7399.298379547902
 20
1999.28
 10
7149.883063257984
 20
2143.2799999999997
 10
7149.883063257984
 20
2172.8
 10
7399.298379547902
 20
2028.8
 97
0
 75
1
 76
1
 98
0
  0
LWPOLYLINE
  5
175
330
17
100
AcDbEntity
  8
TID-E-SUPPORT
100
AcDbPolyline
 90
4
 70
1
 10
7399.298379547902
 20
1999.28
 10
7149.883063257984
 20
2143.2799999999997
 10
7149.883063257984
 20
2172.8
 10
7399.298379547902
 20
2028.8
  0
LWPOLYLINE
  5
176
330
17
100
AcDbEntity
  8
TID-E-SUPPORT
100
AcDbPolyline
 90
2
 70
0
 43
10.0
 10
7193.53074360872
 20
2132.48
 10
7193.53074360872
 20
1874.0
  0
LWPOLYLINE
  5
177
330
17
100
AcDbEntity
  8
TID-E-SUPPORT
100
AcDbPolyline
 90
2
 70
0
 43
10.0
 10
7380.592230826158
 20
2024.48
 10
7380.592230826158
 20
1766.0
  0
HATCH
  5
178
330
17
100
AcDbEntity
  8
TID-HATCH
 62
7
420
16764300
100
AcDbHatch
 10
0.0
 20
0.0
 30
0.0
210
0.0
220
0.0
230
1.0
  2
SOLID
 70
1
 71
0
 91
1
 92
3
 72
0
 73
1
 93
4
 10
7399.298379547902
 20
1740.8
 10
7424.239911176894
 20
1755.2
 10
7174.824594886975
 20
1899.2
 10
7149.883063257984
 20
1884.8
 97
0
 75
1
 76
1
 98
0
  0
LWPOLYLINE
  5
179
330
17
100
AcDbEntity
  8
TID-E-SUPPORT
100
AcDbPolyline
 90
4
 70
1
 10
7399.298379547902
 20
1740.8
 10
7424.239911176894
 20
1755.2
 10
7174.824594886975
 20
1899.2
 10
7149.883063257984
 20
1884.8
  0
HATCH
  5
17A
330
17
100
AcDbEntity
  8
TID-HATCH
 62
7
420
16098630
100
AcDbHatch
 10
0.0
 20
0.0
 30
0.0
210
0.0
220
0.0
230
1.0
  2
SOLID
 70
1
 71
0
 91
1
 92
3
 72
0
 73
1
 93
4
 10
7399.298379547902
 20
1711.28
 10
7424.239911176894
 20
1725.68
 10
7424.239911176894
 20
1755.2
 10
7399.298379547902
 20
1740.8
 97
0
 75
1
 76
1
 98
0
  0
LWPOLYLINE
  5
17B
330
17
100
AcDbEntity
  8
TID-E-SUPPORT
100
AcDbPolyline
 90
4
 70
1
 10
7399.298379547902
 20
1711.28
 10
7424.239911176894
 20
1725.68
 10
7424.239911176894
 20
1755.2
 10
7399.298379547902
 20
1740.8
  0
HATCH
  5
17C
330
17
100
AcDbEntity
  8
TID-HATCH
 62
7
420
14452520
100
AcDbHatch
 10
0.0
 20
0.0
 30
0.0
210
0.0
220
0.0
230
1.0
  2
SOLID
 70
1
 71
0
 91
1
 92
3
 72
0
 73
1
 93
4
 10
7399.298379547902
 20
1711.28
 10
7149.883063257984
 20
1855.28
 10
7149.883063257984
 20
1884.8
 10
7399.298379547902
 20
1740.8
 97
0
 75
1
 76
1
 98
0
  0
LWPOLYLINE
  5
17D
330
17
100
AcDbEntity
  8
TID-E-SUPPORT
100
AcDbPolyline
 90
4
 70
1
 10
7399.298379547902
 20
1711.28
 10
7149.883063257984
 20
1855.28
 10
7149.883063257984
 20
1884.8
 10
7399.298379547902
 20
1740.8
  0
HATCH
  5
17E
330
17
100
AcDbEntity
  8
TID-HATCH
 62
7
420
12505840
100
AcDbHatch
 10
0.0
 20
0.0
 30
0.0
210
0.0
220
0.0
230
1.0
  2
SOLID
 70
1
 71
0
 91
1
 92
3
 72
0
 73
1
 93
4
 10
7100.0
 20
1712.0
 10
9157.676359391826
 20
2900.0
 10
9032.968701246868
 20
2972.0
 10
6975.292341855041
 20
1784.0
 97
0
 75
1
 76
1
 98
0
  0
LWPOLYLINE
  5
17F
330
17
100
AcDbEntity
  8
TID-E-LADDER
100
AcDbPolyline
 90
4
 70
1
 10
7100.0
 20
1712.0
 10
9157.676359391826
 20
2900.0
 10
9032.968701246868
 20
2972.0
 10
6975.292341855041
 20
1784.0
  0
HATCH
  5
180
330
17
100
AcDbEntity
  8
TID-HATCH
 62
7
420
7905500
100
AcDbHatch
 10
0.0
 20
0.0
 30
0.0
210
0.0
220
0.0
230
1.0
  2
SOLID
 70
1
 71
0
 91
1
 92
3
 72
0
 73
1
 93
4
 10
7100.0
 20
1640.0
 10
9157.676359391826
 20
2828.0
 10
9157.676359391826
 20
2900.0
 10
7100.0
 20
1712.0
 97
0
 75
1
 76
1
 98
0
  0
LWPOLYLINE
  5
181
330
17
100
AcDbEntity
  8
TID-E-LADDER
100
AcDbPolyline
 90
4
 70
1
 10
7100.0
 20
1640.0
 10
9157.676359391826
 20
2828.0
 10
9157.676359391826
 20
2900.0
 10
7100.0
 20
1712.0
  0
HATCH
  5
182
330
17
100
AcDbEntity
  8
TID-HATCH
 62
7
420
5275080
100
AcDbHatch
 10
0.0
 20
0.0
 30
0.0
210
0.0
220
0.0
230
1.0
  2
SOLID
 70
1
 71
0
 91
1
 92
3
 72
0
 73
1
 93
4
 10
7100.0
 20
1640.0
 10
6975.292341855041
 20
1712.0
 10
6975.292341855041
 20
1784.0
 10
7100.0
 20
1712.0
 97
0
 75
1
 76
1
 98
0
  0
LWPOLYLINE
  5
183
330
17
100
AcDbEntity
  8
TID-E-LADDER
100
AcDbPolyline
 90
4
 70
1
 10
7100.0
 20
1640.0
 10
6975.292341855041
 20
1712.0
 10
6975.292341855041
 20
1784.0
 10
7100.0
 20
1712.0
  0
LINE
  5
184
330
17
100
AcDbEntity
  8
TID-E-LADDER
100
AcDbLine
 10
7287.061487217439
 20
1820.0
 30
0.0
 11
7162.35382907248
 21
1892.0
 31
0.0
  0
LINE
  5
185
330
17
100
AcDbEntity
  8
TID-E-LADDER
100
AcDbLine
 10
7661.184461652316
 20
2036.0
 30
0.0
 11
7536.4768035073575
 21
2108.0
 31
0.0
  0
LINE
  5
186
330
17
100
AcDbEntity
  8
TID-E-LADDER
100
AcDbLine
 10
8035.307436087194
 20
2252.0
 30
0.0
 11
7910.599777942235
 21
2324.0
 31
0.0
  0
LINE
  5
187
330
17
100
AcDbEntity
  8
TID-E-LADDER
100
AcDbLine
 10
8409.43041052207
 20
2468.0
 30
0.0
 11
8284.722752377113
 21
2540.0
 31
0.0
  0
LINE
  5
188
330
17
100
AcDbEntity
  8
TID-E-LADDER
100
AcDbLine
 10
8783.55338495695
 20
2684.0
 30
0.0
 11
8658.84572681199
 21
2756.0
 31
0.0
  0
HATCH
  5
189
330
17
100
AcDbEntity
  8
TID-HATCH
 62
7
420
16764300
100
AcDbHatch
 10
0.0
 20
0.0
 30
0.0
210
0.0
220
0.0
230
1.0
  2
SOLID
 70
1
 71
0
 91
1
 92
3
 72
0
 73
1
 93
4
 10
7399.298379547902
 20
1740.8
 10
7424.239911176894
 20
1755.2
 10
7361.8860821044145
 20
1791.2
 10
7336.944550475422
 20
1776.8
 97
0
 75
1
 76
1
 98
0
  0
LWPOLYLINE
  5
18A
330
17
100
AcDbEntity
  8
TID-E-SUPPORT
100
AcDbPolyline
 90
4
 70
1
 10
7399.298379547902
 20
1740.8
 10
7424.239911176894
 20
1755.2
 10
7361.8860821044145
 20
1791.2
 10
7336.944550475422
 20
1776.8
  0
HATCH
  5
18B
330
17
100
AcDbEntity
  8
TID-HATCH
 62
7
420
16098630
100
AcDbHatch
 10
0.0
 20
0.0
 30
0.0
210
0.0
220
0.0
230
1.0
  2
SOLID
 70
1
 71
0
 91
1
 92
3
 72
0
 73
1
 93
4
 10
7399.298379547902
 20
1711.28
 10
7424.239911176894
 20
1725.68
 10
7424.239911176894
 20
1755.2
 10
7399.298379547902
 20
1740.8
 97
0
 75
1
 76
1
 98
0
  0
LWPOLYLINE
  5
18C
330
17
100
AcDbEntity
  8
TID-E-SUPPORT
100
AcDbPolyline
 90
4
 70
1
 10
7399.298379547902
 20
1711.28
 10
7424.239911176894
 20
1725.68
 10
7424.239911176894
 20
1755.2
 10
7399.298379547902
 20
1740.8
  0
HATCH
  5
18D
330
17
100
AcDbEntity
  8
TID-HATCH
 62
7
420
14452520
100
AcDbHatch
 10
0.0
 20
0.0
 30
0.0
210
0.0
220
0.0
230
1.0
  2
SOLID
 70
1
 71
0
 91
1
 92
3
 72
0
 73
1
 93
4
 10
7399.298379547902
 20
1711.28
 10
7336.944550475422
 20
1747.28
 10
7336.944550475422
 20
1776.8
 10
7399.298379547902
 20
1740.8
 97
0
 75
1
 76
1
 98
0
  0
LWPOLYLINE
  5
18E
330
17
100
AcDbEntity
  8
TID-E-SUPPORT
100
AcDbPolyline
 90
4
 70
1
 10
7399.298379547902
 20
1711.28
 10
7336.944550475422
 20
1747.28
 10
7336.944550475422
 20
1776.8
 10
7399.298379547902
 20
1740.8
  0
LWPOLYLINE
  5
18F
330
17
100
AcDbEntity
  8
TID-E-SUPPORT
100
AcDbPolyline
 90
2
 70
0
 43
10.0
 10
7380.592230826158
 20
2024.48
 10
7380.592230826158
 20
1766.0
  0
HATCH
  5
190
330
17
100
AcDbEntity
  8
TID-HATCH
 62
7
420
16764300
100
AcDbHatch
 10
0.0
 20
0.0
 30
0.0
210
0.0
220
0.0
230
1.0
  2
SOLID
 70
1
 71
0
 91
1
 92
3
 72
0
 73
1
 93
4
 10
8334.605815635095
 20
2280.8
 10
8359.547347264088
 20
2295.2
 10
8297.193518191609
 20
2331.2
 10
8272.251986562616
 20
2316.8
 97
0
 75
1
 76
1
 98
0
  0
LWPOLYLINE
  5
191
330
17
100
AcDbEntity
  8
TID-E-SUPPORT
100
AcDbPolyline
 90
4
 70
1
 10
8334.605815635095
 20
2280.8
 10
8359.547347264088
 20
2295.2
 10
8297.193518191609
 20
2331.2
 10
8272.251986562616
 20
2316.8
  0
HATCH
  5
192
330
17
100
AcDbEntity
  8
TID-HATCH
 62
7
420
16098630
100
AcDbHatch
 10
0.0
 20
0.0
 30
0.0
210
0.0
220
0.0
230
1.0
  2
SOLID
 70
1
 71
0
 91
1
 92
3
 72
0
 73
1
 93
4
 10
8334.605815635095
 20
2251.2799999999997
 10
8359.547347264088
 20
2265.68
 10
8359.547347264088
 20
2295.2
 10
8334.605815635095
 20
2280.8
 97
0
 75
1
 76
1
 98
0
  0
LWPOLYLINE
  5
193
330
17
100
AcDbEntity
  8
TID-E-SUPPORT
100
AcDbPolyline
 90
4
 70
1
 10
8334.605815635095
 20
2251.2799999999997
 10
8359.547347264088
 20
2265.68
 10
8359.547347264088
 20
2295.2
 10
8334.605815635095
 20
2280.8
  0
HATCH
  5
194
330
17
100
AcDbEntity
  8
TID-HATCH
 62
7
420
14452520
100
AcDbHatch
 10
0.0
 20
0.0
 30
0.0
210
0.0
220
0.0
230
1.0
  2
SOLID
 70
1
 71
0
 91
1
 92
3
 72
0
 73
1
 93
4
 10
8334.605815635095
 20
2251.2799999999997
 10
8272.251986562616
 20
2287.2799999999997
 10
8272.251986562616
 20
2316.8
 10
8334.605815635095
 20
2280.8
 97
0
 75
1
 76
1
 98
0
  0
LWPOLYLINE
  5
195
330
17
100
AcDbEntity
  8
TID-E-SUPPORT
100
AcDbPolyline
 90
4
 70
1
 10
8334.605815635095
 20
2251.2799999999997
 10
8272.251986562616
 20
2287.2799999999997
 10
8272.251986562616
 20
2316.8
 10
8334.605815635095
 20
2280.8
  0
LWPOLYLINE
  5
196
330
17
100
AcDbEntity
  8
TID-E-SUPPORT
100
AcDbPolyline
 90
2
 70
0
 43
10.0
 10
8315.899666913352
 20
2564.48
 10
8315.899666913352
 20
2306.0
  0
HATCH
  5
197
330
17
100
AcDbEntity
  8
TID-HATCH
 62
7
420
16764300
100
AcDbHatch
 10
0.0
 20
0.0
 30
0.0
210
0.0
220
0.0
230
1.0
  2
SOLID
 70
1
 71
0
 91
1
 92
3
 72
0
 73
1
 93
4
 10
9269.91325172229
 20
2820.7999999999997
 10
9294.854783351282
 20
2835.2
 10
9232.500954278803
 20
2871.2
 10
9207.55942264981
 20
2856.7999999999997
 97
0
 75
1
 76
1
 98
0
  0
LWPOLYLINE
  5
198
330
17
100
AcDbEntity
  8
TID-E-SUPPORT
100
AcDbPolyline
 90
4
 70
1
 10
9269.91325172229
 20
2820.7999999999997
 10
9294.854783351282
 20
2835.2
 10
9232.500954278803
 20
2871.2
 10
9207.55942264981
 20
2856.7999999999997
  0
HATCH
  5
199
330
17
100
AcDbEntity
  8
TID-HATCH
 62
7
420
16098630
100
AcDbHatch
 10
0.0
 20
0.0
 30
0.0
210
0.0
220
0.0
230
1.0
  2
SOLID
 70
1
 71
0
 91
1
 92
3
 72
0
 73
1
 93
4
 10
9269.91325172229
 20
2791.2799999999997
 10
9294.854783351282
 20
2805.68
 10
9294.854783351282
 20
2835.2
 10
9269.91325172229
 20
2820.7999999999997
 97
0
 75
1
 76
1
 98
0
  0
LWPOLYLINE
  5
19A
330
17
100
AcDbEntity
  8
TID-E-SUPPORT
100
AcDbPolyline
 90
4
 70
1
 10
9269.91325172229
 20
2791.2799999999997
 10
9294.854783351282
 20
2805.68
 10
9294.854783351282
 20
2835.2
 10
9269.91325172229
 20
2820.7999999999997
  0
HATCH
  5
19B
330
17
100
AcDbEntity
  8
TID-HATCH
 62
7
420
14452520
100
AcDbHatch
 10
0.0
 20
0.0
 30
0.0
210
0.0
220
0.0
230
1.0
  2
SOLID
 70
1
 71
0
 91
1
 92
3
 72
0
 73
1
 93
4
 10
9269.91325172229
 20
2791.2799999999997
 10
9207.55942264981
 20
2827.2799999999997
 10
9207.55942264981
 20
2856.7999999999997
 10
9269.91325172229
 20
2820.7999999999997
 97
0
 75
1
 76
1
 98
0
  0
LWPOLYLINE
  5
19C
330
17
100
AcDbEntity
  8
TID-E-SUPPORT
100
AcDbPolyline
 90
4
 70
1
 10
9269.91325172229
 20
2791.2799999999997
 10
9207.55942264981
 20
2827.2799999999997
 10
9207.55942264981
 20
2856.7999999999997
 10
9269.91325172229
 20
2820.7999999999997
  0
LWPOLYLINE
  5
19D
330
17
100
AcDbEntity
  8
TID-E-SUPPORT
100
AcDbPolyline
 90
2
 70
0
 43
10.0
 10
9251.207103000546
 20
3104.48
 10
9251.207103000546
 20
2846.0
  0
LWPOLYLINE
  5
19E
330
17
100
AcDbEntity
  8
TID-E-SUPPORT
100
AcDbPolyline
 90
2
 70
0
 43
8.0
 10
7754.715205261035
 20
2060.48
 10
7754.715205261035
 20
1730.0
  0
ELLIPSE
  5
19F
330
17
100
AcDbEntity
  8
TID-E-SUPPORT
100
AcDbEllipse
 10
7754.715205261035
 20
2046.8
 30
0.0
 11
0.0
 21
12.0
 31
0.0
 40
0.5
 41
0.0
 42
6.283185307179586
  0
ELLIPSE
  5
1A0
330
17
100
AcDbEntity
  8
TID-E-SUPPORT
100
AcDbEllipse
 10
7754.715205261035
 20
2010.8
 30
0.0
 11
0.0
 21
12.0
 31
0.0
 40
0.5
 41
0.0
 42
6.283185307179586
  0
ELLIPSE
  5
1A1
330
17
100
AcDbEntity
  8
TID-E-SUPPORT
100
AcDbEllipse
 10
7754.715205261035
 20
1974.8
 30
0.0
 11
0.0
 21
12.0
 31
0.0
 40
0.5
 41
0.0
 42
6.283185307179586
  0
ELLIPSE
  5
1A2
330
17
100
AcDbEntity
  8
TID-E-SUPPORT
100
AcDbEllipse
 10
7754.715205261035
 20
1938.8
 30
0.0
 11
0.0
 21
12.0
 31
0.0
 40
0.5
 41
0.0
 42
6.283185307179586
  0
ELLIPSE
  5
1A3
330
17
100
AcDbEntity
  8
TID-E-SUPPORT
100
AcDbEllipse
 10
7754.715205261035
 20
1902.8
 30
0.0
 11
0.0
 21
12.0
 31
0.0
 40
0.5
 41
0.0
 42
6.283185307179586
  0
ELLIPSE
  5
1A4
330
17
100
AcDbEntity
  8
TID-E-SUPPORT
100
AcDbEllipse
 10
7754.715205261035
 20
1866.8
 30
0.0
 11
0.0
 21
12.0
 31
0.0
 40
0.5
 41
0.0
 42
6.283185307179586
  0
ELLIPSE
  5
1A5
330
17
100
AcDbEntity
  8
TID-E-SUPPORT
100
AcDbEllipse
 10
7754.715205261035
 20
1830.8
 30
0.0
 11
0.0
 21
12.0
 31
0.0
 40
0.5
 41
0.0
 42
6.283185307179586
  0
ELLIPSE
  5
1A6
330
17
100
AcDbEntity
  8
TID-E-SUPPORT
100
AcDbEllipse
 10
7754.715205261035
 20
1794.8
 30
0.0
 11
0.0
 21
12.0
 31
0.0
 40
0.5
 41
0.0
 42
6.283185307179586
  0
ELLIPSE
  5
1A7
330
17
100
AcDbEntity
  8
TID-E-SUPPORT
100
AcDbEllipse
 10
7754.715205261035
 20
1758.8
 30
0.0
 11
0.0
 21
12.0
 31
0.0
 40
0.5
 41
0.0
 42
6.283185307179586
  0
HATCH
  5
1A8
330
17
100
AcDbEntity
  8
TID-HATCH
 62
7
420
11184810
100
AcDbHatch
 10
0.0
 20
0.0
 30
0.0
210
0.0
220
0.0
230
1.0
  2
SOLID
 70
1
 71
0
 91
1
 92
3
 72
0
 73
1
 93
4
 10
7754.715205261035
 20
1672.3999999999999
 10
7854.481331777003
 20
1730.0
 10
7754.715205261035
 20
1787.6
 10
7654.949078745069
 20
1730.0
 97
0
 75
1
 76
1
 98
0
  0
LWPOLYLINE
  5
1A9
330
17
100
AcDbEntity
  8
TID-E-LIGHTING
100
AcDbPolyline
 90
4
 70
1
 10
7754.715205261035
 20
1672.3999999999999
 10
7854.481331777003
 20
1730.0
 10
7754.715205261035
 20
1787.6
 10
7654.949078745069
 20
1730.0
  0
HATCH
  5
1AA
330
17
100
AcDbEntity
  8
TID-HATCH
 62
7
420
9211020
100
AcDbHatch
 10
0.0
 20
0.0
 30
0.0
210
0.0
220
0.0
230
1.0
  2
SOLID
 70
1
 71
0
 91
1
 92
3
 72
0
 73
1
 93
4
 10
7754.715205261035
 20
1607.6
 10
7854.481331777003
 20
1665.2
 10
7854.481331777003
 20
1730.0
 10
7754.715205261035
 20
1672.3999999999999
 97
0
 75
1
 76
1
 98
0
  0
LWPOLYLINE
  5
1AB
330
17
100
AcDbEntity
  8
TID-E-LIGHTING
100
AcDbPolyline
 90
4
 70
1
 10
7754.715205261035
 20
1607.6
 10
7854.481331777003
 20
1665.2
 10
7854.481331777003
 20
1730.0
 10
7754.715205261035
 20
1672.3999999999999
  0
HATCH
  5
1AC
330
17
100
AcDbEntity
  8
TID-HATCH
 62
7
420
7237230
100
AcDbHatch
 10
0.0
 20
0.0
 30
0.0
210
0.0
220
0.0
230
1.0
  2
SOLID
 70
1
 71
0
 91
1
 92
3
 72
0
 73
1
 93
4
 10
7754.715205261035
 20
1607.6
 10
7654.949078745069
 20
1665.2
 10
7654.949078745069
 20
1730.0
 10
7754.715205261035
 20
1672.3999999999999
 97
0
 75
1
 76
1
 98
0
  0
LWPOLYLINE
  5
1AD
330
17
100
AcDbEntity
  8
TID-E-LIGHTING
100
AcDbPolyline
 90
4
 70
1
 10
7754.715205261035
 20
1607.6
 10
7654.949078745069
 20
1665.2
 10
7654.949078745069
 20
1730.0
 10
7754.715205261035
 20
1672.3999999999999
  0
HATCH
  5
1AE
330
17
100
AcDbEntity
  8
TID-HATCH
 62
7
420
5921370
100
AcDbHatch
 10
0.0
 20
0.0
 30
0.0
210
0.0
220
0.0
230
1.0
  2
SOLID
 70
1
 71
0
 91
1
 92
3
 72
0
 73
1
 93
4
 10
7578.358405261036
 20
1665.2
 10
7931.072005261035
 20
1665.2
 10
7931.072005261035
 20
1593.2
 10
7578.358405261036
 20
1593.2
 97
0
 75
1
 76
1
 98
0
  0
ELLIPSE
  5
1AF
330
17
100
AcDbEntity
  8
TID-E-LIGHTING
100
AcDbEllipse
 10
7754.715205261035
 20
1665.2
 30
0.0
 11
176.3568
 21
0.0
 31
0.0
 40
0.577
 41
0.0
 42
6.283185307179586
  0
ELLIPSE
  5
1B0
330
17
100
AcDbEntity
  8
TID-E-LIGHTING
100
AcDbEllipse
 10
7754.715205261035
 20
1593.2
 30
0.0
 11
176.3568
 21
0.0
 31
0.0
 40
0.577
 41
0.0
 42
6.283185307179586
  0
ELLIPSE
  5
1B1
330
17
100
AcDbEntity
  8
TID-E-LIGHTING
100
AcDbEllipse
 10
7754.715205261035
 20
1575.2
 30
0.0
 11
164.011824
 21
0.0
 31
0.0
 40
0.577
 41
0.0
 42
6.283185307179586
  0
LINE
  5
1B2
330
17
100
AcDbEntity
  8
TID-E-LIGHTING
100
AcDbLine
 10
7578.358405261036
 20
1665.2
 30
0.0
 11
7578.358405261036
 21
1593.2
 31
0.0
  0
LINE
  5
1B3
330
17
100
AcDbEntity
  8
TID-E-LIGHTING
100
AcDbLine
 10
7931.072005261035
 20
1665.2
 30
0.0
 11
7931.072005261035
 21
1593.2
 31
0.0
  0
LINE
  5
1B4
330
17
100
AcDbEntity
  8
TID-E-LIGHTING
100
AcDbLine
 10
7588.9940216756195
 20
1630.3967574868127
 30
0.0
 11
7588.9940216756195
 21
1558.3967574868127
 31
0.0
  0
LINE
  5
1B5
330
17
100
AcDbEntity
  8
TID-E-LIGHTING
100
AcDbLine
 10
7619.61805861479
 20
1599.791299661871
 30
0.0
 11
7619.61805861479
 21
1527.791299661871
 31
0.0
  0
LINE
  5
1B6
330
17
100
AcDbEntity
  8
TID-E-LIGHTING
100
AcDbLine
 10
7666.536805261036
 20
1577.0750964273143
 30
0.0
 11
7666.536805261036
 21
1505.0750964273143
 31
0.0
  0
LINE
  5
1B7
330
17
100
AcDbEntity
  8
TID-E-LIGHTING
100
AcDbLine
 10
7724.091168321864
 20
1564.9880571486838
 30
0.0
 11
7724.091168321864
 21
1492.9880571486838
 31
0.0
  0
LINE
  5
1B8
330
17
100
AcDbEntity
  8
TID-E-LIGHTING
100
AcDbLine
 10
7785.339242200207
 20
1564.9880571486838
 30
0.0
 11
7785.339242200207
 21
1492.9880571486838
 31
0.0
  0
LINE
  5
1B9
330
17
100
AcDbEntity
  8
TID-E-LIGHTING
100
AcDbLine
 10
7842.893605261035
 20
1577.0750964273143
 30
0.0
 11
7842.893605261035
 21
1505.0750964273143
 31
0.0
  0
LINE
  5
1BA
330
17
100
AcDbEntity
  8
TID-E-LIGHTING
100
AcDbLine
 10
7889.812351907281
 20
1599.791299661871
 30
0.0
 11
7889.812351907281
 21
1527.791299661871
 31
0.0
  0
LINE
  5
1BB
330
17
100
AcDbEntity
  8
TID-E-LIGHTING
100
AcDbLine
 10
7920.436388846451
 20
1630.3967574868127
 30
0.0
 11
7920.436388846451
 21
1558.3967574868127
 31
0.0
  0
LWPOLYLINE
  5
1BC
330
17
100
AcDbEntity
  8
TID-E-CONDUIT
100
AcDbPolyline
 90
4
 70
0
 43
12.0
 10
7910.599777942235
 20
2144.0
 10
7960.482841200218
 20
2100.8
 10
7960.482841200218
 20
1704.8
 10
7866.952097591499
 20
1690.3999999999999
  0
LWPOLYLINE
  5
1BD
330
17
100
AcDbEntity
  8
TID-E-SUPPORT
100
AcDbPolyline
 90
2
 70
0
 43
8.0
 10
8690.022641348229
 20
2600.48
 10
8690.022641348229
 20
2270.0
  0
ELLIPSE
  5
1BE
330
17
100
AcDbEntity
  8
TID-E-SUPPORT
100
AcDbEllipse
 10
8690.022641348229
 20
2586.7999999999997
 30
0.0
 11
0.0
 21
12.0
 31
0.0
 40
0.5
 41
0.0
 42
6.283185307179586
  0
ELLIPSE
  5
1BF
330
17
100
AcDbEntity
  8
TID-E-SUPPORT
100
AcDbEllipse
 10
8690.022641348229
 20
2550.7999999999997
 30
0.0
 11
0.0
 21
12.0
 31
0.0
 40
0.5
 41
0.0
 42
6.283185307179586
  0
ELLIPSE
  5
1C0
330
17
100
AcDbEntity
  8
TID-E-SUPPORT
100
AcDbEllipse
 10
8690.022641348229
 20
2514.7999999999997
 30
0.0
 11
0.0
 21
12.0
 31
0.0
 40
0.5
 41
0.0
 42
6.283185307179586
  0
ELLIPSE
  5
1C1
330
17
100
AcDbEntity
  8
TID-E-SUPPORT
100
AcDbEllipse
 10
8690.022641348229
 20
2478.7999999999997
 30
0.0
 11
0.0
 21
12.0
 31
0.0
 40
0.5
 41
0.0
 42
6.283185307179586
  0
ELLIPSE
  5
1C2
330
17
100
AcDbEntity
  8
TID-E-SUPPORT
100
AcDbEllipse
 10
8690.022641348229
 20
2442.7999999999997
 30
0.0
 11
0.0
 21
12.0
 31
0.0
 40
0.5
 41
0.0
 42
6.283185307179586
  0
ELLIPSE
  5
1C3
330
17
100
AcDbEntity
  8
TID-E-SUPPORT
100
AcDbEllipse
 10
8690.022641348229
 20
2406.8
 30
0.0
 11
0.0
 21
12.0
 31
0.0
 40
0.5
 41
0.0
 42
6.283185307179586
  0
ELLIPSE
  5
1C4
330
17
100
AcDbEntity
  8
TID-E-SUPPORT
100
AcDbEllipse
 10
8690.022641348229
 20
2370.8
 30
0.0
 11
0.0
 21
12.0
 31
0.0
 40
0.5
 41
0.0
 42
6.283185307179586
  0
ELLIPSE
  5
1C5
330
17
100
AcDbEntity
  8
TID-E-SUPPORT
100
AcDbEllipse
 10
8690.022641348229
 20
2334.8
 30
0.0
 11
0.0
 21
12.0
 31
0.0
 40
0.5
 41
0.0
 42
6.283185307179586
  0
ELLIPSE
  5
1C6
330
17
100
AcDbEntity
  8
TID-E-SUPPORT
100
AcDbEllipse
 10
8690.022641348229
 20
2298.8
 30
0.0
 11
0.0
 21
12.0
 31
0.0
 40
0.5
 41
0.0
 42
6.283185307179586
  0
HATCH
  5
1C7
330
17
100
AcDbEntity
  8
TID-HATCH
 62
7
420
11184810
100
AcDbHatch
 10
0.0
 20
0.0
 30
0.0
210
0.0
220
0.0
230
1.0
  2
SOLID
 70
1
 71
0
 91
1
 92
3
 72
0
 73
1
 93
4
 10
8690.022641348229
 20
2212.3999999999996
 10
8789.788767864196
 20
2270.0
 10
8690.022641348229
 20
2327.6
 10
8590.256514832261
 20
2270.0
 97
0
 75
1
 76
1
 98
0
  0
LWPOLYLINE
  5
1C8
330
17
100
AcDbEntity
  8
TID-E-LIGHTING
100
AcDbPolyline
 90
4
 70
1
 10
8690.022641348229
 20
2212.3999999999996
 10
8789.788767864196
 20
2270.0
 10
8690.022641348229
 20
2327.6
 10
8590.256514832261
 20
2270.0
  0
HATCH
  5
1C9
330
17
100
AcDbEntity
  8
TID-HATCH
 62
7
420
9211020
100
AcDbHatch
 10
0.0
 20
0.0
 30
0.0
210
0.0
220
0.0
230
1.0
  2
SOLID
 70
1
 71
0
 91
1
 92
3
 72
0
 73
1
 93
4
 10
8690.022641348229
 20
2147.6
 10
8789.788767864196
 20
2205.2
 10
8789.788767864196
 20
2270.0
 10
8690.022641348229
 20
2212.3999999999996
 97
0
 75
1
 76
1
 98
0
  0
LWPOLYLINE
  5
1CA
330
17
100
AcDbEntity
  8
TID-E-LIGHTING
100
AcDbPolyline
 90
4
 70
1
 10
8690.022641348229
 20
2147.6
 10
8789.788767864196
 20
2205.2
 10
8789.788767864196
 20
2270.0
 10
8690.022641348229
 20
2212.3999999999996
  0
HATCH
  5
1CB
330
17
100
AcDbEntity
  8
TID-HATCH
 62
7
420
7237230
100
AcDbHatch
 10
0.0
 20
0.0
 30
0.0
210
0.0
220
0.0
230
1.0
  2
SOLID
 70
1
 71
0
 91
1
 92
3
 72
0
 73
1
 93
4
 10
8690.022641348229
 20
2147.6
 10
8590.256514832261
 20
2205.2
 10
8590.256514832261
 20
2270.0
 10
8690.022641348229
 20
2212.3999999999996
 97
0
 75
1
 76
1
 98
0
  0
LWPOLYLINE
  5
1CC
330
17
100
AcDbEntity
  8
TID-E-LIGHTING
100
AcDbPolyline
 90
4
 70
1
 10
8690.022641348229
 20
2147.6
 10
8590.256514832261
 20
2205.2
 10
8590.256514832261
 20
2270.0
 10
8690.022641348229
 20
2212.3999999999996
  0
HATCH
  5
1CD
330
17
100
AcDbEntity
  8
TID-HATCH
 62
7
420
5921370
100
AcDbHatch
 10
0.0
 20
0.0
 30
0.0
210
0.0
220
0.0
230
1.0
  2
SOLID
 70
1
 71
0
 91
1
 92
3
 72
0
 73
1
 93
4
 10
8513.66584134823
 20
2205.2
 10
8866.379441348228
 20
2205.2
 10
8866.379441348228
 20
2133.2
 10
8513.66584134823
 20
2133.2
 97
0
 75
1
 76
1
 98
0
  0
ELLIPSE
  5
1CE
330
17
100
AcDbEntity
  8
TID-E-LIGHTING
100
AcDbEllipse
 10
8690.022641348229
 20
2205.2
 30
0.0
 11
176.3568
 21
0.0
 31
0.0
 40
0.577
 41
0.0
 42
6.283185307179586
  0
ELLIPSE
  5
1CF
330
17
100
AcDbEntity
  8
TID-E-LIGHTING
100
AcDbEllipse
 10
8690.022641348229
 20
2133.2
 30
0.0
 11
176.3568
 21
0.0
 31
0.0
 40
0.577
 41
0.0
 42
6.283185307179586
  0
ELLIPSE
  5
1D0
330
17
100
AcDbEntity
  8
TID-E-LIGHTING
100
AcDbEllipse
 10
8690.022641348229
 20
2115.2
 30
0.0
 11
164.011824
 21
0.0
 31
0.0
 40
0.577
 41
0.0
 42
6.283185307179586
  0
LINE
  5
1D1
330
17
100
AcDbEntity
  8
TID-E-LIGHTING
100
AcDbLine
 10
8513.66584134823
 20
2205.2
 30
0.0
 11
8513.66584134823
 21
2133.2
 31
0.0
  0
LINE
  5
1D2
330
17
100
AcDbEntity
  8
TID-E-LIGHTING
100
AcDbLine
 10
8866.379441348228
 20
2205.2
 30
0.0
 11
8866.379441348228
 21
2133.2
 31
0.0
  0
LINE
  5
1D3
330
17
100
AcDbEntity
  8
TID-E-LIGHTING
100
AcDbLine
 10
8524.301457762813
 20
2170.3967574868125
 30
0.0
 11
8524.301457762813
 21
2098.3967574868125
 31
0.0
  0
LINE
  5
1D4
330
17
100
AcDbEntity
  8
TID-E-LIGHTING
100
AcDbLine
 10
8554.925494701984
 20
2139.7912996618707
 30
0.0
 11
8554.925494701984
 21
2067.7912996618707
 31
0.0
  0
LINE
  5
1D5
330
17
100
AcDbEntity
  8
TID-E-LIGHTING
100
AcDbLine
 10
8601.844241348228
 20
2117.075096427314
 30
0.0
 11
8601.844241348228
 21
2045.075096427314
 31
0.0
  0
LINE
  5
1D6
330
17
100
AcDbEntity
  8
TID-E-LIGHTING
100
AcDbLine
 10
8659.398604409058
 20
2104.9880571486838
 30
0.0
 11
8659.398604409058
 21
2032.9880571486835
 31
0.0
  0
LINE
  5
1D7
330
17
100
AcDbEntity
  8
TID-E-LIGHTING
100
AcDbLine
 10
8720.6466782874
 20
2104.9880571486838
 30
0.0
 11
8720.6466782874
 21
2032.9880571486835
 31
0.0
  0
LINE
  5
1D8
330
17
100
AcDbEntity
  8
TID-E-LIGHTING
100
AcDbLine
 10
8778.20104134823
 20
2117.075096427314
 30
0.0
 11
8778.20104134823
 21
2045.075096427314
 31
0.0
  0
LINE
  5
1D9
330
17
100
AcDbEntity
  8
TID-E-LIGHTING
100
AcDbLine
 10
8825.119787994474
 20
2139.7912996618707
 30
0.0
 11
8825.119787994474
 21
2067.7912996618707
 31
0.0
  0
LINE
  5
1DA
330
17
100
AcDbEntity
  8
TID-E-LIGHTING
100
AcDbLine
 10
8855.743824933645
 20
2170.3967574868125
 30
0.0
 11
8855.743824933645
 21
2098.3967574868125
 31
0.0
  0
LWPOLYLINE
  5
1DB
330
17
100
AcDbEntity
  8
TID-E-CONDUIT
100
AcDbPolyline
 90
4
 70
0
 43
12.0
 10
8845.907214029428
 20
2684.0
 10
8895.790277287411
 20
2640.7999999999997
 10
8895.790277287411
 20
2244.8
 10
8802.259533678693
 20
2230.3999999999996
  0
LINE
  5
1DC
330
17
100
AcDbEntity
  8
TID-ELC TEXT
100
AcDbLine
 10
6788.2308546376025
 20
2828.0
 30
0.0
 11
6538.2308546376025
 21
2978.0
 31
0.0
  0
LINE
  5
1DD
330
17
100
AcDbEntity
  8
TID-ELC TEXT
100
AcDbLine
 10
6538.2308546376025
 20
2978.0
 30
0.0
 11
6265.2308546376025
 21
2978.0
 31
0.0
  0
SOLID
  5
1DE
330
17
100
AcDbEntity
  8
TID-ELC TEXT
100
AcDbTrace
 10
6788.2308546376025
 20
2828.0
 30
0.0
 11
6764.086134016662
 21
2835.216125424127
 31
0.0
 12
6770.5014636770475
 22
2845.90834152477
 32
0.0
 13
6770.5014636770475
 23
2845.90834152477
 33
0.0
  0
TEXT
  5
1DF
330
17
100
AcDbEntity
  8
TID-ELC TEXT
100
AcDbText
 10
6273.630854637602
 20
2992.7
 30
0.0
 40
42.0
  1
'C' PURLIN
  7
TX-AN
 41
0.9
 11
6273.630854637602
 21
2992.7
 31
0.0
100
AcDbText
  0
LINE
  5
1E0
330
17
100
AcDbEntity
  8
TID-ELC TEXT
100
AcDbLine
 10
9251.207103000546
 20
2666.0
 30
0.0
 11
9601.207103000546
 21
2816.0
 31
0.0
  0
LINE
  5
1E1
330
17
100
AcDbEntity
  8
TID-ELC TEXT
100
AcDbLine
 10
9601.207103000546
 20
2816.0
 30
0.0
 11
10012.807103000547
 21
2816.0
 31
0.0
  0
SOLID
  5
1E2
330
17
100
AcDbEntity
  8
TID-ELC TEXT
100
AcDbTrace
 10
9251.207103000546
 20
2666.0
 30
0.0
 11
9271.193571840186
 21
2681.348650211732
 31
0.0
 12
9276.105414422587
 22
2669.8876841861306
 32
0.0
 13
9276.105414422587
 23
2669.8876841861306
 33
0.0
  0
TEXT
  5
1E3
330
17
100
AcDbEntity
  8
TID-ELC TEXT
100
AcDbText
 10
9618.007103000546
 20
2830.7
 30
0.0
 40
42.0
  1
THREADED ROD M10
  7
TX-AN
 41
0.9
 11
9618.007103000546
 21
2830.7
 31
0.0
100
AcDbText
  0
LINE
  5
1E4
330
17
100
AcDbEntity
  8
TID-ELC TEXT
100
AcDbLine
 10
9145.20559357733
 20
3166.4
 30
0.0
 11
8945.20559357733
 21
3666.4
 31
0.0
  0
LINE
  5
1E5
330
17
100
AcDbEntity
  8
TID-ELC TEXT
100
AcDbLine
 10
8945.20559357733
 20
3666.4
 30
0.0
 11
8533.60559357733
 21
3666.4
 31
0.0
  0
SOLID
  5
1E6
330
17
100
AcDbEntity
  8
TID-ELC TEXT
100
AcDbTrace
 10
9145.20559357733
 20
3166.4
 30
0.0
 11
9130.348836581836
 21
3186.754772697744
 31
0.0
 12
9141.926160575624
 22
3191.3857022952593
 32
0.0
 13
9141.926160575624
 23
3191.3857022952593
 33
0.0
  0
TEXT
  5
1E7
330
17
100
AcDbEntity
  8
TID-ELC TEXT
100
AcDbText
 10
8542.005593577329
 20
3681.1
 30
0.0
 40
42.0
  1
UNISTRUT CHANNEL
  7
TX-AN
 41
0.9
 11
8542.005593577329
 21
3681.1
 31
0.0
100
AcDbText
  0
LINE
  5
1E8
330
17
100
AcDbEntity
  8
TID-ELC TEXT
100
AcDbLine
 10
9095.322530319347
 20
2936.0
 30
0.0
 11
9345.322530319347
 21
3086.0
 31
0.0
  0
LINE
  5
1E9
330
17
100
AcDbEntity
  8
TID-ELC TEXT
100
AcDbLine
 10
9345.322530319347
 20
3086.0
 30
0.0
 11
9826.222530319346
 21
3086.0
 31
0.0
  0
SOLID
  5
1EA
330
17
100
AcDbEntity
  8
TID-ELC TEXT
100
AcDbTrace
 10
9095.322530319347
 20
2936.0
 30
0.0
 11
9113.0519212799
 21
2953.90834152477
 31
0.0
 12
9119.467250940288
 22
2943.216125424127
 32
0.0
 13
9119.467250940288
 23
2943.216125424127
 33
0.0
  0
TEXT
  5
1EB
330
17
100
AcDbEntity
  8
TID-ELC TEXT
100
AcDbText
 10
9362.122530319346
 20
3100.7
 30
0.0
 40
42.0
  1
CABLE TRUNKING
  7
TX-AN
 41
0.9
 11
9362.122530319346
 21
3100.7
 31
0.0
100
AcDbText
  0
TEXT
  5
1EC
330
17
100
AcDbEntity
  8
TID-ELC TEXT
100
AcDbText
 10
9362.122530319346
 20
3023.0
 30
0.0
 40
42.0
  1
200x100mm C/W COVER
  7
TX-AN
 41
0.9
 11
9362.122530319346
 21
3023.0
 31
0.0
100
AcDbText
  0
LINE
  5
1ED
330
17
100
AcDbEntity
  8
TID-ELC TEXT
100
AcDbLine
 10
8814.730299493189
 20
2234.0
 30
0.0
 11
9164.730299493189
 21
2084.0
 31
0.0
  0
LINE
  5
1EE
330
17
100
AcDbEntity
  8
TID-ELC TEXT
100
AcDbLine
 10
9164.730299493189
 20
2084.0
 30
0.0
 11
9576.33029949319
 21
2084.0
 31
0.0
  0
SOLID
  5
1EF
330
17
100
AcDbEntity
  8
TID-ELC TEXT
100
AcDbTrace
 10
8814.730299493189
 20
2234.0
 30
0.0
 11
8839.62861091523
 21
2230.1123158138694
 31
0.0
 12
8834.716768332828
 22
2218.651349788268
 32
0.0
 13
8834.716768332828
 23
2218.651349788268
 33
0.0
  0
TEXT
  5
1F0
330
17
100
AcDbEntity
  8
TID-ELC TEXT
100
AcDbText
 10
9181.530299493188
 20
2098.7
 30
0.0
 40
42.0
  1
HIGHBAY LED 150W
  7
TX-AN
 41
0.9
 11
9181.530299493188
 21
2098.7
 31
0.0
100
AcDbText
  0
LINE
  5
1F1
330
17
100
AcDbEntity
  8
TID-ELC TEXT
100
AcDbLine
 10
7960.482841200218
 20
1827.2
 30
0.0
 11
7510.482841200218
 21
1377.2
 31
0.0
  0
LINE
  5
1F2
330
17
100
AcDbEntity
  8
TID-ELC TEXT
100
AcDbLine
 10
7510.482841200218
 20
1377.2
 30
0.0
 11
6960.282841200218
 21
1377.2
 31
0.0
  0
SOLID
  5
1F3
330
17
100
AcDbEntity
  8
TID-ELC TEXT
100
AcDbTrace
 10
7960.482841200218
 20
1827.2
 30
0.0
 11
7947.626216332766
 21
1805.5263478615716
 31
0.0
 12
7938.80918906179
 22
1814.3433751325476
 32
0.0
 13
7938.80918906179
 23
1814.3433751325476
 33
0.0
  0
TEXT
  5
1F4
330
17
100
AcDbEntity
  8
TID-ELC TEXT
100
AcDbText
 10
6968.682841200218
 20
1391.9
 30
0.0
 40
42.0
  1
FLEXIBLE CONDUIT Ø20mm
  7
TX-AN
 41
0.9
 11
6968.682841200218
 21
1391.9
 31
0.0
100
AcDbText
  0
LINE
  5
1F5
330
17
100
AcDbEntity
  8
TID-ELC TEXT
100
AcDbLine
 10
7754.715205261035
 20
1910.0
 30
0.0
 11
7304.715205261035
 21
2260.0
 31
0.0
  0
LINE
  5
1F6
330
17
100
AcDbEntity
  8
TID-ELC TEXT
100
AcDbLine
 10
7304.715205261035
 20
2260.0
 30
0.0
 11
6985.515205261036
 21
2260.0
 31
0.0
  0
SOLID
  5
1F7
330
17
100
AcDbEntity
  8
TID-ELC TEXT
100
AcDbTrace
 10
7754.715205261035
 20
1910.0
 30
0.0
 11
7731.614251683338
 21
1920.069058734611
 31
0.0
 12
7739.269575145287
 22
1929.911617471403
 32
0.0
 13
7739.269575145287
 23
1929.911617471403
 33
0.0
  0
TEXT
  5
1F8
330
17
100
AcDbEntity
  8
TID-ELC TEXT
100
AcDbText
 10
6993.915205261035
 20
2274.7
 30
0.0
 40
42.0
  1
SAFETY CHAIN
  7
TX-AN
 41
0.9
 11
6993.915205261035
 21
2274.7
 31
0.0
100
AcDbText
  0
TEXT
  5
1F9
330
17
100
AcDbEntity
  8
TID-ELC TEXT
100
AcDbText
 10
7367.069034333515
 20
2306.0
 30
0.0
 40
42.0
  1
SUPPORT @ 1500mm MAX.
 50
30.0
  7
TX-AN
 41
0.9
 11
7367.069034333515
 21
2306.0
 31
0.0
100
AcDbText
  0
TEXT
  5
1FA
330
17
100
AcDbEntity
  8
TID-E-TITLE
100
AcDbText
 10
6900.0
 20
300.0
 30
0.0
 40
50.4
  1
ISOMETRIC - CABLE TRUNKING FOR HIGHBAY
  7
TX-AN
 41
0.9
 11
6900.0
 21
300.0
 31
0.0
100
AcDbText
  0
LINE
  5
1FB
330
17
100
AcDbEntity
  8
TID-E-TITLE
100
AcDbLine
 10
6900.0
 20
284.88
 30
0.0
 11
8087.424
 21
284.88
 31
0.0
  0
TEXT
  5
1FC
330
17
100
AcDbEntity
  8
TID-ELC TEXT
100
AcDbText
 10
6900.0
 20
239.52
 30
0.0
 40
25.2
  1
SCALE  :  NTS
  7
TX-AN
 41
0.9
 11
6900.0
 21
239.52
 31
0.0
100
AcDbText
  0
TEXT
  5
1FD
330
17
100
AcDbEntity
  8
TID-ELC TEXT
100
AcDbText
 10
6900.0
 20
1150.0
 30
0.0
 40
50.0
  1
NOTES :
  7
TX-AN
 41
0.9
 11
6900.0
 21
1150.0
 31
0.0
100
AcDbText
  0
TEXT
  5
1FE
330
17
100
AcDbEntity
  8
TID-ELC TEXT
100
AcDbText
 10
6900.0
 20
1055.0
 30
0.0
 40
50.0
  1
1. ALL SUPPORT MATERIAL SHALL BE HOT DIP GALVANIZED (HDG).
  7
TX-AN
 41
0.9
 11
6900.0
 21
1055.0
 31
0.0
100
AcDbText
  0
TEXT
  5
1FF
330
17
100
AcDbEntity
  8
TID-ELC TEXT
100
AcDbText
 10
6900.0
 20
960.0
 30
0.0
 40
50.0
  1
2. MAX. SUPPORT SPACING 1500mm, AND AT EVERY BEND / TEE.
  7
TX-AN
 41
0.9
 11
6900.0
 21
960.0
 31
0.0
100
AcDbText
  0
TEXT
  5
200
330
17
100
AcDbEntity
  8
TID-ELC TEXT
100
AcDbText
 10
6900.0
 20
865.0
 30
0.0
 40
50.0
  1
3. HIGHBAY SHALL BE HUNG WITH SAFETY CHAIN, INDEPENDENT FROM TRUNKING.
  7
TX-AN
 41
0.9
 11
6900.0
 21
865.0
 31
0.0
100
AcDbText
  0
TEXT
  5
201
330
17
100
AcDbEntity
  8
TID-ELC TEXT
100
AcDbText
 10
6900.0
 20
770.0
 30
0.0
 40
50.0
  1
4. TRUNKING SHALL BE BONDED TO EARTH (BC 16mm²) AT EVERY 30m & END.
  7
TX-AN
 41
0.9
 11
6900.0
 21
770.0
 31
0.0
100
AcDbText
  0
ENDSEC
  0
SECTION
  2
OBJECTS
  0
DICTIONARY
  5
A
330
0
100
AcDbDictionary
281
1
  3
ACAD_COLOR
350
B
  3
ACAD_GROUP
350
C
  3
ACAD_LAYOUT
350
D
  3
ACAD_MATERIAL
350
E
  3
ACAD_MLEADERSTYLE
350
F
  3
ACAD_MLINESTYLE
350
10
  3
ACAD_PLOTSETTINGS
350
11
  3
ACAD_PLOTSTYLENAME
350
12
  3
ACAD_SCALELIST
350
14
  3
ACAD_TABLESTYLE
350
15
  3
ACAD_VISUALSTYLE
350
16
  3
EZDXF_META
350
2D
  0
DICTIONARY
  5
B
330
A
100
AcDbDictionary
281
1
  0
DICTIONARY
  5
C
330
A
100
AcDbDictionary
281
1
  0
DICTIONARY
  5
D
330
A
100
AcDbDictionary
281
1
  3
Model
350
1A
  3
Layout1
350
1E
  0
DICTIONARY
  5
E
330
A
100
AcDbDictionary
281
1
  3
ByBlock
350
1F
  3
ByLayer
350
20
  3
Global
350
21
  0
DICTIONARY
  5
F
330
A
100
AcDbDictionary
281
1
  3
Standard
350
2C
  0
DICTIONARY
  5
10
330
A
100
AcDbDictionary
281
1
  3
Standard
350
22
  0
DICTIONARY
  5
11
330
A
100
AcDbDictionary
281
1
  0
ACDBDICTIONARYWDFLT
  5
12
330
A
100
AcDbDictionary
281
1
  3
Normal
350
13
100
AcDbDictionaryWithDefault
340
13
  0
ACDBPLACEHOLDER
  5
13
330
12
  0
DICTIONARY
  5
14
330
A
100
AcDbDictionary
281
1
  0
DICTIONARY
  5
15
330
A
100
AcDbDictionary
281
1
  0
DICTIONARY
  5
16
330
A
100
AcDbDictionary
281
1
  3
2dWireframe
350
5A
  3
Basic
350
5B
  3
Brighten
350
5C
  3
ColorChange
350
5D
  3
Conceptual
350
5E
  3
Dim
350
5F
  3
EdgeColorOff
350
60
  3
Facepattern
350
61
  3
Flat
350
62
  3
FlatWithEdges
350
63
  3
Gouraud
350
64
  3
GouraudWithEdges
350
65
  3
Hidden
350
66
  3
JitterOff
350
67
  3
Linepattern
350
68
  3
Modeling
350
69
  3
OverhangOff
350
6A
  3
Realistic
350
6B
  3
Shaded
350
6C
  3
Shaded with edges
350
6D
  3
Shades of Gray
350
6E
  3
Sketchy
350
6F
  3
Thicken
350
70
  3
Wireframe
350
71
  3
X-Ray
350
72
  0
LAYOUT
  5
1A
330
D
100
AcDbPlotSettings
  1

  4
A3
  6

 40
7.5
 41
20.0
 42
7.5
 43
20.0
 44
420.0
 45
297.0
 46
0.0
 47
0.0
 48
0.0
 49
0.0
140
0.0
141
0.0
142
1.0
143
1.0
 70
1024
 72
1
 73
0
 74
5
  7

 75
16
 76
0
 77
2
 78
300
147
1.0
148
0.0
149
0.0
100
AcDbLayout
  1
Model
 70
1
 71
0
 10
0.0
 20
0.0
 11
420.0
 21
297.0
 12
0.0
 22
0.0
 32
0.0
 14
1e+20
 24
1e+20
 34
1e+20
 15
-1e+20
 25
-1e+20
 35
-1e+20
146
0.0
 13
0.0
 23
0.0
 33
0.0
 16
1.0
 26
0.0
 36
0.0
 17
0.0
 27
1.0
 37
0.0
 76
1
330
17
  0
LAYOUT
  5
1E
330
D
100
AcDbPlotSettings
  1

  4
A3
  6

 40
7.5
 41
20.0
 42
7.5
 43
20.0
 44
420.0
 45
297.0
 46
0.0
 47
0.0
 48
0.0
 49
0.0
140
0.0
141
0.0
142
1.0
143
1.0
 70
0
 72
1
 73
0
 74
5
  7

 75
16
 76
0
 77
2
 78
300
147
1.0
148
0.0
149
0.0
100
AcDbLayout
  1
Layout1
 70
1
 71
1
 10
0.0
 20
0.0
 11
420.0
 21
297.0
 12
0.0
 22
0.0
 32
0.0
 14
1e+20
 24
1e+20
 34
1e+20
 15
-1e+20
 25
-1e+20
 35
-1e+20
146
0.0
 13
0.0
 23
0.0
 33
0.0
 16
1.0
 26
0.0
 36
0.0
 17
0.0
 27
1.0
 37
0.0
 76
1
330
1B
  0
MATERIAL
  5
1F
102
{ACAD_REACTORS
330
E
102
}
330
E
100
AcDbMaterial
  1
ByBlock
  2

 70
0
 40
1.0
 71
1
 41
1.0
 91
-1023410177
 42
1.0
 72
1
  3

 73
1
 74
1
 75
1
 44
0.5
 73
0
 45
1.0
 46
1.0
 77
1
  4

 78
1
 79
1
170
1
 48
1.0
171
1
  6

172
1
173
1
174
1
140
1.0
141
1.0
175
1
  7

176
1
177
1
178
1
143
1.0
179
1
  8

270
1
271
1
272
1
145
1.0
146
1.0
273
1
  9

274
1
275
1
276
1
 42
1.0
 72
1
  3

 73
1
 74
1
 75
1
 94
63
  0
MATERIAL
  5
20
102
{ACAD_REACTORS
330
E
102
}
330
E
100
AcDbMaterial
  1
ByLayer
  2

 70
0
 40
1.0
 71
1
 41
1.0
 91
-1023410177
 42
1.0
 72
1
  3

 73
1
 74
1
 75
1
 44
0.5
 73
0
 45
1.0
 46
1.0
 77
1
  4

 78
1
 79
1
170
1
 48
1.0
171
1
  6

172
1
173
1
174
1
140
1.0
141
1.0
175
1
  7

176
1
177
1
178
1
143
1.0
179
1
  8

270
1
271
1
272
1
145
1.0
146
1.0
273
1
  9

274
1
275
1
276
1
 42
1.0
 72
1
  3

 73
1
 74
1
 75
1
 94
63
  0
MATERIAL
  5
21
102
{ACAD_REACTORS
330
E
102
}
330
E
100
AcDbMaterial
  1
Global
  2

 70
0
 40
1.0
 71
1
 41
1.0
 91
-1023410177
 42
1.0
 72
1
  3

 73
1
 74
1
 75
1
 44
0.5
 73
0
 45
1.0
 46
1.0
 77
1
  4

 78
1
 79
1
170
1
 48
1.0
171
1
  6

172
1
173
1
174
1
140
1.0
141
1.0
175
1
  7

176
1
177
1
178
1
143
1.0
179
1
  8

270
1
271
1
272
1
145
1.0
146
1.0
273
1
  9

274
1
275
1
276
1
 42
1.0
 72
1
  3

 73
1
 74
1
 75
1
 94
63
  0
MLINESTYLE
  5
22
102
{ACAD_REACTORS
330
10
102
}
330
10
100
AcDbMlineStyle
  2
Standard
 70
0
  3

 62
256
 51
90.0
 52
90.0
 71
2
 49
0.5
 62
256
  6
BYLAYER
 49
-0.5
 62
256
  6
BYLAYER
  0
MLEADERSTYLE
  5
2C
102
{ACAD_REACTORS
330
F
102
}
330
F
100
AcDbMLeaderStyle
179
2
170
2
171
1
172
0
 90
2
 40
0.0
 41
0.0
173
1
 91
-1056964608
 92
-2
290
1
 42
2.0
291
1
 43
8.0
  3
Standard
 44
4.0
300

342
29
174
1
175
1
176
0
178
1
 93
-1056964608
 45
4.0
292
0
297
0
 46
4.0
 94
-1056964608
 47
1.0
 49
1.0
140
1.0
294
1
141
0.0
177
0
142
1.0
295
0
296
0
143
3.75
271
0
272
9
273
9
  0
DICTIONARY
  5
2D
330
A
100
AcDbDictionary
280
1
281
1
  3
CREATED_BY_EZDXF
350
2E
  3
WRITTEN_BY_EZDXF
350
204
  0
DICTIONARYVAR
  5
2E
330
2D
100
DictionaryVariables
280
0
  1
1.4.4 @ 2026-09-24T11:44:46.717846+00:00
  0
VISUALSTYLE
  5
5A
102
{ACAD_REACTORS
330
16
102
}
330
16
100
AcDbVisualStyle
  2
2dWireframe
 70
4
 90
0
 40
0.6
 62
7
290
0
291
0
  0
VISUALSTYLE
  5
5B
102
{ACAD_REACTORS
330
16
102
}
330
16
100
AcDbVisualStyle
  2
Basic
 70
7
 90
1
 40
0.6
 62
7
290
0
291
1
  0
VISUALSTYLE
  5
5C
102
{ACAD_REACTORS
330
16
102
}
330
16
100
AcDbVisualStyle
  2
Brighten
 70
12
 90
2
 40
0.6
 62
7
290
0
291
1
  0
VISUALSTYLE
  5
5D
102
{ACAD_REACTORS
330
16
102
}
330
16
100
AcDbVisualStyle
  2
ColorChange
 70
16
 90
2
 40
0.6
 62
8
290
0
291
1
  0
VISUALSTYLE
  5
5E
102
{ACAD_REACTORS
330
16
102
}
330
16
100
AcDbVisualStyle
  2
Conceptual
 70
9
 90
3
 40
0.6
 62
7
290
0
291
0
  0
VISUALSTYLE
  5
5F
102
{ACAD_REACTORS
330
16
102
}
330
16
100
AcDbVisualStyle
  2
Dim
 70
11
 90
2
 40
0.6
 62
7
290
0
291
1
  0
VISUALSTYLE
  5
60
102
{ACAD_REACTORS
330
16
102
}
330
16
100
AcDbVisualStyle
  2
EdgeColorOff
 70
22
 90
2
 40
0.6
 62
7
290
0
291
1
  0
VISUALSTYLE
  5
61
102
{ACAD_REACTORS
330
16
102
}
330
16
100
AcDbVisualStyle
  2
Facepattern
 70
15
 90
2
 40
0.6
 62
7
290
0
291
1
  0
VISUALSTYLE
  5
62
102
{ACAD_REACTORS
330
16
102
}
330
16
100
AcDbVisualStyle
  2
Flat
 70
0
 90
2
 40
0.6
 62
7
290
0
291
1
  0
VISUALSTYLE
  5
63
102
{ACAD_REACTORS
330
16
102
}
330
16
100
AcDbVisualStyle
  2
FlatWithEdges
 70
1
 90
2
 40
0.6
 62
7
290
0
291
1
  0
VISUALSTYLE
  5
64
102
{ACAD_REACTORS
330
16
102
}
330
16
100
AcDbVisualStyle
  2
Gouraud
 70
2
 90
2
 40
0.6
 62
7
290
0
291
1
  0
VISUALSTYLE
  5
65
102
{ACAD_REACTORS
330
16
102
}
330
16
100
AcDbVisualStyle
  2
GouraudWithEdges
 70
3
 90
2
 40
0.6
 62
7
290
0
291
1
  0
VISUALSTYLE
  5
66
102
{ACAD_REACTORS
330
16
102
}
330
16
100
AcDbVisualStyle
  2
Hidden
 70
6
 90
1
 40
0.6
 62
7
290
0
291
0
  0
VISUALSTYLE
  5
67
102
{ACAD_REACTORS
330
16
102
}
330
16
100
AcDbVisualStyle
  2
JitterOff
 70
20
 90
2
 40
0.6
 62
7
290
0
291
1
  0
VISUALSTYLE
  5
68
102
{ACAD_REACTORS
330
16
102
}
330
16
100
AcDbVisualStyle
  2
Linepattern
 70
14
 90
2
 40
0.6
 62
7
290
0
291
1
  0
VISUALSTYLE
  5
69
102
{ACAD_REACTORS
330
16
102
}
330
16
100
AcDbVisualStyle
  2
Modeling
 70
10
 90
2
 40
0.6
 62
7
290
0
291
0
  0
VISUALSTYLE
  5
6A
102
{ACAD_REACTORS
330
16
102
}
330
16
100
AcDbVisualStyle
  2
OverhangOff
 70
21
 90
2
 40
0.6
 62
7
290
0
291
1
  0
VISUALSTYLE
  5
6B
102
{ACAD_REACTORS
330
16
102
}
330
16
100
AcDbVisualStyle
  2
Realistic
 70
8
 90
2
 40
0.6
 62
7
290
0
291
0
  0
VISUALSTYLE
  5
6C
102
{ACAD_REACTORS
330
16
102
}
330
16
100
AcDbVisualStyle
  2
Shaded
 70
27
 90
2
 40
0.6
 62
7
290
0
291
0
  0
VISUALSTYLE
  5
6D
102
{ACAD_REACTORS
330
16
102
}
330
16
100
AcDbVisualStyle
  2
Shaded with edges
 70
26
 90
2
 40
0.6
 62
7
290
0
291
0
  0
VISUALSTYLE
  5
6E
102
{ACAD_REACTORS
330
16
102
}
330
16
100
AcDbVisualStyle
  2
Shades of Gray
 70
23
 90
2
 40
0.6
 62
7
290
0
291
0
  0
VISUALSTYLE
  5
6F
102
{ACAD_REACTORS
330
16
102
}
330
16
100
AcDbVisualStyle
  2
Sketchy
 70
24
 90
1
 40
0.6
 62
7
290
0
291
0
  0
VISUALSTYLE
  5
70
102
{ACAD_REACTORS
330
16
102
}
330
16
100
AcDbVisualStyle
  2
Thicken
 70
13
 90
2
 40
0.6
 62
7
290
0
291
1
  0
VISUALSTYLE
  5
71
102
{ACAD_REACTORS
330
16
102
}
330
16
100
AcDbVisualStyle
  2
Wireframe
 70
5
 90
0
 40
0.6
 62
7
290
0
291
0
  0
VISUALSTYLE
  5
72
102
{ACAD_REACTORS
330
16
102
}
330
16
100
AcDbVisualStyle
  2
X-Ray
 70
25
 90
2
 40
0.5
 62
7
290
0
291
0
  0
DICTIONARYVAR
  5
204
330
2D
100
DictionaryVariables
280
0
  1
1.4.4 @ 2026-09-24T11:44:46.735896+00:00
  0
ENDSEC
  0
EOF
